<svg width="476" height="465" viewBox="0 0 476 465" fill="none" xmlns="http://www.w3.org/2000/svg">
<path d="M84.9053 321.639L229.682 414.689C235.012 418.115 241.861 418.073 247.149 414.582L392.095 318.887C396.581 315.925 399.28 310.91 399.28 305.535L399.28 159.342C399.28 154.115 396.726 149.217 392.44 146.224L249.066 46.1032C243.608 42.2913 236.359 42.2581 230.866 46.0197L84.5159 146.234C80.16 149.217 77.5558 154.156 77.5558 159.436L77.556 308.179C77.556 313.624 80.3249 318.695 84.9053 321.639Z" fill="#661156"/>
<rect x="89.6853" y="157.111" width="204" height="262" rx="17" transform="rotate(-26 89.6853 157.111)" fill="#FCFBE4" stroke="#661156" stroke-width="10"/>
<rect x="207.539" y="66.6858" width="204" height="262" rx="17" transform="rotate(26 207.539 66.6858)" fill="#FCFBE4" stroke="#661156" stroke-width="10"/>
<rect x="136" y="103" width="204" height="262" rx="17" fill="#FCFBE4" stroke="#661156" stroke-width="10"/>
<path d="M162.5 202.5V201H165.5V195H164V193.5H165.5V192H168.5V201H171.5V202.5H162.5ZM176 202.5V199.5H179V202.5H176Z" fill="#661156"/>
<path d="M161 227.5V224.5H162.5V223H164V221.5H167V220H168.5V218.5H164V220H161V218.5H162.5V217H170V218.5H171.5V221.5H170V223H168.5V224.5H165.5V226H171.5V227.5H161ZM176 227.5V224.5H179V227.5H176Z" fill="#661156"/>
<path d="M162.5 252.5V251H161V249.5H164V251H168.5V248H164V246.5H165.5V245H167V243.5H162.5V242H171.5V243.5H170V245H168.5V246.5H170V248H171.5V251H170V252.5H162.5ZM176 252.5V249.5H179V252.5H176Z" fill="#661156"/>
<path d="M167 277.5V274.5H161V271.5H162.5V270H164V268.5H165.5V267H170V273H171.5V274.5H170V277.5H167ZM164 273H167V270H165.5V271.5H164V273ZM176 277.5V274.5H179V277.5H176Z" fill="#661156"/>
<path d="M162.5 302.5V301H161V299.5H164V301H168.5V296.5H161V292H170V293.5H164V295H170V296.5H171.5V301H170V302.5H162.5ZM176 302.5V299.5H179V302.5H176Z" fill="#661156"/>
<path d="M162.5 327.5V326H161V320H162.5V318.5H164V317H170V318.5H165.5V320H164V321.5H170V323H171.5V326H170V327.5H162.5ZM164 326H168.5V323H164V326ZM176 327.5V324.5H179V327.5H176Z" fill="#661156"/>
<path d="M217 146V144H215V134H217V132H227V134H229V144H227V146H217ZM219 144H225V134H219V144ZM233 146V144H231V136H235V144H241V136H245V146H233ZM253 138H255V140H253V146H249V136H253V138ZM261 136V138H255V136H261ZM191 166V152H203V154H205V160H201V162H203V164H205V166H199V164H197V162H195V166H191ZM195 160H199V158H201V154H195V160ZM209 166V164H207V158H209V156H219V158H221V162H211V164H219V166H209ZM211 160H217V158H211V160ZM225 166V164H223V158H225V156H237V158H227V164H237V166H225ZM245 154V152H249V154H245ZM241 166V164H245V158H243V156H249V164H253V166H241ZM255 168V156H267V158H269V162H267V164H259V168H255ZM259 162H265V158H259V162ZM273 166V164H271V158H273V156H283V158H285V162H275V164H283V166H273ZM275 160H281V158H275V160Z" fill="#661156"/>
<path d="M312 201L192 201" stroke="#661156" stroke-width="6" stroke-linecap="round"/>
<path d="M312 226L192 226" stroke="#661156" stroke-width="6" stroke-linecap="round"/>
<path d="M312 252L192 252" stroke="#661156" stroke-width="6" stroke-linecap="round"/>
<path d="M312 277L192 277" stroke="#661156" stroke-width="6" stroke-linecap="round"/>
<path d="M312 303L192 303" stroke="#661156" stroke-width="6" stroke-linecap="round"/>
<path d="M312 328L192 328" stroke="#661156" stroke-width="6" stroke-linecap="round"/>
</svg>
