<svg width="1240" height="663" viewBox="0 0 1240 663" fill="none" xmlns="http://www.w3.org/2000/svg">
<path d="M6.32966 165.501H1233.74L1139.52 318.667L1138.44 320.416L1139.44 322.208L1234.04 491.501H6.0247L102.54 322.235L103.578 320.415L102.464 318.64L6.32966 165.501Z" fill="#661156" stroke="#661156" stroke-width="7"/>
<path d="M404.575 459.569L609.104 591.023C617.431 596.375 628.133 596.309 636.395 590.855L841.197 455.643C848.206 451.015 852.423 443.178 852.423 434.78L852.423 228.342C852.423 220.174 848.433 212.522 841.736 207.845L639.183 66.3985C630.654 60.4425 619.328 60.3905 610.744 66.268L403.966 207.861C397.16 212.522 393.091 220.24 393.091 228.488L393.092 438.538C393.092 447.045 397.418 454.969 404.575 459.569Z" fill="#FCFBE4" stroke="#661156" stroke-width="10"/>
</svg>
