<svg width="199" height="222" viewBox="0 0 199 222" fill="none" xmlns="http://www.w3.org/2000/svg">
<rect width="199" height="222" rx="16" fill="#FCFBE4"/>
<path d="M133.201 172L59 172C54.0294 172 50 167.971 50 163L50 53.8098C50 52.6356 50.2298 51.4728 50.6764 50.3868L55.8106 37.9018C56.2571 36.8158 56.4869 35.653 56.4869 34.4788L56.4869 30.4822C56.5656 26.5757 57.2401 25.0872 60.7175 25.0144L136.304 25.0144C140.491 24.8185 140.851 26.6181 140.817 30.4822L140.817 36.2571C140.817 36.2571 145.616 54.6045 146.744 56.5199C147.872 58.4353 149 60.7011 149 61.666L148.996 157.113C148.996 160.201 147.412 163.029 144.8 164.678L133.201 172Z" fill="#FCFBE4"/>
<path d="M133.201 172L59 172C54.0294 172 50 167.971 50 163L50 53.8098C50 52.6356 50.2298 51.4728 50.6764 50.3868L55.8106 37.9018C56.2572 36.8158 56.4869 35.653 56.4869 34.4788L56.4869 30.4822C56.5656 26.5757 57.2401 25.0872 60.7175 25.0144L136.304 25.0144C140.491 24.8185 140.851 26.6181 140.817 30.4822L140.817 36.2571M133.201 172L144.8 164.678C147.412 163.029 148.996 160.201 148.996 157.113C148.997 137.063 149 62.5011 149 61.666C149 60.7011 147.872 58.4353 146.744 56.5199C145.616 54.6045 140.817 36.2571 140.817 36.2571M133.201 172C133.201 172 133.484 63.0642 133.484 61.666C133.484 60.2678 134.823 59.0785 136.304 56.5199C137.784 53.9613 140.817 36.2571 140.817 36.2571" stroke="#661156" stroke-width="5"/>
<path d="M132 36L65 36" stroke="#661156" stroke-width="5" stroke-linecap="round"/>
<path d="M90.7009 141.854L65.8803 125.901C65.594 125.717 65.421 125.4 65.421 125.06L65.421 99.5684C65.421 99.2385 65.5837 98.9298 65.856 98.7433L90.9491 81.5606C91.2925 81.3255 91.7455 81.3276 92.0867 81.5658L116.667 98.731C116.935 98.9181 117.095 99.2242 117.095 99.5509L117.095 124.604C117.095 124.94 116.926 125.254 116.646 125.439L91.7926 141.847C91.4621 142.065 91.0341 142.068 90.7009 141.854Z" fill="#661156" stroke="#661156" stroke-width="4"/>
<path d="M87 119.5V117H84.5V114.5H82V107H84.5V104.5H87V102H99.5V104.5H89.5V107H87V114.5H89.5V117H94.5V112H92V109.5H99.5V119.5H87Z" fill="#FCFBE4"/>
<circle cx="91" cy="65" r="5.5" stroke="#661156" stroke-width="3"/>
<path d="M70.38 200.06C70.38 200.673 70.2667 201.227 70.04 201.72C69.8133 202.213 69.46 202.66 68.98 203.06C68.0467 203.833 66.9867 204.22 65.8 204.22H59.3V189.8H65.46C66.66 189.8 67.7133 190.173 68.62 190.92C69.5667 191.747 70.04 192.753 70.04 193.94C70.04 195.287 69.44 196.28 68.24 196.92C69.6667 197.52 70.38 198.567 70.38 200.06ZM68.22 200.06C68.22 199.473 67.9667 198.993 67.46 198.62C66.9933 198.26 66.44 198.08 65.8 198.08H61.46V202.04H65.8C66.44 202.04 66.9933 201.86 67.46 201.5C67.9667 201.153 68.22 200.673 68.22 200.06ZM67.86 193.94C67.86 193.353 67.6133 192.873 67.12 192.5C66.64 192.14 66.0867 191.96 65.46 191.96H61.46V195.92H65.46C66.0867 195.92 66.64 195.74 67.12 195.38C67.6133 195.007 67.86 194.527 67.86 193.94ZM74.9561 204.22H72.7961V189.8H74.9561V204.22ZM88.7417 198.76C88.7417 198.907 88.7284 199.067 88.7017 199.24C88.6884 199.413 88.6684 199.613 88.6417 199.84H79.4617C79.6751 200.547 80.0751 201.133 80.6617 201.6C81.3417 202.133 82.0951 202.4 82.9217 202.4C84.0684 202.4 85.0417 201.907 85.8417 200.92L87.6617 202.1C87.0751 202.873 86.3617 203.48 85.5217 203.92C84.6951 204.347 83.8284 204.56 82.9217 204.56C81.3351 204.56 79.9751 203.987 78.8417 202.84C77.6951 201.707 77.1217 200.347 77.1217 198.76C77.1217 197.173 77.6951 195.807 78.8417 194.66C79.9751 193.513 81.3351 192.94 82.9217 192.94C84.5084 192.94 85.8751 193.513 87.0217 194.66C88.1684 195.807 88.7417 197.173 88.7417 198.76ZM80.6617 195.9C80.0751 196.38 79.6751 196.967 79.4617 197.66H86.4017C86.1617 196.927 85.7551 196.34 85.1817 195.9C84.5417 195.38 83.7884 195.12 82.9217 195.12C82.0951 195.12 81.3417 195.38 80.6617 195.9ZM100.422 204.22H98.2416V197.7C98.2416 196.993 97.9949 196.38 97.5016 195.86C96.9816 195.367 96.3682 195.12 95.6616 195.12C94.9282 195.12 94.3149 195.367 93.8216 195.86C93.3149 196.367 93.0616 196.98 93.0616 197.7V204.22H90.9016V193.3H93.0616V194.16C93.8616 193.347 94.8416 192.94 96.0016 192.94C97.2816 192.94 98.3416 193.433 99.1816 194.42C100.008 195.327 100.422 196.42 100.422 197.7V204.22ZM114.015 204.22H111.835V202.72C110.795 203.947 109.468 204.56 107.855 204.56C106.282 204.56 104.975 203.973 103.935 202.8C102.908 201.68 102.395 200.333 102.395 198.76C102.395 197.173 102.915 195.82 103.955 194.7C104.462 194.1 105.042 193.66 105.695 193.38C106.362 193.087 107.082 192.94 107.855 192.94C109.442 192.94 110.768 193.553 111.835 194.78V189.8H114.015V204.22ZM111.835 198.76C111.835 197.747 111.482 196.887 110.775 196.18C110.068 195.473 109.208 195.12 108.195 195.12C107.182 195.12 106.322 195.473 105.615 196.18C104.908 196.887 104.555 197.747 104.555 198.76C104.555 199.773 104.908 200.633 105.615 201.34C106.322 202.047 107.182 202.4 108.195 202.4C109.208 202.4 110.068 202.047 110.775 201.34C111.482 200.633 111.835 199.773 111.835 198.76ZM138.795 201.04L138.775 201.16C138.428 201.68 138.022 202.153 137.555 202.58C137.102 202.993 136.602 203.347 136.055 203.64C135.508 203.933 134.928 204.16 134.315 204.32C133.715 204.48 133.095 204.56 132.455 204.56C130.375 204.56 128.588 203.827 127.095 202.36C125.628 200.853 124.895 199.067 124.895 197C124.895 194.933 125.635 193.16 127.115 191.68C128.608 190.187 130.388 189.44 132.455 189.44C133.668 189.44 134.815 189.727 135.895 190.3C136.975 190.86 137.895 191.66 138.655 192.7L136.875 193.94C136.315 193.207 135.648 192.64 134.875 192.24C134.102 191.827 133.295 191.62 132.455 191.62C130.962 191.62 129.688 192.14 128.635 193.18C127.582 194.26 127.055 195.533 127.055 197C127.055 198.467 127.582 199.74 128.635 200.82C129.715 201.873 130.988 202.4 132.455 202.4C134.188 202.4 135.582 201.747 136.635 200.44V198.08H132.235V195.92H138.795V201.04Z" fill="#661156"/>
</svg>
