<svg width="79" height="32" viewBox="0 0 79 32" fill="none" xmlns="http://www.w3.org/2000/svg">
<path d="M54.8136 4C49.9521 4.00093 49.5102 1.14286 54.8136 1.14286L67.1871 1.14286C72.4895 1.14286 72.0476 4 67.1871 4C62.3266 4 59.6751 3.99907 54.8136 4Z" fill="#FCFBE4" stroke="#661156"/>
<path d="M61.8136 12.8574C56.9521 12.8584 56.5102 10.0003 61.8136 10.0003L74.1871 10.0003C79.4895 10.0003 79.0476 12.8574 74.1871 12.8574C69.3266 12.8574 66.6751 12.8565 61.8136 12.8574Z" fill="#FCFBE4" stroke="#661156"/>
<path d="M4.81363 12.8574C-0.0478554 12.8584 -0.489765 10.0003 4.81363 10.0003L17.1871 10.0003C22.4895 10.0003 22.0476 12.8574 17.1871 12.8574C12.3266 12.8574 9.67511 12.8565 4.81363 12.8574Z" fill="#FCFBE4" stroke="#661156"/>
<path d="M11.8136 4C6.95214 4.00097 6.51024 1 11.8136 1L24.1871 1C29.4895 1 29.0476 4 24.1871 4C19.3266 4 16.6751 3.99902 11.8136 4Z" fill="#FCFBE4" stroke="#661156"/>
<path d="M61 3L61 5.99999C61 6.55228 60.5523 6.99999 60 6.99999L19 7C18.4477 7 18 6.55228 18 6L18 3.00001" stroke="#661156" stroke-linecap="round"/>
<path d="M17 7.3874L17 8.62195C17 9.12423 17.3726 9.54858 17.8707 9.61355L39.8692 12.4829C39.956 12.4943 40.044 12.4941 40.1307 12.4826L61.6322 9.6157C62.129 9.54945 62.5 9.12567 62.5 8.62447L62.5 7.32571C62.5 6.66133 61.8641 6.18167 61.2253 6.36418L59.1347 6.96149C59.0453 6.98702 58.9529 6.99997 58.8599 6.99997L20.1623 6.99997C20.0548 6.99997 19.948 6.98264 19.8461 6.94865L18.3162 6.43872C17.6687 6.22288 17 6.70485 17 7.3874Z" fill="#661156" stroke="#661156" stroke-linecap="round"/>
<path d="M68 12L68 14C68 14.5523 67.5523 15 67 15L12 15C11.4477 15 11 14.5523 11 14L11 12" stroke="#661156" stroke-linecap="round"/>
<path d="M28.5 31.5L50.5 31.5C51.0523 31.5 51.5 31.0523 51.5 30.5L51.5 19.8892C51.5 19.3821 51.8795 18.9553 52.3832 18.8961L67.7539 17.0878C68.1959 17.0358 68.5503 16.698 68.6235 16.259L68.7662 15.4026C68.8801 14.7197 68.2821 14.1305 67.6009 14.2544L63.6301 14.9763C63.5438 14.992 63.4557 14.9963 63.3682 14.989L52.2942 14.0662C51.8295 14.0274 51.4532 13.6727 51.3873 13.211L51.055 10.8851C51.0196 10.6374 51.0801 10.3858 51.2162 10.1758C52.33 8.45637 52.5232 7.29582 51.6858 5.39883C51.5726 5.14248 51.3439 4.95342 51.0748 4.87527C42.0926 2.2666 36.876 2.40559 27.8812 4.89378C27.638 4.96103 27.4242 5.11927 27.3005 5.33909C26.2385 7.22557 26.438 8.37877 27.7449 10.1617C27.9047 10.3798 27.9784 10.651 27.9402 10.9187L27.6134 13.2059C27.5472 13.6699 27.1675 14.0256 26.7002 14.0615L14.6286 14.9901C14.5432 14.9967 14.4573 14.9922 14.3731 14.9769L10.9677 14.3578C10.157 14.2103 9.5259 15.0518 9.89443 15.7888L10.2586 16.5171C10.4092 16.8185 10.7015 17.0237 11.0362 17.0631L26.6168 18.8961C27.1205 18.9553 27.5 19.3821 27.5 19.8892L27.5 30.5C27.5 31.0523 27.9477 31.5 28.5 31.5Z" fill="#FCFBE4" stroke="#661156"/>
<circle cx="45.5" cy="7.5" r="1.5" fill="#661156"/>
<circle cx="33.5" cy="7.5" r="1.5" fill="#661156"/>
<path d="M33 13L33 16C33 16.5523 33.4477 17 34 17L45 17C45.5523 17 46 16.5523 46 16L46 13C46 12.4477 45.5523 12 45 12L34 12C33.4477 12 33 12.4477 33 13Z" fill="#661156" stroke="#661156"/>
<circle cx="39.5" cy="14.5" r="2.5" fill="#FCFBE4"/>
<path d="M30 19.5L30 28.5C30 28.7761 30.2239 29 30.5 29L48.5 29C48.7761 29 49 28.7761 49 28.5L49 19.5C49 19.2239 48.7761 19 48.5 19L30.5 19C30.2239 19 30 19.2239 30 19.5Z" fill="#661156" fill-opacity="0.5" stroke="#661156"/>
<line x1="51" y1="10.5" x2="28" y2="10.5" stroke="#661156"/>
</svg>
