<svg width="370" height="156" viewBox="0 0 370 156" fill="none" xmlns="http://www.w3.org/2000/svg">
<path d="M19.7237 27.5273L34.5737 120.888C34.7948 122.278 35.7339 123.457 37.0493 123.958C50.8604 129.215 59.2828 129.463 72.4922 124.002C73.7666 123.476 74.6563 122.3 74.8542 120.936L88.4107 27.4569C88.7862 24.868 86.6143 22.6229 84.0116 22.8866C61.6638 25.1504 47.0349 25.2357 24.1204 22.9006C21.4928 22.6328 19.3088 24.9188 19.7237 27.5273Z" fill="#C87F9A" stroke="#661156" stroke-width="6"/>
<path d="M91.5447 23.2392L83.707 3.6285C83.5552 3.2487 83.1875 2.99962 82.7785 2.99962L25.3009 2.99962C24.8777 2.99962 24.5003 3.26605 24.3586 3.66486L17.3921 23.2745C17.1863 23.8539 17.5565 24.4819 18.1614 24.5925C46.3227 29.7424 62.6331 29.5589 90.7826 24.5948C91.4064 24.4848 91.7797 23.8273 91.5447 23.2392Z" fill="#FCFBE4" stroke="#661156" stroke-width="6"/>
<path d="M81.0814 80.3711L84.8789 52.884C61.1452 56.8718 47.8531 56.8109 24.1194 52.884L27.9169 80.3711C49.1372 85.699 60.8126 86.148 81.0814 80.3711Z" fill="#661156" stroke="#661156" stroke-width="4"/>
<path d="M149.724 27.5273L164.574 120.888C164.795 122.278 165.734 123.457 167.049 123.958C180.86 129.215 189.283 129.463 202.492 124.002C203.767 123.476 204.656 122.3 204.854 120.936L218.411 27.4569C218.786 24.868 216.614 22.6229 214.012 22.8866C191.664 25.1504 177.035 25.2357 154.12 22.9006C151.493 22.6328 149.309 24.9188 149.724 27.5273Z" fill="#8262A1" stroke="#661156" stroke-width="6"/>
<path d="M221.545 23.2392L213.707 3.6285C213.555 3.2487 213.187 2.99962 212.778 2.99962L155.301 2.99962C154.878 2.99962 154.5 3.26605 154.359 3.66486L147.392 23.2745C147.186 23.8539 147.557 24.4819 148.161 24.5925C176.323 29.7424 192.633 29.5589 220.783 24.5948C221.406 24.4848 221.78 23.8273 221.545 23.2392Z" fill="#FCFBE4" stroke="#661156" stroke-width="6"/>
<path d="M211.081 80.3711L214.879 52.884C191.145 56.8718 177.853 56.8109 154.119 52.884L157.917 80.3711C179.137 85.699 190.813 86.148 211.081 80.3711Z" fill="#661156" stroke="#661156" stroke-width="4"/>
<path d="M280.724 27.5273L295.574 120.888C295.795 122.278 296.734 123.457 298.049 123.958C311.86 129.215 320.283 129.463 333.492 124.002C334.767 123.476 335.656 122.3 335.854 120.936L349.411 27.4569C349.786 24.868 347.614 22.6229 345.012 22.8866C322.664 25.1504 308.035 25.2357 285.12 22.9006C282.493 22.6328 280.309 24.9188 280.724 27.5273Z" fill="#3C9BA1" stroke="#661156" stroke-width="6"/>
<path d="M352.545 23.2392L344.707 3.6285C344.555 3.2487 344.187 2.99962 343.778 2.99962L286.301 2.99962C285.878 2.99962 285.5 3.26605 285.359 3.66486L278.392 23.2745C278.186 23.8539 278.557 24.4819 279.161 24.5925C307.323 29.7424 323.633 29.5589 351.783 24.5948C352.406 24.4848 352.78 23.8273 352.545 23.2392Z" fill="#FCFBE4" stroke="#661156" stroke-width="6"/>
<path d="M342.081 80.3711L345.879 52.884C322.145 56.8718 308.853 56.8109 285.119 52.884L288.917 80.3711C310.137 85.699 321.813 86.148 342.081 80.3711Z" fill="#661156" stroke="#661156" stroke-width="4"/>
<path d="M12.5655 143.469L10.8084 138.061C10.5539 137.278 9.44605 137.278 9.1916 138.061L7.43447 143.469H1.74826C0.924841 143.469 0.58249 144.523 1.24864 145.007L5.84888 148.349L4.09175 153.757C3.8373 154.54 4.73361 155.191 5.39976 154.707L10 151.365L14.6002 154.707C15.2664 155.191 16.1627 154.54 15.9083 153.757L14.1511 148.349L18.7514 145.007C19.4175 144.523 19.0752 143.469 18.2517 143.469H12.5655Z" fill="#C87F9A" stroke="#661156" stroke-width="1.5"/>
<path d="M34.5655 143.469L32.8084 138.061C32.5539 137.278 31.446 137.278 31.1916 138.061L29.4345 143.469H23.7483C22.9248 143.469 22.5825 144.523 23.2486 145.007L27.8489 148.349L26.0917 153.757C25.8373 154.54 26.7336 155.191 27.3998 154.707L32 151.365L36.6002 154.707C37.2664 155.191 38.1627 154.54 37.9083 153.757L36.1511 148.349L40.7514 145.007C41.4175 144.523 41.0752 143.469 40.2517 143.469H34.5655Z" fill="#C87F9A" stroke="#661156" stroke-width="1.5"/>
<path d="M56.5655 143.469L54.8084 138.061C54.5539 137.278 53.446 137.278 53.1916 138.061L51.4345 143.469H45.7483C44.9248 143.469 44.5825 144.523 45.2486 145.007L49.8489 148.349L48.0917 153.757C47.8373 154.54 48.7336 155.191 49.3998 154.707L54 151.365L58.6002 154.707C59.2664 155.191 60.1627 154.54 59.9083 153.757L58.1511 148.349L62.7514 145.007C63.4175 144.523 63.0752 143.469 62.2517 143.469H56.5655Z" fill="#C87F9A" stroke="#661156" stroke-width="1.5"/>
<path d="M78.5655 143.469L76.8084 138.061C76.5539 137.278 75.446 137.278 75.1916 138.061L73.4345 143.469H67.7483C66.9248 143.469 66.5825 144.523 67.2486 145.007L71.8489 148.349L70.0917 153.757C69.8373 154.54 70.7336 155.191 71.3998 154.707L76 151.365L80.6002 154.707C81.2664 155.191 82.1627 154.54 81.9083 153.757L80.1511 148.349L84.7514 145.007C85.4175 144.523 85.0752 143.469 84.2517 143.469H78.5655Z" fill="#FCFBE4" stroke="#661156" stroke-width="1.5"/>
<path d="M100.566 143.469L98.8084 138.061C98.5539 137.278 97.446 137.278 97.1916 138.061L95.4345 143.469H89.7483C88.9248 143.469 88.5825 144.523 89.2486 145.007L93.8489 148.349L92.0917 153.757C91.8373 154.54 92.7336 155.191 93.3998 154.707L98 151.365L102.6 154.707C103.266 155.191 104.163 154.54 103.908 153.757L102.151 148.349L106.751 145.007C107.418 144.523 107.075 143.469 106.252 143.469H100.566Z" fill="#FCFBE4" stroke="#661156" stroke-width="1.5"/>
<path d="M143.565 143.469L141.808 138.061C141.554 137.278 140.446 137.278 140.191 138.061L138.434 143.469H132.748C131.925 143.469 131.582 144.522 132.249 145.006L136.849 148.348L135.092 153.756C134.837 154.539 135.733 155.19 136.4 154.706L141 151.364L145.6 154.706C146.266 155.19 147.162 154.539 146.908 153.756L145.151 148.348L149.751 145.006C150.417 144.522 150.075 143.469 149.251 143.469H143.565Z" fill="#8262A1" stroke="#661156" stroke-width="1.5"/>
<path d="M165.565 143.469L163.808 138.061C163.553 137.278 162.445 137.278 162.191 138.061L160.434 143.469H154.748C153.924 143.469 153.582 144.522 154.248 145.006L158.848 148.348L157.091 153.756C156.837 154.539 157.733 155.19 158.399 154.706L162.999 151.364L167.599 154.706C168.265 155.19 169.162 154.539 168.907 153.756L167.15 148.348L171.75 145.006C172.416 144.522 172.074 143.469 171.251 143.469H165.565Z" fill="#FCFBE4" stroke="#661156" stroke-width="1.5"/>
<path d="M187.564 143.469L185.807 138.061C185.553 137.278 184.445 137.278 184.19 138.061L182.433 143.469H176.747C175.924 143.469 175.581 144.522 176.248 145.006L180.848 148.348L179.091 153.756C178.836 154.539 179.733 155.19 180.399 154.706L184.999 151.364L189.599 154.706C190.265 155.19 191.161 154.539 190.907 153.756L189.15 148.348L193.75 145.006C194.416 144.522 194.074 143.469 193.25 143.469H187.564Z" fill="#FCFBE4" stroke="#661156" stroke-width="1.5"/>
<path d="M209.564 143.469L207.807 138.061C207.552 137.278 206.444 137.278 206.19 138.061L204.433 143.469H198.747C197.923 143.469 197.581 144.522 198.247 145.006L202.847 148.348L201.09 153.756C200.836 154.539 201.732 155.19 202.398 154.706L206.998 151.364L211.598 154.706C212.264 155.19 213.161 154.539 212.906 153.756L211.149 148.348L215.749 145.006C216.415 144.522 216.073 143.469 215.25 143.469H209.564Z" fill="#FCFBE4" stroke="#661156" stroke-width="1.5"/>
<path d="M231.563 143.469L229.806 138.061C229.552 137.278 228.444 137.278 228.189 138.061L226.432 143.469H220.746C219.923 143.469 219.581 144.522 220.247 145.006L224.847 148.348L223.09 153.756C222.835 154.539 223.732 155.19 224.398 154.706L228.998 151.364L233.598 154.706C234.264 155.19 235.16 154.539 234.906 153.756L233.149 148.348L237.749 145.006C238.415 144.522 238.073 143.469 237.249 143.469H231.563Z" fill="#FCFBE4" stroke="#661156" stroke-width="1.5"/>
<path d="M274.565 143.469L272.808 138.061C272.554 137.278 271.446 137.278 271.191 138.061L269.434 143.469H263.748C262.925 143.469 262.582 144.522 263.249 145.006L267.849 148.348L266.092 153.756C265.837 154.539 266.733 155.19 267.4 154.706L272 151.364L276.6 154.706C277.266 155.19 278.162 154.539 277.908 153.756L276.151 148.348L280.751 145.006C281.417 144.522 281.075 143.469 280.251 143.469H274.565Z" fill="#3C9BA1" stroke="#661156" stroke-width="1.5"/>
<path d="M296.565 143.469L294.808 138.061C294.553 137.278 293.445 137.278 293.191 138.061L291.434 143.469H285.748C284.924 143.469 284.582 144.522 285.248 145.006L289.848 148.348L288.091 153.756C287.837 154.539 288.733 155.19 289.399 154.706L293.999 151.364L298.599 154.706C299.265 155.19 300.162 154.539 299.907 153.756L298.15 148.348L302.75 145.006C303.416 144.522 303.074 143.469 302.251 143.469H296.565Z" fill="#3C9BA1" stroke="#661156" stroke-width="1.5"/>
<path d="M318.564 143.469L316.807 138.061C316.553 137.278 315.445 137.278 315.19 138.061L313.433 143.469H307.747C306.924 143.469 306.581 144.522 307.248 145.006L311.848 148.348L310.091 153.756C309.836 154.539 310.733 155.19 311.399 154.706L315.999 151.364L320.599 154.706C321.265 155.19 322.161 154.539 321.907 153.756L320.15 148.348L324.75 145.006C325.416 144.522 325.074 143.469 324.25 143.469H318.564Z" fill="#FCFBE4" stroke="#661156" stroke-width="1.5"/>
<path d="M340.564 143.469L338.807 138.061C338.552 137.278 337.444 137.278 337.19 138.061L335.433 143.469H329.747C328.923 143.469 328.581 144.522 329.247 145.006L333.847 148.348L332.09 153.756C331.836 154.539 332.732 155.19 333.398 154.706L337.998 151.364L342.598 154.706C343.264 155.19 344.161 154.539 343.906 153.756L342.149 148.348L346.749 145.006C347.415 144.522 347.073 143.469 346.25 143.469H340.564Z" fill="#FCFBE4" stroke="#661156" stroke-width="1.5"/>
<path d="M362.563 143.469L360.806 138.061C360.552 137.278 359.444 137.278 359.189 138.061L357.432 143.469H351.746C350.923 143.469 350.581 144.522 351.247 145.006L355.847 148.348L354.09 153.756C353.835 154.539 354.732 155.19 355.398 154.706L359.998 151.364L364.598 154.706C365.264 155.19 366.16 154.539 365.906 153.756L364.149 148.348L368.749 145.006C369.415 144.522 369.073 143.469 368.249 143.469H362.563Z" fill="#FCFBE4" stroke="#661156" stroke-width="1.5"/>
</svg>
