<svg width="518" height="194" viewBox="0 0 518 194" fill="none" xmlns="http://www.w3.org/2000/svg">
<path d="M236 74.7822V93.2039C236 94.8608 237.343 96.2039 239 96.2039H316.5C318.157 96.2039 319.5 97.5471 319.5 99.2039V112.951C319.5 115.596 322.674 116.947 324.58 115.114L353.807 86.9982C355.013 85.8381 355.037 83.9156 353.86 82.7261L324.633 53.1872C322.747 51.2819 319.5 52.6169 319.5 55.2973V68.7822C319.5 70.4391 318.157 71.7822 316.5 71.7822H239C237.343 71.7822 236 73.1254 236 74.7822Z" fill="#661156" stroke="#661156" stroke-width="5"/>
<path d="M78.2201 8.47723L78.1441 8.56574L78.0602 8.64678L11.0781 73.3307C13.6564 85.0643 22.1889 98.5106 32.0922 108.87C37.2007 114.214 42.5661 118.621 47.49 121.485C52.5195 124.411 56.6464 125.471 59.4721 124.886C59.5776 124.865 59.7943 124.776 60.107 124.474L117.646 68.9092C118.881 67.7171 120.487 66.9844 122.196 66.8333L133.126 65.8679C134.962 65.7058 135.997 63.6812 135.054 62.0982L131.638 56.3643C131.538 56.1959 131.425 56.048 131.292 55.9099C127.628 52.1026 123.689 47.8441 119.642 43.4691C112.585 35.8412 105.201 27.8587 98.3743 21.2942C93.0096 16.1359 88.1855 12.0527 84.3291 9.7956C82.3869 8.65882 80.9002 8.11278 79.8476 7.99834C78.9217 7.89767 78.519 8.12928 78.2201 8.47723Z" fill="#FCFBE4" stroke="#661156" stroke-width="5"/>
<path d="M59.4139 125.354L119.694 69.0577C120.717 68.1021 122.094 67.6192 123.49 67.7266L130.076 68.2332C134.247 68.554 136.945 63.9153 134.602 60.4486L132.657 57.5691C131.753 56.2317 130.259 55.4128 128.646 55.3701L33.8886 52.8667C33.3171 52.8667 32.7666 53.0814 32.3461 53.4683L9.91803 74.1009C2.0218 81.7262 37.0643 130.127 59.4139 125.354Z" fill="#8262A1"/>
<path d="M59.4139 125.354L119.694 69.0577C120.717 68.1021 122.094 67.6192 123.49 67.7266L130.076 68.2332C134.247 68.554 136.945 63.9153 134.602 60.4486L132.657 57.5691C131.753 56.2317 130.259 55.4127 128.646 55.3701L33.8886 52.8667V52.8667C33.3171 52.8667 32.7666 53.0814 32.3461 53.4683L9.91803 74.1009M59.4139 125.354C56.7384 127.54 63.6242 121.289 59.4139 125.354ZM59.4139 125.354C37.0643 130.127 2.0218 81.7262 9.91803 74.1009M9.91803 74.1009C13.6025 70.5428 4.39078 79.4385 9.91803 74.1009Z" stroke="#661156" stroke-width="5"/>
<path d="M57.5957 46.252L66.809 55.7926" stroke="#661156" stroke-width="5" stroke-linecap="round"/>
<path d="M54.4634 53.8857L59.07 58.6561" stroke="#661156" stroke-width="5" stroke-linecap="round"/>
<path d="M43.5923 64.3848L48.1989 69.1551" stroke="#661156" stroke-width="5" stroke-linecap="round"/>
<path d="M32.7212 74.8828L37.3278 79.6531" stroke="#661156" stroke-width="5" stroke-linecap="round"/>
<path d="M46.7246 56.75L55.9379 66.2906" stroke="#661156" stroke-width="5" stroke-linecap="round"/>
<path d="M35.8535 67.248L45.0668 76.7887" stroke="#661156" stroke-width="5" stroke-linecap="round"/>
<path d="M24.9824 77.7461L34.1957 87.2867" stroke="#661156" stroke-width="5" stroke-linecap="round"/>
<path d="M41.6014 53.6011C19.1979 54.704 41.6014 70.1295 108.079 62.4171" stroke="#661156" stroke-width="3" stroke-linecap="round"/>
<path d="M124.369 95.0292C146.538 89.4953 160.355 89.8211 182.833 95.0291C185.15 96.279 185.195 97.6226 185.185 100.07V104.855C185.185 104.855 192.909 104.855 196.605 104.855C200.301 104.855 200.976 108.134 200.976 115.188C200.976 122.242 200.976 163.232 200.976 169.281C200.976 175.33 200.637 178.77 195.597 178.77C190.557 178.77 185.245 178.434 185.185 179.778C185.125 181.122 185.185 176.337 185.185 184.065C185.185 191.793 126.386 190.782 122.018 184.4C122.018 178.688 122.021 100.07 122.021 100.07C122.055 97.1282 122.585 96.0332 124.369 95.0292ZM185.185 115.188V169.281C185.185 169.281 187.537 169.281 190.561 169.281C193.585 169.281 193.585 168.274 193.585 163.57C193.585 158.867 193.585 125.269 193.585 120.901C193.585 116.533 192.913 115.188 190.561 115.188C188.209 115.188 185.185 115.188 185.185 115.188Z" stroke="#661156" stroke-width="6"/>
<path d="M195.262 161.892C195.262 157.274 194.926 117.206 194.926 117.206C194.926 117.206 194.59 113.847 188.878 113.511C183.167 113.175 182.495 114.183 182.495 114.183L182.159 106.455H195.934C200.302 106.455 199.294 109.945 199.294 116.87V169.955C199.294 175.894 198.622 177.011 195.937 177.011C193.253 177.011 185.855 176.675 183.842 178.691C181.829 180.707 181.823 171.617 181.823 170.627C181.823 170.627 188.206 170.963 191.902 170.627C195.598 170.291 195.262 166.51 195.262 161.892Z" fill="#FCFBE4"/>
<path d="M183.837 183.108C183.837 190.645 128.169 189.659 124.033 183.435C124.034 177.864 124.037 101.191 124.037 101.191C124.069 98.3213 124.57 97.2534 126.259 96.2743C147.247 90.8772 160.329 91.1949 181.61 96.2742C183.803 97.4932 183.846 98.8036 183.837 101.191V115.934V168.69C183.78 170 183.837 175.572 183.837 183.108Z" fill="#FCFBE4"/>
<path d="M136.434 103.058L142.934 103.925C143.234 103.964 143.5 103.751 143.5 103.449L143.5 69C143.5 65.5 142.5 60 140.5 59C139.231 58.3654 136.753 57.7307 135.112 57.3517C134.63 57.2403 134.296 57.841 134.603 58.2287C136.633 60.7884 136.981 63.4066 136.014 67.4413C136.005 67.4798 136 67.52 136 67.5596L136 102.562C136 102.813 136.186 103.025 136.434 103.058Z" fill="#8262A1" stroke="#661156" stroke-width="3"/>
<path d="M178.287 97.9997C180.7 97.9997 181.5 102.055 174.265 103C158.728 105.029 149.5 105.047 134.456 103C127.108 101.999 126.817 97.9995 130.034 97.9995" stroke="#661156" stroke-width="3" stroke-linecap="round"/>
<rect x="388" y="29" width="128" height="163" rx="10" fill="#3C9BA1" stroke="#661156" stroke-width="4"/>
<rect x="399" y="40" width="108" height="141" rx="8" fill="#FCFBE4" stroke="#661156" stroke-width="3"/>
<path d="M427 32.9714L427 39C427 41.7614 429.239 44 432 44L474 44C476.761 44 479 41.7614 479 39L479 32.9714C479 30.21 476.761 27.9714 474 27.9714L468.363 27.9714C466.771 27.9714 465.48 26.6807 465.48 25.0885C465.48 24.2838 465.147 23.5087 464.535 22.9861C456.681 16.2784 448.794 16.28 440.478 22.9908C439.836 23.5088 439.48 24.3 439.48 25.1249C439.48 26.697 438.206 27.9714 436.634 27.9714L432 27.9714C429.239 27.9714 427 30.21 427 32.9714Z" fill="#FCFBE4" stroke="#661156" stroke-width="2"/>
<circle cx="453" cy="30" r="7" fill="#661156"/>
<path d="M469 68L407 68" stroke="#661156" stroke-width="3" stroke-linecap="round"/>
<path d="M469 87L407 87" stroke="#661156" stroke-width="3" stroke-linecap="round"/>
<path d="M469 106L407 106" stroke="#661156" stroke-width="3" stroke-linecap="round"/>
<path d="M469 125L407 125" stroke="#661156" stroke-width="3" stroke-linecap="round"/>
<path d="M469 144L407 144" stroke="#661156" stroke-width="3" stroke-linecap="round"/>
<path d="M469 163L407 163" stroke="#661156" stroke-width="3" stroke-linecap="round"/>
<path d="M499 68L477 68" stroke="#661156" stroke-width="3" stroke-linecap="round"/>
<path d="M499 87L477 87" stroke="#661156" stroke-width="3" stroke-linecap="round"/>
<path d="M499 106L477 106" stroke="#661156" stroke-width="3" stroke-linecap="round"/>
<path d="M499 125L477 125" stroke="#661156" stroke-width="3" stroke-linecap="round"/>
<path d="M499 144L477 144" stroke="#661156" stroke-width="3" stroke-linecap="round"/>
<path d="M499 163L477 163" stroke="#661156" stroke-width="3" stroke-linecap="round"/>
<path d="M485.081 61.9773L486.031 63.8997C486.39 64.6259 487.418 64.6462 487.806 63.9346L492.546 55.2278" stroke="#49A078" stroke-width="3" stroke-linecap="round"/>
<path d="M485.081 80.9773L486.031 82.8997C486.39 83.6259 487.418 83.6462 487.806 82.9346L492.546 74.2278" stroke="#49A078" stroke-width="3" stroke-linecap="round"/>
<path d="M485.081 99.9773L486.031 101.9C486.39 102.626 487.418 102.646 487.806 101.935L492.546 93.2278" stroke="#49A078" stroke-width="3" stroke-linecap="round"/>
<path d="M485.081 118.977L486.031 120.9C486.39 121.626 487.418 121.646 487.806 120.935L492.546 112.228" stroke="#49A078" stroke-width="3" stroke-linecap="round"/>
<path d="M485.081 137.977L486.031 139.9C486.39 140.626 487.418 140.646 487.806 139.935L492.546 131.228" stroke="#49A078" stroke-width="3" stroke-linecap="round"/>
<path d="M485.081 156.977L486.031 158.9C486.39 159.626 487.418 159.646 487.806 158.935L492.546 150.228" stroke="#49A078" stroke-width="3" stroke-linecap="round"/>
</svg>
