<svg width="530" height="464" viewBox="0 0 530 464" fill="none" xmlns="http://www.w3.org/2000/svg">
<path d="M138.905 320.81L283.682 413.86C289.012 417.286 295.861 417.244 301.149 413.753L446.095 318.058C450.581 315.096 453.28 310.08 453.28 304.705L453.28 158.513C453.28 153.285 450.726 148.388 446.44 145.395L303.066 45.2741C297.608 41.4622 290.359 41.429 284.866 45.1906L138.516 145.405C134.16 148.388 131.556 153.327 131.556 158.606L131.556 307.35C131.556 312.795 134.325 317.866 138.905 320.81Z" fill="#3C9BA1"/>
<path d="M163 365.479L163 264C163 262.895 163.895 262 165 262L253 262C254.105 262 255 262.895 255 264L255 313.015C255 313.72 254.629 314.372 254.024 314.733L166.024 367.197C164.691 367.992 163 367.031 163 365.479Z" fill="#FCFBE4" stroke="#661156"/>
<path d="M259.339 261.49L173.443 261.49C170.426 261.49 169.297 257.537 171.858 255.943L267.276 196.55C267.752 196.254 268.301 196.097 268.861 196.097L324.574 196.097C327.315 196.097 328.62 199.47 326.593 201.315L261.358 260.708C260.806 261.211 260.086 261.49 259.339 261.49Z" fill="#FCFBE4" stroke="#661156" stroke-width="3"/>
<path d="M175.683 365.542L258.139 288.126C258.448 287.837 258.84 287.653 259.26 287.6L276.897 285.389C278.346 285.207 279.494 286.589 279.052 287.98L253.711 367.607C253.447 368.436 252.676 369 251.805 369L177.052 369C175.24 369 174.362 366.782 175.683 365.542Z" fill="#FCFBE4" stroke="#661156"/>
<path d="M241.456 343.137L204.715 343.137C203.611 343.137 202.715 342.241 202.715 341.137L202.715 285.642C202.715 285.389 202.763 285.139 202.856 284.904L205.595 278.005C205.688 277.77 205.736 277.52 205.736 277.267L205.736 274.864C205.772 272.979 206.086 272.261 207.706 272.226L242.9 272.226C244.85 272.131 245.018 272.999 245.002 274.864L245.002 277.65C245.002 277.65 247.236 286.501 247.761 287.425C248.287 288.349 248.812 289.442 248.812 289.908L248.81 337.261C248.81 337.936 248.47 338.549 247.905 338.919L241.456 343.137Z" fill="#FCFBE4"/>
<path d="M241.456 343.137L204.715 343.137C203.611 343.137 202.715 342.241 202.715 341.137L202.715 285.642C202.715 285.389 202.763 285.139 202.856 284.904L205.595 278.005C205.688 277.77 205.736 277.52 205.736 277.267L205.736 274.864C205.772 272.979 206.086 272.261 207.706 272.226L242.9 272.226C244.85 272.131 245.018 272.999 245.002 274.864L245.002 277.65M241.456 343.137L247.905 338.919C248.47 338.549 248.81 337.936 248.81 337.261C248.81 330.191 248.812 290.332 248.812 289.908C248.812 289.442 248.287 288.349 247.761 287.425C247.236 286.501 245.002 277.65 245.002 277.65M241.456 343.137C241.456 343.137 241.587 290.582 241.587 289.908C241.587 289.233 242.211 288.659 242.9 287.425C243.59 286.191 245.002 277.65 245.002 277.65" stroke="#661156" stroke-width="1.5"/>
<path d="M241.72 277.537H208.034" stroke="#661156" stroke-width="1.5" stroke-linecap="round"/>
<path d="M208.473 321.576L220.898 329.562C221.231 329.776 221.659 329.773 221.99 329.555L234.424 321.346C234.704 321.161 234.873 320.847 234.873 320.512L234.873 307.951C234.873 307.624 234.713 307.318 234.445 307.131L222.142 298.539C221.801 298.301 221.348 298.299 221.004 298.534L208.449 307.132C208.177 307.318 208.014 307.627 208.014 307.957L208.014 320.735C208.014 321.075 208.187 321.392 208.473 321.576Z" fill="#661156"/>
<path d="M215.125 314.677V309.677H216.125V308.677H217.125V307.677H220.125V308.677H221.125V309.677H222.125V314.677H220.125V312.677H217.125V314.677H215.125ZM217.125 311.677H220.125V309.677H219.125V308.677H218.125V309.677H217.125V311.677Z" fill="#FCFBE4"/>
<circle cx="221.331" cy="290.835" r="1.90942" stroke="#661156" stroke-width="1.5"/>
<path d="M213.583 353.855L176.843 353.855C175.738 353.855 174.843 352.96 174.843 351.855L174.843 296.361C174.843 296.108 174.891 295.858 174.984 295.623L177.722 288.724C177.815 288.489 177.863 288.239 177.863 287.986L177.863 285.582C177.9 283.698 178.214 282.98 179.833 282.944L215.028 282.944C216.977 282.85 217.145 283.718 217.129 285.582L217.129 288.368C217.129 288.368 219.364 297.22 219.889 298.144C220.414 299.068 220.939 300.161 220.939 300.626L220.937 347.98C220.937 348.654 220.597 349.268 220.032 349.637L213.583 353.855Z" fill="#FCFBE4"/>
<path d="M213.583 353.855L176.843 353.855C175.738 353.855 174.843 352.96 174.843 351.855L174.843 296.361C174.843 296.108 174.891 295.858 174.984 295.623L177.722 288.724C177.815 288.489 177.863 288.239 177.863 287.986L177.863 285.582C177.9 283.698 178.214 282.98 179.833 282.944L215.028 282.944C216.977 282.85 217.145 283.718 217.129 285.582L217.129 288.368M213.583 353.855L220.032 349.637C220.597 349.268 220.937 348.654 220.937 347.98C220.938 340.91 220.939 301.051 220.939 300.626C220.939 300.161 220.414 299.068 219.889 298.144C219.364 297.22 217.129 288.368 217.129 288.368M213.583 353.855C213.583 353.855 213.715 301.301 213.715 300.626C213.715 299.952 214.338 299.378 215.028 298.144C215.717 296.909 217.129 288.368 217.129 288.368" stroke="#661156" stroke-width="1.5"/>
<path d="M213.847 288.256H180.161" stroke="#661156" stroke-width="1.5" stroke-linecap="round"/>
<path d="M180.601 332.295L193.026 340.281C193.359 340.495 193.787 340.492 194.117 340.274L206.551 332.065C206.832 331.88 207 331.566 207 331.23L207 318.67C207 318.343 206.841 318.037 206.573 317.85L194.269 309.258C193.928 309.02 193.475 309.018 193.132 309.253L180.576 317.85C180.304 318.037 180.141 318.346 180.141 318.676L180.141 331.454C180.141 331.794 180.314 332.111 180.601 332.295Z" fill="#661156"/>
<path d="M187.253 325.396V320.396H188.253V319.396H189.253V318.396H192.253V319.396H193.253V320.396H194.253V325.396H192.253V323.396H189.253V325.396H187.253ZM189.253 322.396H192.253V320.396H191.253V319.396H190.253V320.396H189.253V322.396Z" fill="#FCFBE4"/>
<circle cx="193.458" cy="301.554" r="1.90942" stroke="#661156" stroke-width="1.5"/>
<path d="M260.752 353.855L224.011 353.855C222.907 353.855 222.011 352.96 222.011 351.855L222.011 296.361C222.011 296.108 222.059 295.858 222.153 295.623L224.891 288.724C224.984 288.489 225.032 288.239 225.032 287.986L225.032 285.582C225.069 283.698 225.383 282.98 227.002 282.944L262.197 282.944C264.146 282.85 264.314 283.718 264.298 285.582L264.298 288.368C264.298 288.368 266.532 297.22 267.058 298.144C267.583 299.068 268.108 300.161 268.108 300.626L268.106 347.98C268.106 348.654 267.766 349.268 267.201 349.637L260.752 353.855Z" fill="#FCFBE4"/>
<path d="M260.752 353.855L224.011 353.855C222.907 353.855 222.011 352.96 222.011 351.855L222.011 296.361C222.011 296.108 222.059 295.858 222.153 295.623L224.891 288.724C224.984 288.489 225.032 288.239 225.032 287.986L225.032 285.582C225.069 283.698 225.383 282.98 227.002 282.944L262.197 282.944C264.146 282.85 264.314 283.718 264.298 285.582L264.298 288.368M260.752 353.855L267.201 349.637C267.766 349.268 268.106 348.654 268.106 347.98C268.106 340.91 268.108 301.051 268.108 300.626C268.108 300.161 267.583 299.068 267.058 298.144C266.532 297.22 264.298 288.368 264.298 288.368M260.752 353.855C260.752 353.855 260.883 301.301 260.883 300.626C260.883 299.952 261.507 299.378 262.197 298.144C262.886 296.909 264.298 288.368 264.298 288.368" stroke="#661156" stroke-width="1.5"/>
<path d="M261.016 288.256H227.33" stroke="#661156" stroke-width="1.5" stroke-linecap="round"/>
<path d="M227.769 332.295L240.194 340.281C240.527 340.495 240.955 340.492 241.286 340.274L253.72 332.065C254 331.88 254.169 331.566 254.169 331.23L254.169 318.67C254.169 318.343 254.009 318.037 253.742 317.85L241.438 309.258C241.097 309.02 240.644 309.018 240.301 309.253L227.745 317.85C227.473 318.037 227.31 318.346 227.31 318.676L227.31 331.454C227.31 331.794 227.483 332.111 227.769 332.295Z" fill="#661156"/>
<path d="M234.422 325.396V320.396H235.422V319.396H236.422V318.396H239.422V319.396H240.422V320.396H241.422V325.396H239.422V323.396H236.422V325.396H234.422ZM236.422 322.396H239.422V320.396H238.422V319.396H237.422V320.396H236.422V322.396Z" fill="#FCFBE4"/>
<circle cx="240.627" cy="301.554" r="1.90942" stroke="#661156" stroke-width="1.5"/>
<path d="M209.295 368.699L172.555 368.699C171.45 368.699 170.555 367.804 170.555 366.699L170.555 311.205C170.555 310.952 170.603 310.702 170.696 310.467L173.434 303.567C173.527 303.333 173.575 303.082 173.575 302.83L173.575 300.426C173.612 298.541 173.926 297.823 175.545 297.788L210.74 297.788C212.689 297.694 212.857 298.562 212.841 300.426L212.841 303.212C212.841 303.212 215.075 312.064 215.601 312.988C216.126 313.912 216.651 315.005 216.651 315.47L216.649 362.823C216.649 363.498 216.309 364.112 215.744 364.481L209.295 368.699Z" fill="#FCFBE4"/>
<path d="M209.295 368.699L172.555 368.699C171.45 368.699 170.555 367.804 170.555 366.699L170.555 311.205C170.555 310.952 170.603 310.702 170.696 310.467L173.434 303.567C173.527 303.333 173.575 303.082 173.575 302.83L173.575 300.426C173.612 298.541 173.926 297.823 175.545 297.788L210.74 297.788C212.689 297.694 212.857 298.562 212.841 300.426L212.841 303.212M209.295 368.699L215.744 364.481C216.309 364.112 216.649 363.498 216.649 362.823C216.65 355.754 216.651 315.894 216.651 315.47C216.651 315.005 216.126 313.912 215.601 312.988C215.075 312.064 212.841 303.212 212.841 303.212M209.295 368.699C209.295 368.699 209.427 316.145 209.427 315.47C209.427 314.796 210.05 314.222 210.74 312.988C211.429 311.753 212.841 303.212 212.841 303.212" stroke="#661156" stroke-width="1.5"/>
<path d="M209.559 303.1H175.873" stroke="#661156" stroke-width="1.5" stroke-linecap="round"/>
<path d="M176.772 347.434L188.189 354.772C188.856 355.2 189.712 355.195 190.373 354.759L201.814 347.205C202.375 346.835 202.712 346.208 202.712 345.536L202.712 334.035C202.712 333.381 202.393 332.769 201.857 332.395L190.548 324.498C189.866 324.021 188.96 324.017 188.273 324.487L176.723 332.396C176.179 332.769 175.853 333.387 175.853 334.047L175.853 345.751C175.853 346.432 176.199 347.066 176.772 347.434Z" fill="#661156"/>
<path d="M184.716 342.75V336.5H185.966V335.25H187.216V334H190.966V335.25H192.216V336.5H193.466V342.75H190.966V340.25H187.216V342.75H184.716ZM187.216 339H190.966V336.5H189.716V335.25H188.466V336.5H187.216V339Z" fill="#FCFBE4"/>
<circle cx="189.17" cy="316.398" r="1.90942" stroke="#661156" stroke-width="1.5"/>
<path d="M254.32 368.699L217.58 368.699C216.475 368.699 215.58 367.804 215.58 366.699L215.58 311.205C215.58 310.952 215.627 310.702 215.721 310.467L218.459 303.567C218.552 303.333 218.6 303.082 218.6 302.83L218.6 300.426C218.637 298.541 218.951 297.823 220.57 297.788L255.765 297.788C257.714 297.694 257.882 298.562 257.866 300.426L257.866 303.212C257.866 303.212 260.1 312.064 260.626 312.988C261.151 313.912 261.676 315.005 261.676 315.47L261.674 362.823C261.674 363.498 261.334 364.112 260.769 364.481L254.32 368.699Z" fill="#FCFBE4"/>
<path d="M254.32 368.699L217.58 368.699C216.475 368.699 215.58 367.804 215.58 366.699L215.58 311.205C215.58 310.952 215.627 310.702 215.721 310.467L218.459 303.567C218.552 303.333 218.6 303.082 218.6 302.83L218.6 300.426C218.637 298.541 218.951 297.823 220.57 297.788L255.765 297.788C257.714 297.694 257.882 298.562 257.866 300.426L257.866 303.212M254.32 368.699L260.769 364.481C261.334 364.112 261.674 363.498 261.674 362.823C261.675 355.754 261.676 315.894 261.676 315.47C261.676 315.005 261.151 313.912 260.626 312.988C260.1 312.064 257.866 303.212 257.866 303.212M254.32 368.699C254.32 368.699 254.452 316.145 254.452 315.47C254.452 314.796 255.075 314.222 255.765 312.988C256.454 311.753 257.866 303.212 257.866 303.212" stroke="#661156" stroke-width="1.5"/>
<path d="M254.584 303.1H220.898" stroke="#661156" stroke-width="1.5" stroke-linecap="round"/>
<path d="M221.797 347.434L233.214 354.772C233.881 355.2 234.737 355.195 235.398 354.759L246.839 347.205C247.4 346.835 247.737 346.208 247.737 345.536L247.737 334.035C247.737 333.381 247.418 332.769 246.882 332.395L235.573 324.498C234.891 324.021 233.985 324.017 233.298 324.487L221.748 332.396C221.204 332.769 220.878 333.387 220.878 334.047L220.878 345.751C220.878 346.432 221.224 347.066 221.797 347.434Z" fill="#661156"/>
<path d="M229.716 342.75V336.5H230.966V335.25H232.216V334H235.966V335.25H237.216V336.5H238.466V342.75H235.966V340.25H232.216V342.75H229.716ZM232.216 339H235.966V336.5H234.716V335.25H233.466V336.5H232.216V339Z" fill="#FCFBE4"/>
<circle cx="234.195" cy="316.398" r="1.90942" stroke="#661156" stroke-width="1.5"/>
<path d="M168 267.924L168 358C168 358.552 168.448 359 169 359L259 359C259.552 359 260 358.552 260 358L260 267.924L260 262C260 261.448 259.552 261 259 261L212.414 261L169 261C168.448 261 168 261.448 168 262L168 267.924Z" fill="#661156" fill-opacity="0.5"/>
<path d="M161.802 356.001C161.802 363.001 160.46 371.052 168.5 371.5L253.996 371.5C262.396 371.577 260.428 364 260.428 356.001L260.428 263.467C260.428 262.362 259.532 261.49 258.428 261.49L244.599 261.49L221.346 261.49C218.9 261.49 218.593 265.04 221.002 265.46L252.34 270.929C253.297 271.096 253.996 271.927 253.996 272.899L253.996 354C253.996 355.105 253.1 356 251.996 356L172.326 356C171.221 356 170.326 355.105 170.326 354L170.326 272.841C170.326 271.895 170.988 271.078 171.914 270.884L197.773 265.447C200.125 264.952 199.765 261.49 197.361 261.49L173.978 261.49L163.802 261.49C162.698 261.49 161.802 262.359 161.802 263.463L161.802 356.001Z" fill="#FCFBE4" stroke="#661156" stroke-width="2"/>
<path d="M264.677 366.843L333.677 260.684C333.888 260.359 334 259.981 334 259.594L334 198.351C334 196.615 331.939 195.703 330.655 196.871L261.655 259.591C261.238 259.971 261 260.508 261 261.071L261 365.753C261 367.744 263.592 368.512 264.677 366.843Z" fill="#FCFBE4" stroke="#661156" stroke-width="2"/>
<rect x="99.6257" y="170.296" width="32.3045" height="32.3045" rx="3" fill="#8262A1" stroke="#661156" stroke-width="2"/>
<path d="M118.193 179.613L229.331 169.777C232.255 169.519 234.772 171.823 234.772 174.758L234.772 180.592C234.772 183.268 232.666 185.469 229.993 185.588L118.855 190.505C116.01 190.631 113.634 188.358 113.634 185.51L113.634 184.593C113.634 182.003 115.613 179.841 118.193 179.613Z" fill="#FCFBE4" stroke="#661156" stroke-width="2"/>
<path d="M179.37 155.26C179.37 155.26 179.369 155.262 179.368 155.264C179.369 155.262 179.37 155.26 179.37 155.26ZM178.562 154.969C178.915 155.121 179.14 155.255 179.27 155.36C179.14 155.465 178.915 155.6 178.562 155.751C177.817 156.07 176.675 156.395 175.144 156.712C172.095 157.344 167.655 157.919 162.136 158.403C151.106 159.371 135.853 159.97 118.994 159.97C102.135 159.97 86.8815 159.371 75.8517 158.403C70.3326 157.919 65.8924 157.344 62.8431 156.712C61.3125 156.395 60.1702 156.07 59.4258 155.751C59.0727 155.6 58.8476 155.465 58.718 155.36C58.8476 155.255 59.0727 155.121 59.4258 154.969C60.1702 154.65 61.3125 154.326 62.8431 154.008C65.8924 153.376 70.3326 152.801 75.8517 152.317C86.8815 151.35 102.135 150.75 118.994 150.75C135.853 150.75 151.106 151.35 162.136 152.317C167.655 152.801 172.095 153.376 175.144 154.008C176.675 154.326 177.817 154.65 178.562 154.969ZM58.6176 155.26C58.6177 155.26 58.6186 155.262 58.6201 155.265C58.6182 155.262 58.6174 155.26 58.6176 155.26ZM58.6176 155.46C58.6174 155.46 58.6182 155.458 58.6201 155.456C58.6186 155.458 58.6177 155.46 58.6176 155.46ZM179.368 155.456C179.369 155.458 179.37 155.46 179.37 155.46C179.37 155.46 179.369 155.458 179.368 155.456Z" fill="#FCFBE4" stroke="#661156" stroke-width="1.5"/>
<path d="M118.35 158.576C118.35 157.747 117.678 157.076 116.85 157.076C116.021 157.076 115.35 157.747 115.35 158.576L118.35 158.576ZM118.35 169.296L118.35 158.576L115.35 158.576L115.35 169.296L118.35 169.296Z" fill="#661156"/>
<rect x="43.8806" y="193.872" width="32.3045" height="32.3045" rx="1" fill="#8262A1" stroke="#661156" stroke-width="2"/>
<path d="M57.7293 205.006L168.867 185.335C171.93 184.793 174.739 187.148 174.739 190.258L174.739 206.397C174.739 209.038 172.684 211.224 170.048 211.387L58.9099 218.272C56.0324 218.45 53.6007 216.164 53.6007 213.281L53.6007 209.929C53.6007 207.504 55.3412 205.428 57.7293 205.006Z" fill="#FCFBE4" stroke="#661156" stroke-width="2"/>
<path d="M73.969 259.337C73.969 264.697 64.3209 264.697 63.2488 259.337C62.3541 254.863 56.979 232.468 55.2255 225.183C54.9353 223.977 55.8034 222.813 57.0407 222.731L68.8224 221.945C69.8988 221.873 70.8365 222.654 70.9424 223.728C71.6321 230.724 73.969 254.768 73.969 259.337Z" fill="#FCFBE4" stroke="#661156" stroke-width="2"/>
<path d="M121.481 178.837C121.481 178.837 121.481 178.838 121.479 178.841C121.48 178.838 121.481 178.837 121.481 178.837ZM120.673 178.545C121.026 178.697 121.251 178.831 121.381 178.936C121.251 179.042 121.026 179.176 120.673 179.327C119.928 179.646 118.786 179.971 117.256 180.288C114.206 180.921 109.766 181.495 104.247 181.979C93.2172 182.947 77.9639 183.546 61.1049 183.546C44.246 183.546 28.9926 182.947 17.9627 181.979C12.4437 181.495 8.00349 180.921 4.95423 180.288C3.42358 179.971 2.28132 179.646 1.53693 179.327C1.18382 179.176 0.958644 179.042 0.829078 178.936C0.958644 178.831 1.18382 178.697 1.53693 178.545C2.28132 178.226 3.42358 177.902 4.95423 177.584C8.00349 176.952 12.4437 176.377 17.9627 175.893C28.9926 174.926 44.246 174.326 61.1049 174.326C77.9639 174.326 93.2172 174.926 104.247 175.893C109.766 176.377 114.206 176.952 117.256 177.584C118.786 177.902 119.928 178.226 120.673 178.545ZM0.728644 178.837C0.728759 178.837 0.729714 178.838 0.731161 178.841C0.729252 178.838 0.728528 178.837 0.728644 178.837ZM0.728644 179.036C0.728528 179.036 0.729252 179.035 0.731161 179.032C0.729714 179.035 0.728759 179.036 0.728644 179.036ZM121.479 179.032C121.481 179.035 121.481 179.036 121.481 179.036C121.481 179.036 121.48 179.035 121.479 179.032Z" fill="#FCFBE4" stroke="#661156" stroke-width="1.5"/>
<path d="M62.6047 182.152C62.6047 181.323 61.9332 180.652 61.1047 180.652C60.2763 180.652 59.6047 181.323 59.6047 182.152L62.6047 182.152ZM62.6047 192.872L62.6047 182.152L59.6047 182.152L59.6047 192.872L62.6047 192.872Z" fill="#661156"/>
<path d="M261.848 260.746L333.445 198.064C334.096 197.494 334.469 196.671 334.469 195.807L334.469 162.428C334.469 160.473 332.629 159.04 330.734 159.519L233.215 184.156C232.827 184.254 232.424 184.273 232.029 184.213L184.463 176.975C183.724 176.862 182.97 177.03 182.348 177.444L162.138 190.918C161.304 191.474 160.802 192.411 160.802 193.414L160.802 258.489C160.802 260.146 162.146 261.489 163.802 261.489L259.872 261.489C260.599 261.489 261.302 261.225 261.848 260.746Z" fill="#FCFBE4" stroke="#661156" stroke-width="2"/>
<path d="M308.076 148.102L333.281 156.492C335.173 157.121 335.112 159.822 333.182 160.322C312.279 165.731 248.185 182.383 244.5 184.154C240.094 186.272 178.569 186.936 170.066 184.154C161.562 181.372 159.05 162.887 170.066 157.57C180.717 152.43 214.025 148.283 216.22 148.014C216.3 148.004 216.374 148 216.454 148L307.445 148C307.659 148 307.873 148.035 308.076 148.102Z" fill="#FCFBE4" stroke="#661156" stroke-width="2"/>
<circle cx="228.339" cy="170.37" r="8.64814" fill="#8262A1" stroke="#661156" stroke-width="2"/>
<circle cx="168.307" cy="170.37" r="8.64814" fill="#8262A1" stroke="#661156" stroke-width="2"/>
<path d="M231.25 195.292L245.308 219.155C245.761 219.925 246 220.801 246 221.693L246 245.355C246 247.054 245.137 248.636 243.71 249.557L232.117 257.032C231.31 257.553 230.369 257.83 229.408 257.83L170 257.83C167.239 257.83 165 255.591 165 252.83L165 197.83C165 195.069 167.239 192.83 170 192.83L226.942 192.83C228.713 192.83 230.352 193.767 231.25 195.292Z" fill="#661156" stroke="#661156"/>
<path d="M243.19 219.581L231.84 198.858C229.865 195.252 225.884 193.222 221.806 193.742L182.321 198.77C177.508 199.383 173.83 203.363 173.596 208.209L171.678 247.994C171.56 250.447 172.473 252.836 174.197 254.585C175.848 256.259 178.101 257.202 180.452 257.202H226.381C228.488 257.202 230.542 256.536 232.248 255.3L240.287 249.476C242.883 247.595 244.42 244.584 244.42 241.378V224.385C244.42 222.705 243.997 221.053 243.19 219.581Z" fill="#8262A1" stroke="#661156"/>
<path d="M218.452 228.323C218.349 235.394 217.861 240.591 216.915 244.423C215.973 248.239 214.606 250.576 212.831 252.08C211.047 253.592 208.667 254.42 205.37 254.847C202.054 255.277 198.005 255.28 192.976 255.28C191.453 255.28 190.022 255.294 188.674 255.307C185.52 255.338 182.816 255.365 180.437 255.196C177.067 254.957 174.676 254.336 172.904 252.985C171.159 251.654 169.789 249.44 168.865 245.512C167.938 241.566 167.5 236.057 167.5 228.345C167.5 220.587 167.627 215.041 168.188 211.043C168.751 207.029 169.715 204.887 171.121 203.631C172.537 202.365 174.688 201.736 178.323 201.494C180.85 201.326 183.889 201.351 187.633 201.382C189.273 201.396 191.049 201.41 192.976 201.41C195.219 201.41 197.258 201.386 199.12 201.365C202.52 201.325 205.331 201.292 207.711 201.424C211.395 201.627 213.587 202.218 215.025 203.458C216.44 204.679 217.417 206.79 217.958 210.82C218.497 214.835 218.568 220.44 218.452 228.323Z" fill="#661156" stroke="#8262A1" stroke-width="3"/>
<rect x="-1" y="1" width="38.7366" height="32.3045" rx="1" transform="matrix(-1 0 0 1 480.407 179.448)" fill="#8262A1" stroke="#661156" stroke-width="2"/>
<path d="M446.878 191.682L332.524 172.952C329.481 172.453 326.716 174.802 326.716 177.886L326.716 190.877C326.716 193.522 328.775 195.709 331.415 195.868L445.768 202.769C448.643 202.942 451.07 200.658 451.07 197.778L451.07 196.616C451.07 194.167 449.295 192.078 446.878 191.682Z" fill="#FCFBE4" stroke="#661156" stroke-width="2"/>
<path d="M395.222 165.388C395.222 165.388 395.223 165.39 395.226 165.393C395.224 165.39 395.223 165.388 395.222 165.388ZM396.127 165.13C395.76 165.275 395.514 165.405 395.364 165.512C395.514 165.619 395.76 165.75 396.127 165.895C396.946 166.218 398.198 166.544 399.865 166.862C403.189 167.496 408.024 168.071 414.029 168.555C426.031 169.523 442.626 170.123 460.967 170.123C479.307 170.123 495.902 169.523 507.904 168.555C513.909 168.071 518.744 167.496 522.068 166.862C523.736 166.544 524.987 166.218 525.806 165.895C526.174 165.75 526.419 165.619 526.57 165.512C526.419 165.405 526.174 165.275 525.806 165.13C524.987 164.807 523.736 164.481 522.068 164.163C518.744 163.529 513.909 162.954 507.904 162.47C495.902 161.502 479.307 160.902 460.967 160.902C442.626 160.902 426.031 161.502 414.029 162.47C408.024 162.954 403.189 163.529 399.865 164.163C398.198 164.481 396.946 164.807 396.127 165.13ZM526.711 165.388C526.711 165.388 526.709 165.39 526.707 165.393C526.71 165.39 526.711 165.388 526.711 165.388ZM526.711 165.637C526.711 165.637 526.71 165.635 526.707 165.631C526.709 165.635 526.711 165.637 526.711 165.637ZM395.226 165.631C395.223 165.635 395.222 165.637 395.222 165.637C395.223 165.637 395.224 165.635 395.226 165.631Z" fill="#FCFBE4" stroke="#661156" stroke-width="1.5"/>
<path d="M459.467 168.728C459.467 167.9 460.138 167.228 460.967 167.228C461.795 167.228 462.467 167.9 462.467 168.728L459.467 168.728ZM459.467 179.448L459.467 168.728L462.467 168.728L462.467 179.448L459.467 179.448Z" fill="#661156"/>
<path d="M373.33 204.374L276.129 184.934C273.035 184.315 270.148 186.681 270.148 189.837L270.148 205.876C270.148 208.502 272.179 210.68 274.799 210.864L372 217.668C374.892 217.87 377.35 215.579 377.35 212.68L377.35 209.277C377.35 206.894 375.667 204.841 373.33 204.374Z" fill="#FCFBE4" stroke="#661156" stroke-width="2"/>
<rect x="-1" y="1" width="38.7366" height="32.3045" rx="1" transform="matrix(-1 0 0 1 412.086 194.457)" fill="#8262A1" stroke="#661156" stroke-width="2"/>
<path d="M381.142 261.061C381.142 266.594 391.862 266.594 392.934 261.061C393.89 256.126 401.667 225.777 403.338 219.27C403.501 218.637 403.017 218.042 402.364 218.042L389.264 218.042C388.885 218.042 388.539 218.256 388.369 218.595L384.437 226.459C384.385 226.564 384.353 226.66 384.34 226.777C384.085 229.081 381.142 255.768 381.142 261.061Z" fill="#FCFBE4" stroke="#661156" stroke-width="2"/>
<path d="M329.902 180.397C329.901 180.397 329.902 180.399 329.905 180.402C329.903 180.399 329.902 180.397 329.902 180.397ZM330.806 180.139C330.439 180.283 330.193 180.414 330.043 180.521C330.193 180.628 330.439 180.759 330.806 180.904C331.626 181.227 332.877 181.553 334.544 181.871C337.868 182.505 342.703 183.08 348.708 183.564C360.71 184.532 377.306 185.131 395.646 185.131C413.986 185.131 430.581 184.532 442.583 183.564C448.588 183.08 453.424 182.505 456.747 181.871C458.415 181.553 459.666 181.227 460.486 180.904C460.853 180.759 461.098 180.628 461.249 180.521C461.098 180.414 460.853 180.283 460.486 180.139C459.666 179.816 458.415 179.49 456.747 179.172C453.424 178.538 448.588 177.963 442.583 177.479C430.581 176.511 413.986 175.911 395.646 175.911C377.306 175.911 360.71 176.511 348.708 177.479C342.703 177.963 337.868 178.538 334.544 179.172C332.877 179.49 331.626 179.816 330.806 180.139ZM461.39 180.397C461.39 180.397 461.389 180.399 461.387 180.402C461.389 180.399 461.39 180.397 461.39 180.397ZM461.39 180.645C461.39 180.645 461.389 180.644 461.387 180.64C461.389 180.644 461.39 180.645 461.39 180.645ZM329.905 180.64C329.902 180.644 329.901 180.645 329.902 180.645C329.902 180.645 329.903 180.644 329.905 180.64Z" fill="#FCFBE4" stroke="#661156" stroke-width="1.5"/>
<path d="M394.146 183.737C394.146 182.908 394.817 182.237 395.646 182.237C396.474 182.237 397.146 182.908 397.146 183.737L394.146 183.737ZM394.146 194.457L394.146 183.737L397.146 183.737L397.146 194.457L394.146 194.457Z" fill="#661156"/>
<path d="M279.291 284.371L282.347 259.924C282.404 259.467 282.766 259.109 283.223 259.055L329.6 253.631C330.194 253.561 330.716 254.025 330.716 254.624L330.716 260.646C330.716 260.875 330.637 261.097 330.493 261.275L298.131 301.19C297.764 301.642 297.092 301.687 296.668 301.289L279.598 285.223C279.366 285.004 279.252 284.687 279.291 284.371Z" fill="#8262A1" stroke="#661156" stroke-width="2"/>
<path d="M282.134 259.908L305.249 283.023C305.667 283.441 306.354 283.407 306.729 282.951L330.155 254.432C330.462 254.058 330.457 253.518 330.144 253.15L313.113 233.113C312.754 232.69 312.118 232.641 311.698 233.004L282.188 258.443C281.748 258.823 281.723 259.497 282.134 259.908Z" fill="#8262A1" stroke="#661156" stroke-width="2"/>
<path d="M289.555 259.886L299.909 271.182C300.314 271.623 301.012 271.613 301.403 271.16L320.494 249.055C320.809 248.69 320.819 248.153 320.518 247.777L313.126 238.537C312.766 238.087 312.1 238.034 311.673 238.422L289.62 258.471C289.21 258.843 289.181 259.478 289.555 259.886Z" fill="#661156" stroke="#661156"/>
<path d="M323.63 254.258L315.673 263.411" stroke="#661156" stroke-linecap="round"/>
</svg>
