<svg width="1242" height="473" viewBox="0 0 1242 473" fill="none" xmlns="http://www.w3.org/2000/svg">
<path d="M137.379 399.027L193.769 399.027C216.191 399.027 221.629 372.862 209.727 344.497C208.576 341.755 210.522 338.614 213.497 338.614L213.735 338.614C215.944 338.614 217.735 336.823 217.735 334.614L217.735 333.91C217.735 331.701 215.944 329.91 213.735 329.91L119.898 329.91L117.695 329.91C115.486 329.91 113.695 331.701 113.695 333.91L113.695 334.697C113.695 336.86 115.449 338.614 117.612 338.614C120.566 338.614 122.483 341.778 121.355 344.508C111.147 369.199 115.474 399.027 137.379 399.027Z" fill="#FCFBE4" stroke="#661156" stroke-width="6"/>
<path d="M201.597 335.325L129.712 335.325C129.712 316.679 201.596 318.141 201.597 335.325Z" fill="#661156" stroke="#661156" stroke-width="4"/>
<path d="M165.947 324.807L167.208 238.429" stroke="#216869" stroke-width="12" stroke-linecap="square"/>
<path d="M188.087 228.737C200.673 229.803 209.747 252.478 214.129 266.286C214.801 268.404 211.811 269.856 210.256 268.268C189.696 247.283 169.692 265.064 169.646 254.931C169.584 241.142 166.505 242.192 167.201 241.441C172.122 236.137 169.933 227.199 188.087 228.737Z" fill="#49A078" stroke="#216869" stroke-width="4"/>
<path d="M193.842 268.155C205.267 265.933 216.42 284.696 222.208 296.467C223.172 298.428 220.487 300.333 218.659 299.134C197.581 285.304 182.156 306.715 180.772 297.324C178.877 284.469 176.251 286.237 176.776 285.359C180.489 279.148 177.331 271.366 193.842 268.155Z" fill="#216869" stroke="#216869" stroke-width="4"/>
<path d="M145.676 268.424C133.021 267.051 119.713 287.601 112.751 300.312C111.687 302.255 114.356 304.247 116.188 302.991C140.533 286.302 156.928 307.623 158.907 297.681C161.6 284.157 164.444 285.779 163.899 284.909C160.046 278.756 163.915 270.403 145.676 268.424Z" fill="#216869" stroke="#216869" stroke-width="4"/>
<path d="M144.066 229.929C131.584 231.871 124.115 255.123 120.707 269.203C120.184 271.363 123.268 272.603 124.709 270.911C143.754 248.542 164.95 264.885 164.289 254.774C163.389 241.013 166.534 241.846 165.788 241.146C160.508 236.198 162.068 227.129 144.066 229.929Z" fill="#49A078" stroke="#216869" stroke-width="4"/>
<circle cx="172.421" cy="237.143" r="5.13434" fill="#C87F9A" stroke="#661156" stroke-width="3"/>
<circle cx="165.346" cy="230.952" r="5.13434" fill="#C87F9A" stroke="#661156" stroke-width="3"/>
<circle cx="160.922" cy="237.143" r="5.13434" fill="#C87F9A" stroke="#661156" stroke-width="3"/>
<path d="M178.012 267.669L213.936 243.975" stroke="#216869" stroke-width="4" stroke-linecap="round"/>
<path d="M199.046 261.61C199.432 264.759 197.355 267.436 194.629 267.771C191.904 268.106 189.24 266.01 188.854 262.862C188.467 259.713 190.545 257.035 193.27 256.701C195.996 256.366 198.659 258.461 199.046 261.61Z" fill="#C87F9A" stroke="#661156" stroke-width="3"/>
<circle cx="206.311" cy="254.035" r="5.13434" transform="rotate(-6.99997 206.311 254.035)" fill="#C87F9A" stroke="#661156" stroke-width="3"/>
<circle cx="184.731" cy="263.369" r="5.57663" transform="rotate(-7 184.731 263.369)" fill="#C87F9A" stroke="#661156" stroke-width="3"/>
<circle cx="197.531" cy="255.114" r="5.13434" transform="rotate(-7 197.531 255.114)" fill="#C87F9A" stroke="#661156" stroke-width="3"/>
<circle cx="201.058" cy="247.551" r="5.13434" transform="rotate(-7 201.058 247.551)" fill="#C87F9A" stroke="#661156" stroke-width="3"/>
<path d="M160.221 269.164L119.952 254.825" stroke="#216869" stroke-width="4" stroke-linecap="round"/>
<path d="M138.537 268.35C138.925 271.511 141.574 273.596 144.258 273.266C146.942 272.936 149.008 270.273 148.62 267.112C148.232 263.951 145.583 261.866 142.899 262.196C140.215 262.525 138.149 265.189 138.537 268.35Z" fill="#C87F9A" stroke="#661156" stroke-width="3"/>
<path d="M124.669 263.369C125.016 266.195 127.563 268.186 130.336 267.846C133.108 267.506 135.098 264.957 134.751 262.131C134.404 259.305 131.857 257.313 129.084 257.654C126.312 257.994 124.322 260.543 124.669 263.369Z" fill="#C87F9A" stroke="#661156" stroke-width="3"/>
<path d="M147.74 267.22C148.084 270.019 150.604 271.983 153.339 271.647C156.074 271.312 158.044 268.796 157.701 265.997C157.357 263.199 154.837 261.234 152.102 261.57C149.367 261.906 147.397 264.422 147.74 267.22Z" fill="#C87F9A" stroke="#661156" stroke-width="4"/>
<path d="M133.376 262.302C133.723 265.128 136.27 267.119 139.043 266.779C141.815 266.438 143.805 263.89 143.458 261.064C143.111 258.237 140.564 256.246 137.791 256.586C135.019 256.927 133.029 259.475 133.376 262.302Z" fill="#C87F9A" stroke="#661156" stroke-width="3"/>
<path d="M128.16 255.811C128.507 258.638 131.054 260.629 133.827 260.288C136.599 259.948 138.589 257.4 138.242 254.573C137.895 251.747 135.348 249.756 132.575 250.096C129.803 250.437 127.813 252.985 128.16 255.811Z" fill="#C87F9A" stroke="#661156" stroke-width="3"/>
<path d="M182.8 249.54C194.592 261.65 176.287 297.498 171.514 306.293C170.943 307.345 169.574 307.629 168.632 306.89C143.746 287.374 137.126 260.513 145.445 252.152C154.177 243.375 161.138 255.588 164.384 248.365C165.204 246.538 168.046 246.034 169.266 247.622C173.743 253.448 171.473 237.906 182.8 249.54Z" fill="#9CC5A1" stroke="#216869" stroke-width="4"/>
<path d="M304.934 399.027L361.324 399.027C383.746 399.027 389.184 372.862 377.282 344.497C376.131 341.755 378.077 338.614 381.051 338.614L381.29 338.614C383.499 338.614 385.29 336.823 385.29 334.614L385.29 333.91C385.29 331.701 383.499 329.91 381.29 329.91L287.453 329.91L285.25 329.91C283.041 329.91 281.25 331.701 281.25 333.91L281.25 334.697C281.25 336.86 283.004 338.614 285.167 338.614C288.121 338.614 290.038 341.778 288.91 344.508C278.702 369.199 283.029 399.027 304.934 399.027Z" fill="#FCFBE4" stroke="#661156" stroke-width="6"/>
<path d="M369.152 335.325L297.267 335.325C297.267 316.679 369.152 318.141 369.152 335.325Z" fill="#661156" stroke="#661156" stroke-width="4"/>
<path d="M333.502 324.807L334.763 238.429" stroke="#216869" stroke-width="12" stroke-linecap="square"/>
<path d="M355.642 228.737C368.228 229.803 377.302 252.478 381.684 266.286C382.356 268.404 379.366 269.856 377.811 268.268C357.251 247.283 337.247 265.064 337.201 254.931C337.139 241.142 334.059 242.192 334.755 241.441C339.677 236.137 337.488 227.199 355.642 228.737Z" fill="#49A078" stroke="#216869" stroke-width="4"/>
<path d="M361.396 268.155C372.821 265.933 383.974 284.696 389.762 296.467C390.726 298.428 388.041 300.333 386.214 299.134C365.136 285.304 349.71 306.715 348.326 297.324C346.431 284.469 343.805 286.237 344.33 285.359C348.043 279.148 344.885 271.366 361.396 268.155Z" fill="#216869" stroke="#216869" stroke-width="4"/>
<path d="M313.231 268.424C300.576 267.051 287.268 287.601 280.306 300.312C279.242 302.255 281.911 304.247 283.743 302.991C308.088 286.302 324.483 307.623 326.463 297.681C329.155 284.157 331.999 285.779 331.454 284.909C327.601 278.756 331.47 270.403 313.231 268.424Z" fill="#216869" stroke="#216869" stroke-width="4"/>
<path d="M311.62 229.929C299.139 231.871 291.669 255.123 288.261 269.203C287.739 271.363 290.823 272.603 292.263 270.911C311.309 248.542 332.505 264.885 331.844 254.774C330.944 241.013 334.089 241.846 333.342 241.146C328.063 236.198 329.623 227.129 311.62 229.929Z" fill="#49A078" stroke="#216869" stroke-width="4"/>
<circle cx="339.976" cy="237.143" r="5.13434" fill="#C87F9A" stroke="#661156" stroke-width="3"/>
<circle cx="332.9" cy="230.952" r="5.13434" fill="#C87F9A" stroke="#661156" stroke-width="3"/>
<circle cx="328.477" cy="237.143" r="5.13434" fill="#C87F9A" stroke="#661156" stroke-width="3"/>
<path d="M345.567 267.669L381.49 243.975" stroke="#216869" stroke-width="4" stroke-linecap="round"/>
<path d="M366.6 261.61C366.987 264.759 364.909 267.436 362.184 267.771C359.458 268.106 356.795 266.01 356.408 262.862C356.021 259.713 358.099 257.035 360.824 256.701C363.55 256.366 366.213 258.461 366.6 261.61Z" fill="#C87F9A" stroke="#661156" stroke-width="3"/>
<circle cx="373.865" cy="254.035" r="5.13434" transform="rotate(-6.99997 373.865 254.035)" fill="#C87F9A" stroke="#661156" stroke-width="3"/>
<circle cx="352.285" cy="263.369" r="5.57663" transform="rotate(-7 352.285 263.369)" fill="#C87F9A" stroke="#661156" stroke-width="3"/>
<circle cx="365.086" cy="255.114" r="5.13434" transform="rotate(-7 365.086 255.114)" fill="#C87F9A" stroke="#661156" stroke-width="3"/>
<circle cx="368.613" cy="247.551" r="5.13434" transform="rotate(-7 368.613 247.551)" fill="#C87F9A" stroke="#661156" stroke-width="3"/>
<path d="M327.776 269.164L287.506 254.825" stroke="#216869" stroke-width="4" stroke-linecap="round"/>
<path d="M306.092 268.35C306.48 271.511 309.129 273.596 311.812 273.266C314.496 272.936 316.562 270.273 316.174 267.112C315.786 263.951 313.137 261.866 310.453 262.196C307.769 262.525 305.703 265.189 306.092 268.35Z" fill="#C87F9A" stroke="#661156" stroke-width="3"/>
<path d="M292.223 263.369C292.57 266.195 295.118 268.186 297.89 267.846C300.663 267.506 302.653 264.957 302.306 262.131C301.959 259.305 299.411 257.313 296.639 257.654C293.866 257.994 291.876 260.543 292.223 263.369Z" fill="#C87F9A" stroke="#661156" stroke-width="3"/>
<path d="M315.294 267.22C315.638 270.019 318.158 271.983 320.893 271.647C323.628 271.312 325.598 268.796 325.255 265.997C324.911 263.199 322.391 261.234 319.656 261.57C316.921 261.906 314.951 264.422 315.294 267.22Z" fill="#C87F9A" stroke="#661156" stroke-width="4"/>
<path d="M300.931 262.302C301.278 265.128 303.825 267.119 306.598 266.779C309.37 266.438 311.36 263.89 311.013 261.064C310.666 258.237 308.119 256.246 305.346 256.586C302.574 256.927 300.584 259.475 300.931 262.302Z" fill="#C87F9A" stroke="#661156" stroke-width="3"/>
<path d="M295.714 255.811C296.061 258.638 298.608 260.629 301.381 260.288C304.153 259.948 306.143 257.4 305.796 254.573C305.449 251.747 302.902 249.756 300.129 250.096C297.357 250.437 295.367 252.985 295.714 255.811Z" fill="#C87F9A" stroke="#661156" stroke-width="3"/>
<path d="M350.355 249.54C362.146 261.65 343.842 297.498 339.068 306.293C338.497 307.345 337.129 307.629 336.187 306.89C311.301 287.374 304.681 260.513 312.999 252.152C321.732 243.375 328.692 255.588 331.938 248.365C332.759 246.538 335.601 246.034 336.821 247.622C341.298 253.448 339.028 237.906 350.355 249.54Z" fill="#9CC5A1" stroke="#216869" stroke-width="4"/>
<path d="M6.25292 297.736L16.0798 317.614C16.4388 318.34 17.4672 318.36 17.8545 317.649L50.4478 257.778" stroke="#49A078" stroke-width="12" stroke-linecap="round"/>
<path d="M67.202 416.316L44.0343 459.104C41.5089 463.768 44.886 469.436 50.1899 469.436L449.431 469.436C454.444 469.436 457.832 464.321 455.876 459.705L437.745 416.917C436.649 414.33 434.111 412.649 431.3 412.649L271.78 412.649C267.914 412.649 264.78 409.515 264.78 405.649L264.78 188.563C264.78 184.697 261.646 181.563 257.78 181.563L236.566 181.563L150.593 181.563C141.961 181.563 140.977 194.135 149.504 195.478L230.655 208.261C234.059 208.797 236.566 211.73 236.566 215.176L236.566 405.649C236.566 409.515 233.432 412.649 229.566 412.649L73.3576 412.649C70.7882 412.649 68.4254 414.056 67.202 416.316Z" fill="#3C9BA1" stroke="#661156" stroke-width="6"/>
<path d="M140 446V444H138V442H136V436H138V434H140V432H148V434H150V436H146V434H142V436H140V442H142V444H146V442H150V444H148V446H140ZM154 446V444H158V434H156V432H162V444H166V446H154ZM170 446V444H168V438H170V436H180V438H182V444H180V446H170ZM172 444H178V438H172V444ZM184 446V436H196V438H198V446H194V438H188V446H184ZM206 434V432H210V434H206ZM202 446V444H206V438H204V436H210V444H214V446H202ZM216 446V436H228V438H230V446H226V438H220V446H216ZM234 448V446H242V444H234V442H232V438H234V436H246V446H244V448H234ZM236 442H242V438H236V442ZM264 446V432H268V434H270V436H272V434H274V432H278V446H274V438H272V442H270V438H268V446H264ZM282 446V444H280V442H282V440H290V438H282V436H292V438H294V446H282ZM284 444H290V442H284V444ZM298 446V444H296V438H298V436H310V438H300V444H310V446H298ZM312 446V432H316V436H324V438H326V446H322V438H316V446H312ZM334 434V432H338V434H334ZM330 446V444H334V438H332V436H338V444H342V446H330ZM344 446V436H356V438H358V446H354V438H348V446H344ZM362 446V444H360V438H362V436H372V438H374V442H364V444H372V446H362ZM364 440H370V438H364V440Z" fill="#FCFBE4"/>
<path d="M654.545 168.272C664.451 175.908 664.794 180.304 654.545 188.416C636.849 199.771 627.077 198.985 610.598 188.416C602.052 181.453 601.442 175.609 610.598 168.272C626.162 157.243 638.064 157.242 654.545 168.272Z" fill="#8262A1" stroke="#661156" stroke-width="5"/>
<path d="M663.696 180.533C651.252 173.772 643.845 167.723 631.993 179.109C619.253 192.275 613.031 186.582 602.364 180.177" stroke="#FCFBE4" stroke-width="5"/>
<path d="M662.104 178.19C649.58 171.269 643.914 165.294 631.987 176.95C619.165 190.428 614.692 185.475 603.957 178.919" stroke="#661156" stroke-width="3"/>
<path d="M662.104 182.293C649.751 175.38 644.752 169.208 632.988 180.851C620.341 194.313 615.342 189.57 604.754 183.021" stroke="#661156" stroke-width="3"/>
<path d="M654.545 168.272C664.451 175.908 664.794 180.304 654.545 188.416C636.849 199.771 627.077 198.985 610.598 188.416C602.052 181.453 601.442 175.609 610.598 168.272C626.162 157.243 638.064 157.242 654.545 168.272Z" stroke="#661156" stroke-width="5"/>
<path d="M627.299 431.114L627.299 265.339L640.562 265.339L640.562 431.114L627.299 431.114Z" fill="#C87F9A" stroke="#661156" stroke-width="5"/>
<path d="M621.498 298.811L621.497 268.073C621.497 267.263 621.989 266.529 622.742 266.232C631.555 262.755 636.871 262.479 645.211 266.203C645.917 266.518 646.364 267.227 646.364 268L646.364 298.796C646.364 299.477 646.018 300.114 645.438 300.472C636.604 305.927 631.249 306.064 622.404 300.474C621.835 300.114 621.498 299.484 621.498 298.811Z" fill="#661156" stroke="#661156" stroke-width="5"/>
<path d="M621.498 391.811L621.497 361.073C621.497 360.263 621.989 359.529 622.742 359.232C631.555 355.755 636.871 355.479 645.211 359.203C645.917 359.518 646.364 360.227 646.364 361L646.364 391.796C646.364 392.477 646.018 393.114 645.438 393.472C636.604 398.927 631.249 399.064 622.404 393.474C621.835 393.114 621.498 392.484 621.498 391.811Z" fill="#661156" stroke="#661156" stroke-width="5"/>
<path d="M626.47 358.493L626.47 343.296C626.47 342.533 627.291 342.052 627.968 342.402C632.339 344.655 634.888 344.912 639.887 342.394C640.568 342.051 641.39 342.532 641.39 343.294L641.39 358.795C641.39 359.132 641.223 359.448 640.932 359.618C636.831 362.016 630.05 362.361 626.741 359.159C626.561 358.986 626.47 358.743 626.47 358.493Z" fill="#661156" stroke="#661156" stroke-width="5"/>
<path d="M595.349 462.254C624.88 471.883 641.103 473.2 670.958 462.43C674.124 461.288 676.203 458.25 676.203 454.884C676.203 452.161 674.842 449.618 672.576 448.108L647.947 431.691C645.356 429.964 642.167 429.487 639.102 430.043C635.377 430.719 632.338 430.802 628.901 430.198C625.733 429.642 622.42 429.97 619.703 431.692L593.648 448.212C591.376 449.653 590 452.155 590 454.845C590 458.209 592.151 461.212 595.349 462.254Z" fill="#661156" stroke="#661156" stroke-width="6"/>
<path d="M649 242.808C649 260.117 618 259.617 618 242.808C618 226 635.407 221.551 632.814 213.93C630.221 206.309 649 225.5 649 242.808Z" fill="#3C9BA1"/>
<path d="M642.801 246.033C642.801 255.95 626.87 255.756 626.87 246.033C626.87 236.31 636.114 235.726 634.737 232.031C633.36 228.337 642.801 236.115 642.801 246.033Z" fill="#FCFBE4"/>
<path d="M472 193.782V212.204C472 213.861 473.343 215.204 475 215.204H552.5C554.157 215.204 555.5 216.547 555.5 218.204V231.951C555.5 234.596 558.674 235.947 560.58 234.114L589.807 205.998C591.013 204.838 591.037 202.916 589.86 201.726L560.633 172.187C558.747 170.282 555.5 171.617 555.5 174.297V187.782C555.5 189.439 554.157 190.782 552.5 190.782H475C473.343 190.782 472 192.125 472 193.782Z" fill="#661156" stroke="#661156" stroke-width="5"/>
<path d="M679 193.782V212.204C679 213.861 680.343 215.204 682 215.204H759.5C761.157 215.204 762.5 216.547 762.5 218.204V231.951C762.5 234.596 765.674 235.947 767.58 234.114L796.807 205.998C798.013 204.838 798.037 202.916 796.86 201.726L767.633 172.187C765.747 170.282 762.5 171.617 762.5 174.297V187.782C762.5 189.439 761.157 190.782 759.5 190.782H682C680.343 190.782 679 192.125 679 193.782Z" fill="#661156" stroke="#661156" stroke-width="5"/>
<path d="M435.866 26.4373L412.134 26.4378C411.062 26.4378 410.072 27.0096 409.536 27.9378L348.236 134.112C347.408 135.547 345.573 136.039 344.138 135.21L331.043 127.65C328.743 126.322 325.979 128.417 326.637 130.99L338.338 176.798C338.762 178.458 340.489 179.427 342.127 178.923L386.255 165.349C388.759 164.578 389.142 161.193 386.873 159.883L373.556 152.195C372.132 151.372 371.635 149.557 372.442 148.124L438.48 30.9099C439.607 28.91 438.162 26.4372 435.866 26.4373Z" fill="#661156" stroke="#661156" stroke-width="5"/>
<path d="M1056.26 92.7798L1098.22 92.7798C1100.43 92.7798 1102.22 94.5706 1102.22 96.7798L1102.22 100.929C1102.22 101.656 1102.02 102.37 1101.64 102.992L1091.19 120.361C1090.46 121.563 1089.16 122.298 1087.76 122.298L1066.72 122.298C1065.32 122.298 1064.02 121.563 1063.3 120.361L1052.84 102.992C1052.46 102.37 1052.26 101.656 1052.26 100.929L1052.26 96.7798C1052.26 94.5706 1054.05 92.7798 1056.26 92.7798Z" fill="#C87F9A" stroke="#661156" stroke-width="4"/>
<path d="M1085.97 135.609H1069.67C1066.79 135.609 1064.46 133.276 1064.46 130.399C1064.46 127.523 1066.79 125.19 1069.67 125.19H1085.97C1088.85 125.19 1091.18 127.523 1091.18 130.399C1091.18 133.276 1088.85 135.609 1085.97 135.609Z" fill="#C87F9A" stroke="#661156" stroke-width="3"/>
<path d="M1097.28 225.89L1057.72 225.89C1055.51 225.89 1053.72 227.68 1053.72 229.89L1053.72 234.038C1053.72 234.739 1053.9 235.427 1054.25 236.035L1064.18 253.269C1064.89 254.508 1066.22 255.272 1067.65 255.272L1087.36 255.272C1088.79 255.272 1090.11 254.508 1090.82 253.269L1100.75 236.035C1101.1 235.427 1101.28 234.739 1101.28 234.038L1101.28 229.89C1101.28 227.68 1099.49 225.89 1097.28 225.89Z" fill="#C87F9A" stroke="#661156" stroke-width="4"/>
<path d="M1071.53 30.403V398.837C1071.53 403.878 1066.85 407.618 1061.94 406.51C1061.37 406.382 1060.79 406.318 1060.21 406.318H1051.09C1046.67 406.318 1043.09 409.9 1043.09 414.318V422.332C1043.09 426.307 1046.01 429.68 1049.94 430.249L1066.03 432.578C1069.34 433.057 1071.93 435.573 1073.09 438.703C1078.73 453.846 1092.93 463.819 1102.24 468.077C1106.25 469.915 1109.83 466.848 1109.83 462.43V458.635C1109.83 456.069 1108.6 453.657 1106.52 452.166C1096.05 444.698 1088.95 439.875 1094.74 438.668C1148.59 427.443 1180.08 426.818 1231.35 436.728C1236.33 437.691 1241 433.906 1241 428.832V425.344C1241 421.479 1238.22 418.162 1234.42 417.473C1179.71 407.564 1158.31 404.829 1100.55 415.304C1099.05 415.576 1097.48 415.425 1096.06 414.853L1091.58 413.035C1088.58 411.818 1086.61 408.909 1086.59 405.669L1084.34 30.3646C1084.31 26.8432 1081.45 23.9997 1077.93 23.9997C1074.4 23.9997 1071.53 26.8665 1071.53 30.403Z" fill="#661156" stroke="#661156"/>
<path d="M1164.63 300.418H1146.28C1145.89 300.418 1145.49 300.47 1145.11 300.611C1143.7 301.142 1143.24 301.788 1142.96 302.965C1142.9 303.194 1142.88 303.43 1142.87 303.665C1142.86 304.93 1142.94 306.574 1143.76 307.471L1144.61 308.373C1145.3 309.113 1145.68 310.089 1145.68 311.103V321.702C1145.68 322.172 1145.6 322.638 1145.44 323.08L1108.03 425.002L1106.38 429.182C1105.66 431.022 1106.39 433.123 1108.12 434.086C1144.56 454.419 1172.56 454.921 1207.96 434.113C1209.63 433.13 1210.33 431.066 1209.61 429.26L1207.94 425.002L1166.7 322.413V310.299C1166.7 309.216 1167.33 308.234 1168.32 307.789C1168.78 307.581 1169.2 307.26 1169.37 306.787C1169.8 305.609 1169.56 304.205 1169.17 303.116C1169.08 302.859 1168.94 302.617 1168.78 302.398C1167.98 301.332 1167.18 300.818 1165.27 300.472C1165.06 300.434 1164.85 300.418 1164.63 300.418Z" fill="#FCFBE4"/>
<path d="M1166.7 322.413L1180.95 358.297M1166.7 322.413V310.299C1166.7 309.216 1167.33 308.234 1168.32 307.789V307.789C1168.78 307.581 1169.2 307.26 1169.37 306.787C1169.8 305.609 1169.56 304.205 1169.17 303.116C1169.08 302.859 1168.94 302.617 1168.78 302.398C1167.98 301.332 1167.18 300.818 1165.27 300.472C1165.06 300.434 1164.85 300.418 1164.63 300.418H1146.28C1145.89 300.418 1145.49 300.47 1145.11 300.611C1143.7 301.142 1143.24 301.788 1142.96 302.965C1142.9 303.194 1142.88 303.43 1142.87 303.665C1142.86 304.93 1142.94 306.574 1143.76 307.471L1144.61 308.373C1145.3 309.113 1145.68 310.089 1145.68 311.103V321.702C1145.68 322.172 1145.6 322.638 1145.44 323.08L1108.03 425.002L1106.38 429.182C1105.66 431.022 1106.39 433.123 1108.12 434.086C1144.56 454.419 1172.56 454.921 1207.96 434.113C1209.63 433.13 1210.33 431.066 1209.62 429.26L1207.94 425.002L1166.7 322.413ZM1155.93 371.899H1185.87V371.899C1186.1 371.899 1186.26 371.665 1186.17 371.45L1180.95 358.297M1162.2 358.297H1180.95" stroke="#661156" stroke-width="5" stroke-linecap="round"/>
<path d="M1191.09 253.084V286.361C1191.09 287.648 1190.51 288.931 1189.33 289.449C1186.71 290.601 1184.7 289.535 1181.51 287.064C1181.17 286.806 1180.88 286.492 1180.65 286.141L1175.93 279.06C1175.23 278.022 1174.1 277.367 1172.85 277.287L1134.37 274.824C1132.29 274.691 1130.68 272.972 1130.68 270.895C1130.68 268.807 1132.31 267.083 1134.4 266.965L1172.39 264.818C1173.89 264.734 1175.21 263.819 1175.82 262.449L1180.5 251.91C1180.83 251.178 1181.36 250.549 1182.06 250.168C1184.65 248.769 1186.55 248.648 1189.05 249.733C1190.36 250.298 1191.09 251.662 1191.09 253.084Z" fill="#C87F9A" stroke="#661156" stroke-width="3"/>
<path d="M1123.8 107.827L1040.06 107.827C1038.78 107.827 1037.74 108.863 1037.74 110.142C1037.74 111.42 1038.78 112.457 1040.06 112.457L1123.98 112.457C1124.93 112.457 1125.85 112.797 1126.58 113.415L1132.68 118.63C1133.27 119.134 1134 119.456 1134.76 119.555L1159.25 122.737C1159.94 122.827 1160.65 122.734 1161.29 122.465L1180.67 114.421C1181 114.283 1181.22 113.958 1181.22 113.598C1181.22 113.018 1180.67 112.593 1180.11 112.733L1161.26 117.428C1160.63 117.584 1159.98 117.586 1159.35 117.434L1141.87 113.198C1140.08 112.763 1138.81 111.157 1138.81 109.311L1138.81 108.917C1138.81 106.954 1140.24 105.281 1142.18 104.968L1159.44 102.178C1160.01 102.086 1160.59 102.118 1161.15 102.272L1180.08 107.512C1180.65 107.67 1181.22 107.24 1181.22 106.646C1181.22 106.306 1181.03 105.994 1180.72 105.842L1161.44 96.2362C1160.7 95.8691 1159.87 95.7383 1159.06 95.8617L1134.88 99.5272C1134.04 99.6548 1133.26 100.048 1132.66 100.648L1126.62 106.66C1125.87 107.407 1124.86 107.827 1123.8 107.827Z" fill="#C87F9A" stroke="#661156" stroke-width="3"/>
<path d="M1168.81 287.989L1165.53 289.329C1163.76 290.056 1162.55 291.736 1162.44 293.652L1160.92 318.439C1160.9 318.775 1160.84 319.108 1160.75 319.433L1158.37 328.288C1158.14 329.137 1157.37 329.727 1156.49 329.727C1155.65 329.727 1154.9 329.183 1154.64 328.381L1151.77 319.496C1151.65 319.129 1151.58 318.75 1151.54 318.366L1149.52 293.577C1149.36 291.7 1148.17 290.069 1146.43 289.356L1143.08 287.989C1141.2 287.22 1139.97 285.391 1139.97 283.361L1139.97 277.85C1139.97 276.617 1140.43 275.428 1141.25 274.511L1142.76 272.828C1143.58 271.91 1144.04 270.721 1144.04 269.489L1144.04 90.3661C1144.04 89.5359 1143.75 88.7326 1143.21 88.099C1142.03 86.7123 1142.13 84.6458 1143.4 83.3531C1143.82 82.9328 1144.33 82.6166 1144.9 82.4586C1152.51 80.3467 1160.99 80.3408 1167.11 82.4399C1167.61 82.6087 1168.04 82.9003 1168.41 83.2704L1168.5 83.3662C1169.78 84.6588 1169.86 86.7123 1168.69 88.099C1168.15 88.7326 1167.86 89.536 1167.86 90.3662L1167.86 269.489C1167.86 270.721 1168.31 271.91 1169.13 272.828L1170.64 274.511C1171.47 275.428 1171.92 276.617 1171.92 277.85L1171.92 283.36C1171.92 285.391 1170.69 287.22 1168.81 287.989Z" fill="#FCFBE4" stroke="#661156" stroke-width="4"/>
<path d="M1160.61 102.643C1160.61 104.276 1159.04 105.6 1157.11 105.6C1155.17 105.6 1153.6 104.276 1153.6 102.643C1153.6 101.01 1155.17 97.7148 1157.11 97.7148C1159.04 97.7148 1160.61 101.01 1160.61 102.643Z" fill="#8262A1" stroke="#661156" stroke-width="2"/>
<path d="M1160.61 45.0417C1160.61 46.6748 1159.04 47.9987 1157.11 47.9987C1155.17 47.9987 1153.6 46.6748 1153.6 45.0417C1153.6 43.4086 1155.17 40.1133 1157.11 40.1133C1159.04 40.1133 1160.61 43.4086 1160.61 45.0417Z" fill="#C87F9A" stroke="#661156" stroke-width="2"/>
<path d="M1155.85 113.881C1155.85 115.514 1154.28 116.838 1152.35 116.838C1150.41 116.838 1148.84 115.514 1148.84 113.881C1148.84 112.247 1150.41 108.952 1152.35 108.952C1154.28 108.952 1155.85 112.247 1155.85 113.881Z" fill="#8262A1" stroke="#661156" stroke-width="2"/>
<path d="M1161.56 125.118C1161.56 126.751 1159.99 128.075 1158.06 128.075C1156.12 128.075 1154.55 126.751 1154.55 125.118C1154.55 123.485 1156.12 120.189 1158.06 120.189C1159.99 120.189 1161.56 123.485 1161.56 125.118Z" fill="#8262A1" stroke="#661156" stroke-width="2"/>
<path d="M1160.61 338.401C1160.61 340.034 1159.04 341.358 1157.11 341.358C1155.17 341.358 1153.6 340.034 1153.6 338.401C1153.6 336.768 1155.17 333.473 1157.11 333.473C1159.04 333.473 1160.61 336.768 1160.61 338.401Z" fill="#8262A1" stroke="#661156" stroke-width="2"/>
<path d="M1144.62 104.272C1153.33 107.703 1159.14 107.703 1167.28 104.272" stroke="#661156" stroke-width="2" stroke-linecap="round"/>
<path d="M1150.43 112.114C1153.92 113.585 1158.56 113.585 1162.05 112.114" stroke="#661156" stroke-width="2" stroke-linecap="round"/>
<path d="M1150.43 135.64C1153.92 137.11 1158.56 137.11 1162.05 135.64" stroke="#661156" stroke-width="2" stroke-linecap="round"/>
<path d="M1150.43 159.165C1153.92 160.635 1158.56 160.635 1162.05 159.165" stroke="#661156" stroke-width="2" stroke-linecap="round"/>
<path d="M1150.43 182.692C1153.92 184.163 1158.56 184.163 1162.05 182.692" stroke="#661156" stroke-width="2" stroke-linecap="round"/>
<path d="M1150.43 206.217C1153.92 207.687 1158.56 207.687 1162.05 206.217" stroke="#661156" stroke-width="2" stroke-linecap="round"/>
<path d="M1150.43 229.74C1153.92 231.211 1158.56 231.211 1162.05 229.74" stroke="#661156" stroke-width="2" stroke-linecap="round"/>
<path d="M1150.43 253.268C1153.92 254.738 1158.56 254.738 1162.05 253.268" stroke="#661156" stroke-width="2" stroke-linecap="round"/>
<path d="M1150.43 117.016C1153.92 118.486 1158.56 118.486 1162.05 117.016" stroke="#661156" stroke-width="2" stroke-linecap="round"/>
<path d="M1150.43 140.541C1153.92 142.011 1158.56 142.011 1162.05 140.541" stroke="#661156" stroke-width="2" stroke-linecap="round"/>
<path d="M1150.43 164.066C1153.92 165.537 1158.56 165.537 1162.05 164.066" stroke="#661156" stroke-width="2" stroke-linecap="round"/>
<path d="M1150.43 187.593C1153.92 189.063 1158.56 189.063 1162.05 187.593" stroke="#661156" stroke-width="2" stroke-linecap="round"/>
<path d="M1150.43 211.117C1153.92 212.588 1158.56 212.588 1162.05 211.117" stroke="#661156" stroke-width="2" stroke-linecap="round"/>
<path d="M1150.43 234.645C1153.92 236.115 1158.56 236.115 1162.05 234.645" stroke="#661156" stroke-width="2" stroke-linecap="round"/>
<path d="M1150.43 258.17C1153.92 259.64 1158.56 259.64 1162.05 258.17" stroke="#661156" stroke-width="2" stroke-linecap="round"/>
<path d="M1150.43 121.916C1153.92 123.386 1158.56 123.386 1162.05 121.916" stroke="#661156" stroke-width="2" stroke-linecap="round"/>
<path d="M1150.43 145.441C1153.92 146.912 1158.56 146.912 1162.05 145.441" stroke="#661156" stroke-width="2" stroke-linecap="round"/>
<path d="M1150.43 168.967C1153.92 170.437 1158.56 170.437 1162.05 168.967" stroke="#661156" stroke-width="2" stroke-linecap="round"/>
<path d="M1150.43 192.494C1153.92 193.964 1158.56 193.964 1162.05 192.494" stroke="#661156" stroke-width="2" stroke-linecap="round"/>
<path d="M1150.43 216.019C1153.92 217.489 1158.56 217.489 1162.05 216.019" stroke="#661156" stroke-width="2" stroke-linecap="round"/>
<path d="M1150.43 239.544C1153.92 241.014 1158.56 241.014 1162.05 239.544" stroke="#661156" stroke-width="2" stroke-linecap="round"/>
<path d="M1150.43 263.071C1153.92 264.542 1158.56 264.542 1162.05 263.071" stroke="#661156" stroke-width="2" stroke-linecap="round"/>
<path d="M1144.62 127.798C1153.34 131.229 1159.14 131.229 1167.28 127.798" stroke="#661156" stroke-width="2" stroke-linecap="round"/>
<path d="M1144.62 151.323C1153.34 154.754 1159.14 154.754 1167.28 151.323" stroke="black" stroke-linecap="round"/>
<path d="M1144.62 174.849C1153.34 178.279 1159.14 178.279 1167.28 174.849" stroke="#661156" stroke-width="2" stroke-linecap="round"/>
<path d="M1144.62 151C1153.34 154.431 1159.14 154.431 1167.28 151" stroke="#661156" stroke-width="2" stroke-linecap="round"/>
<path d="M1144.62 198.375C1153.34 201.806 1159.14 201.806 1167.28 198.375" stroke="#661156" stroke-width="2" stroke-linecap="round"/>
<path d="M1144.62 221.9C1153.34 225.331 1159.14 225.331 1167.28 221.9" stroke="#661156" stroke-width="2" stroke-linecap="round"/>
<path d="M1144.62 245.427C1153.34 248.858 1159.14 248.858 1167.28 245.427" stroke="#661156" stroke-width="2" stroke-linecap="round"/>
<path d="M1109.28 432.521C1142.84 454.492 1171.32 454.55 1207.33 433.683C1209.03 432.7 1209.72 430.613 1208.99 428.795L1191.88 386.45C1191.39 385.23 1190.32 384.325 1189.04 384.046C1164.72 378.783 1150.87 379.396 1125.32 384.626C1123.96 384.904 1122.85 385.874 1122.38 387.178L1107.75 427.887C1107.13 429.599 1107.76 431.522 1109.28 432.521Z" fill="#8262A1" stroke="#661156" stroke-width="5"/>
<path d="M1131.9 390.22C1130.9 389.753 1129.71 390.186 1129.24 391.187C1128.77 392.188 1129.2 393.378 1130.21 393.845L1131.9 390.22ZM1190.09 387.957C1190.26 388.056 1190.03 387.978 1189.93 387.601C1189.83 387.212 1190 386.996 1189.94 387.094C1189.75 387.384 1189.07 388.026 1187.52 388.865C1184.57 390.461 1179.6 392.196 1173.47 393.438C1161.19 395.924 1144.92 396.299 1131.9 390.22L1130.21 393.845C1144.32 400.433 1161.56 399.929 1174.26 397.358C1180.62 396.071 1186.01 394.232 1189.42 392.382C1191.06 391.497 1192.55 390.447 1193.32 389.223C1193.74 388.564 1194.07 387.636 1193.8 386.597C1193.54 385.57 1192.8 384.905 1192.1 384.498L1190.09 387.957Z" fill="#661156"/>
<path d="M1166.46 120.72L1160.26 122.928L1141.64 120.278" stroke="#661156" stroke-width="3"/>
<path d="M1160.31 118.834L1170.56 116.095L1178.81 114.041L1160.31 121.915L1136.76 118.511L1137.65 113.212L1160.31 118.834Z" fill="#C87F9A"/>
<path d="M1027.29 118.805V102.637C1027.29 99.7498 1029.63 97.4092 1032.51 97.4092C1035.4 97.4092 1037.74 99.7498 1037.74 102.637V118.805C1037.74 121.693 1035.4 124.033 1032.51 124.033C1029.63 124.033 1027.29 121.693 1027.29 118.805Z" fill="#C87F9A" stroke="#661156" stroke-width="3"/>
<path d="M1191.09 253.084V286.361C1191.09 287.648 1190.51 288.931 1189.33 289.449C1186.71 290.601 1184.7 289.535 1181.51 287.064C1181.17 286.806 1180.88 286.492 1180.65 286.141L1175.93 279.06C1175.23 278.022 1174.1 277.367 1172.85 277.287L1134.37 274.824C1132.29 274.691 1130.68 272.972 1130.68 270.895C1130.68 268.807 1132.31 267.083 1134.4 266.965L1172.39 264.818C1173.89 264.734 1175.21 263.819 1175.82 262.449L1180.5 251.91C1180.83 251.178 1181.36 250.549 1182.06 250.168C1184.65 248.769 1186.55 248.648 1189.05 249.733C1190.36 250.298 1191.09 251.662 1191.09 253.084Z" fill="#C87F9A" stroke="#661156" stroke-width="3"/>
<path d="M1168.58 285.994L1165.44 287.288C1163.67 288.018 1162.47 289.695 1162.35 291.607L1160.86 316.13C1160.84 316.463 1160.79 316.794 1160.7 317.117L1158.36 325.895C1158.13 326.729 1157.38 327.309 1156.51 327.309C1155.69 327.309 1154.95 326.774 1154.7 325.985L1151.88 317.18C1151.76 316.815 1151.68 316.439 1151.65 316.057L1149.66 291.533C1149.51 289.66 1148.32 288.03 1146.59 287.315L1143.38 285.994C1141.51 285.222 1140.28 283.397 1140.28 281.371L1140.28 275.944C1140.28 274.718 1140.73 273.535 1141.55 272.62L1143.01 270.974C1143.83 270.058 1144.28 268.875 1144.28 267.65L1144.28 90.2733C1144.28 89.4525 1143.99 88.6579 1143.46 88.0294C1142.31 86.6541 1142.39 84.6182 1143.65 83.3353C1144.06 82.9154 1144.57 82.6004 1145.14 82.4421C1152.61 80.3548 1160.93 80.3489 1166.94 82.4236C1167.43 82.5925 1167.87 82.8842 1168.23 83.2539L1168.32 83.3437C1169.58 84.6265 1169.65 86.6541 1168.5 88.0294C1167.97 88.6579 1167.68 89.4525 1167.68 90.2733L1167.68 267.649C1167.68 268.875 1168.13 270.058 1168.95 270.974L1170.41 272.62C1171.23 273.535 1171.68 274.718 1171.68 275.944L1171.68 281.371C1171.68 283.397 1170.45 285.222 1168.58 285.994Z" stroke="#661156" stroke-width="4"/>
<path d="M1169.56 114.978L1160.26 117.628L1142.66 113.098" stroke="#661156" stroke-width="3"/>
<path d="M962.668 313.7L979.868 313.7C983.633 313.7 986.285 317.399 985.077 320.965L984.939 321.37C984.571 322.456 984.384 323.594 984.384 324.741L984.384 346.446C984.384 348.81 984.786 350.755 986.059 352.234C987.167 353.523 988.714 354.13 989.828 354.568C989.895 354.594 989.961 354.62 990.025 354.646L990.106 354.678C1006.97 361.351 1015.27 374.692 1018.55 391.487C1018.61 391.799 1018.64 392.131 1018.64 392.471C1018.64 403.26 1018.51 412.727 1015.02 420.729C1011.63 428.472 1004.91 435.154 990.885 439.85C986.186 440.73 979.007 441.32 971.834 441.39C964.532 441.46 957.552 440.986 953.321 439.86C940.65 436.486 933.263 429.938 929.15 421.721C924.976 413.382 924.033 403.042 924.891 391.926C926.239 374.45 935.237 360.996 952.086 354.73C953.139 354.428 954.091 354.13 954.859 353.766C955.697 353.369 956.551 352.787 957.123 351.797C957.656 350.875 957.764 349.893 957.801 349.133C957.826 348.617 957.821 347.978 957.816 347.312C957.813 347.026 957.811 346.735 957.811 346.446L957.811 324.153C957.811 323.514 957.753 322.878 957.637 322.25L955.179 322.703L957.637 322.25L957.259 320.196C956.636 316.817 959.231 313.7 962.668 313.7Z" fill="#FCFBE4" stroke="#661156" stroke-width="5"/>
<path d="M990.4 439.836C985.745 440.723 978.58 441.32 971.419 441.39C964.179 441.46 957.262 440.987 953.07 439.864C941.866 436.862 934.472 431.17 930.036 423.371C925.557 415.495 923.931 405.18 924.887 392.689C924.946 391.917 925.147 391.778 925.187 391.75C925.189 391.749 925.19 391.748 925.191 391.747C925.347 391.631 925.815 391.413 927.017 391.363C928.182 391.316 929.684 391.434 931.621 391.655C932.36 391.739 933.194 391.842 934.086 391.953C935.39 392.114 936.819 392.291 938.257 392.446C948.33 393.534 962.681 394.054 979.582 386.254C987.721 382.498 993.965 379.88 998.833 378.277C1003.75 376.658 1007 376.162 1009.26 376.403C1011.31 376.623 1012.62 377.456 1013.75 379.006C1015.01 380.723 1016.04 383.29 1017.24 386.998C1020.31 396.449 1021.19 407.83 1017.55 417.7C1013.97 427.404 1005.91 435.954 990.4 439.836Z" fill="#C87F9A" stroke="#661156" stroke-width="5"/>
<path d="M1009.29 375.651C1021.54 380.974 1004.67 390.342 979.932 396.503" stroke="#661156" stroke-width="4" stroke-linecap="round"/>
<path d="M972.334 368.234C972.334 371.448 969.719 374.054 966.493 374.054C963.267 374.054 960.652 371.448 960.652 368.234C960.652 365.02 963.267 359.504 966.493 359.504C969.719 359.504 972.334 365.02 972.334 368.234Z" fill="#3C9BA1" stroke="#661156" stroke-width="3"/>
<path d="M979.344 347.283C979.344 349.212 977.775 350.775 975.84 350.775C973.904 350.775 972.335 349.212 972.335 347.283C972.335 345.354 973.904 341.463 975.84 341.463C977.775 341.463 979.344 345.354 979.344 347.283Z" fill="#3C9BA1" stroke="#661156" stroke-width="2"/>
<path d="M972.334 326.331C972.334 328.259 970.765 329.823 968.829 329.823C966.894 329.823 965.325 328.259 965.325 326.331C965.325 324.402 966.894 320.511 968.829 320.511C970.765 320.511 972.334 324.402 972.334 326.331Z" fill="#3C9BA1" stroke="#661156" stroke-width="2"/>
<path d="M1002.3 408.822C1002.3 413.456 998.329 417.3 993.315 417.3C988.301 417.3 984.327 413.456 984.327 408.822C984.327 404.188 988.301 400.344 993.315 400.344C998.329 400.344 1002.3 404.188 1002.3 408.822Z" fill="#661156" stroke="#661156" stroke-width="2"/>
<path d="M1002.3 409.295C1002.3 413.82 999.031 417.3 995.217 417.3C991.402 417.3 988.131 413.82 988.131 409.295C988.131 404.771 991.402 401.291 995.217 401.291C999.031 401.291 1002.3 404.771 1002.3 409.295Z" fill="#FCFBE4" stroke="#661156" stroke-width="2"/>
<path d="M1152.65 39.1628L1160.74 39.1628C1077.98 0.305535 1051.12 33.2112 1058 224.944C1064.45 382.172 1058 412.614 995.693 405.031C992.363 406.926 992.363 414.035 995.693 415.457C1074.17 415.46 1066.09 375.644 1066.09 224.944C1058.73 49.4827 1073.7 10.257 1152.65 39.1628Z" fill="#FCFBE4" stroke="#661156" stroke-width="3"/>
<path d="M1015.14 241.016L1080.21 241.016C1081.5 241.016 1082.55 242.063 1082.55 243.355C1082.55 244.647 1081.5 245.695 1080.21 245.695L1014.96 245.695C1013.96 245.695 1013 246.07 1012.26 246.746L1006.67 251.872C1006.07 252.419 1005.32 252.773 1004.52 252.885L981.728 256.063C980.986 256.167 980.231 256.06 979.547 255.755L961.439 247.687C961.114 247.542 960.906 247.221 960.906 246.866C960.906 246.275 961.466 245.844 962.037 245.997L979.574 250.686C980.242 250.864 980.945 250.867 981.614 250.693L997.835 246.473C999.598 246.015 1000.83 244.423 1000.83 242.602L1000.83 242.043C1000.83 240.097 999.428 238.434 997.511 238.102L980.933 235.227C980.707 235.187 980.478 235.168 980.249 235.168L941.199 235.168C939.126 235.168 937.792 232.97 938.748 231.131C939.213 230.238 940.128 229.668 941.135 229.645L980.224 228.743C980.47 228.737 980.716 228.754 980.958 228.794L1004.4 232.609C1005.28 232.751 1006.08 233.179 1006.68 233.825L1012.22 239.748C1012.98 240.557 1014.03 241.016 1015.14 241.016Z" fill="#C87F9A" stroke="#661156" stroke-width="3"/>
<path d="M939.978 251.006C936.648 250.533 937.6 257.167 939.978 257.167C942.356 257.167 979.931 258.115 979.931 258.115L998.005 255.272" stroke="#661156" stroke-width="3"/>
<path d="M979.923 310.694H962.702C962.304 310.694 961.904 310.642 961.532 310.5C960.239 310.006 959.808 309.403 959.541 308.318C959.484 308.089 959.46 307.853 959.457 307.617C959.444 306.43 959.526 304.896 960.295 304.058L961.023 303.278C961.716 302.537 962.101 301.561 962.101 300.547V291.763C962.101 290.64 961.629 289.569 960.8 288.811L948.738 277.785C947.909 277.027 947.437 275.955 947.437 274.832V190.4C947.437 171.865 997.378 171.456 997.378 190.4V243.442V256.239V276.595L983.268 288.804C982.39 289.564 981.885 290.668 981.885 291.829V301.396C981.885 302.415 982.482 303.34 983.411 303.759C983.844 303.954 984.24 304.256 984.404 304.702C984.808 305.802 984.585 307.111 984.222 308.132C984.13 308.39 983.998 308.632 983.833 308.85C983.088 309.836 982.333 310.316 980.563 310.639C980.352 310.678 980.137 310.694 979.923 310.694Z" fill="#661156"/>
<path d="M997.378 276.595V256.239V243.442M997.378 276.595V190.4C997.378 171.456 947.437 171.865 947.437 190.4V274.832C947.437 275.955 947.909 277.027 948.738 277.785L960.8 288.811C961.629 289.569 962.101 290.64 962.101 291.763V300.547C962.101 301.561 961.716 302.537 961.023 303.278L960.295 304.058C959.526 304.896 959.444 306.43 959.457 307.617C959.46 307.853 959.484 308.089 959.541 308.318C959.808 309.403 960.239 310.006 961.532 310.5C961.904 310.642 962.304 310.694 962.702 310.694H979.923C980.137 310.694 980.352 310.678 980.563 310.639C982.333 310.316 983.088 309.836 983.833 308.85C983.998 308.632 984.13 308.39 984.222 308.132C984.585 307.111 984.808 305.802 984.404 304.702C984.24 304.256 983.844 303.954 983.411 303.759V303.759C982.482 303.34 981.885 302.415 981.885 301.396V291.829C981.885 290.668 982.39 289.564 983.268 288.804L997.378 276.595Z" stroke="#661156" stroke-width="5" stroke-linecap="round"/>
<path d="M1001.92 246.743L978.505 250.534C978.505 250.534 945.211 251.956 941.406 251.956C937.6 251.956 937.6 256.221 941.406 256.221C945.211 256.221 979.456 257.169 979.456 257.169L1004.66 251.482L1001.92 246.743Z" fill="#C87F9A"/>
<path d="M1083.2 252.411V235.384C1083.2 232.757 1081.07 230.628 1078.44 230.628C1075.82 230.628 1073.69 232.757 1073.69 235.384V252.411C1073.69 255.038 1075.82 257.167 1078.44 257.167C1081.07 257.167 1083.2 255.038 1083.2 252.411Z" fill="#C87F9A" stroke="#661156" stroke-width="3"/>
<path d="M939.575 252.506C938.748 252.546 938.044 251.908 938.004 251.081C937.964 250.253 938.602 249.55 939.43 249.51L939.575 252.506ZM978.504 249.112L978.766 250.589L978.672 250.606L978.577 250.61L978.504 249.112ZM939.43 249.51L978.431 247.614L978.577 250.61L939.575 252.506L939.43 249.51ZM978.243 247.635L999.646 243.844L1000.17 246.798L978.766 250.589L978.243 247.635Z" fill="#661156"/>
<path d="M1181.04 64.7572L1131.87 64.7572C1130.21 64.7572 1128.87 66.1003 1128.87 67.7572L1128.87 71.1301C1128.87 72.2055 1129.45 73.1987 1130.38 73.7332L1150.87 85.4705C1151.38 85.7625 1151.79 86.1977 1152.06 86.7221L1153.65 89.8767C1154.75 92.0565 1157.85 92.0794 1158.98 89.9162L1160.85 86.359C1161.12 85.8413 1161.53 85.4139 1162.04 85.1295L1182.5 73.727C1183.45 73.1973 1184.04 72.1945 1184.04 71.1065L1184.04 67.7572C1184.04 66.1003 1182.7 64.7572 1181.04 64.7572Z" fill="#C87F9A" stroke="#661156" stroke-width="4"/>
<path d="M1179.69 62.8606L1179.69 64.2041L1134.17 64.2041L1134.17 62.8606C1134.17 61.7128 1134.68 60.6347 1135.79 59.6011C1136.91 58.5463 1138.6 57.597 1140.77 56.8061C1145.1 55.2265 1150.98 54.4086 1156.93 54.4083C1162.89 54.4081 1168.76 55.2256 1173.09 56.8051C1175.26 57.5959 1176.95 58.5452 1178.08 59.6001C1179.18 60.6338 1179.69 61.7122 1179.69 62.8606Z" fill="#8262A1" stroke="#661156" stroke-width="3"/>
<path d="M1071.03 34.9092H1084.32L1084.77 57.8741L1071.03 80.8391V34.9092Z" fill="#661156"/>
<path d="M1066.15 248.659V243.36V237.177" stroke="#661156" stroke-width="3"/>
<path d="M1059.5 248.659L1059.09 243.36L1058.62 237.177" stroke="#661156" stroke-width="3"/>
<path d="M1065.26 248.659L1065.26 236.735L1059.06 236.735L1059.5 249.984L1065.26 248.659Z" fill="#FCFBE4" stroke="#661156"/>
<rect x="1059.5" y="228.344" width="5.31878" height="9.71595" fill="#FCFBE4"/>
<path d="M1059.95 249.102L1064.82 245.127V254.843H1060.39L1059.95 249.102Z" fill="#FCFBE4"/>
<path d="M880.408 315.787H864.423C864.025 315.787 863.625 315.838 863.254 315.983C862.087 316.438 861.689 316.993 861.442 317.98C861.384 318.209 861.36 318.445 861.358 318.68C861.347 319.784 861.428 321.199 862.139 321.976L862.745 322.625C863.437 323.366 863.822 324.342 863.822 325.356V333.322C863.822 334.445 863.35 335.516 862.522 336.273L851.456 346.395C850.628 347.153 850.156 348.224 850.156 349.347V427.963C850.156 442.095 896.696 445.627 896.696 427.962V374.5V366.567V347.585L883.64 336.28C882.763 335.521 882.258 334.417 882.258 333.256V324.456C882.258 323.507 882.815 322.645 883.68 322.254C884.084 322.072 884.453 321.791 884.605 321.375C884.978 320.359 884.778 319.15 884.445 318.202C884.354 317.944 884.222 317.702 884.056 317.484C883.371 316.584 882.669 316.141 881.048 315.842C880.837 315.803 880.622 315.787 880.408 315.787Z" fill="#FCFBE4"/>
<path d="M896.696 347.585V366.567M896.696 347.585V427.962C896.696 445.627 850.156 442.095 850.156 427.963V349.347C850.156 348.224 850.628 347.153 851.456 346.395L862.522 336.273C863.35 335.516 863.822 334.445 863.822 333.322V325.356C863.822 324.342 863.437 323.366 862.745 322.625L862.139 321.976C861.428 321.199 861.347 319.784 861.358 318.68C861.36 318.445 861.384 318.209 861.442 317.98C861.689 316.993 862.087 316.438 863.254 315.983C863.625 315.838 864.025 315.787 864.423 315.787H880.408C880.622 315.787 880.837 315.803 881.048 315.842C882.669 316.141 883.371 316.584 884.056 317.484C884.222 317.702 884.354 317.944 884.445 318.202C884.778 319.15 884.978 320.359 884.605 321.375C884.453 321.791 884.084 322.072 883.68 322.254V322.254C882.815 322.645 882.258 323.507 882.258 324.456V333.256C882.258 334.417 882.763 335.521 883.64 336.28L896.696 347.585ZM872.815 378.5H892.696C894.905 378.5 896.696 376.709 896.696 374.5V366.567M878.311 366.567H896.696" stroke="#661156" stroke-width="4" stroke-linecap="round"/>
<path d="M850.597 427.964C851.041 442.096 896.253 443.42 896.253 428.405L896.253 391.887C896.253 390.439 895.476 389.08 894.134 388.526C883.65 384.204 863.239 384.505 852.796 388.554C851.412 389.091 850.597 390.47 850.597 391.954L850.597 427.964Z" fill="#3C9BA1" stroke="#661156" stroke-width="5"/>
<path d="M872.69 393.724C871.586 393.724 870.69 394.619 870.69 395.724C870.69 396.828 871.586 397.724 872.69 397.724L872.69 393.724ZM888.939 389.243C890.578 389.753 890.898 390.305 890.897 390.301C890.748 389.919 891.228 390.033 890.254 390.729C889.313 391.402 887.498 392.171 884.531 392.761C881.603 393.344 877.694 393.724 872.69 393.724L872.69 397.724C877.881 397.724 882.062 397.331 885.311 396.685C888.521 396.046 890.973 395.132 892.58 393.983C894.155 392.858 895.466 391.012 894.624 388.85C893.93 387.066 892.034 386.017 890.128 385.424L888.939 389.243Z" fill="#661156"/>
</svg>
