<svg width="260" height="285" viewBox="0 0 260 285" fill="none" xmlns="http://www.w3.org/2000/svg">
<path d="M249.335 3.00003L10.7321 3.00004C5.94848 3.00004 2.5741 7.69132 4.09563 12.2265L19.93 59.424C20.8868 62.2758 23.5585 64.1975 26.5665 64.1975L67.1664 64.1975C71.0324 64.1975 74.1664 61.0635 74.1664 57.1975L74.1664 33.5668C74.1664 29.7008 77.3004 26.5668 81.1664 26.5668L101.51 26.5668C105.376 26.5668 108.51 29.7008 108.51 33.5668L108.51 122.354L108.51 193.111C108.51 196.977 105.376 200.111 101.51 200.111L81.1664 200.111C77.3004 200.111 74.1664 196.977 74.1664 193.111L74.1664 178.503C74.1664 177.57 74.3528 176.647 74.7146 175.787L75.6767 173.502C77.6186 168.888 74.2308 163.786 69.2249 163.786L26.2802 163.786C21.1331 163.786 17.7462 169.154 19.9621 173.8L20.8495 175.66C21.2985 176.601 21.5315 177.631 21.5315 178.674L21.5315 275C21.5315 278.866 24.6655 282 28.5315 282L249.335 282C253.201 282 256.335 278.866 256.335 275L256.335 142.5L256.335 10C256.335 6.13403 253.201 3.00003 249.335 3.00003Z" fill="#C87F9A" stroke="#661156" stroke-width="6"/>
<rect x="149.086" y="114.211" width="70.406" height="32.2507" rx="6.5" fill="#8262A1" stroke="#661156" stroke-width="5"/>
<rect x="157.292" y="119.553" width="53.9946" height="22.327" rx="2" stroke="#661156" stroke-width="2"/>
<line x1="210.786" y1="124.615" x2="157.792" y2="124.615" stroke="#661156" stroke-width="3" stroke-linecap="round"/>
<line x1="210.786" y1="131.457" x2="157.792" y2="131.457" stroke="#661156" stroke-width="3" stroke-linecap="round"/>
<line x1="210.786" y1="138.298" x2="157.792" y2="138.298" stroke="#661156" stroke-width="3" stroke-linecap="round"/>
<line x1="165.244" y1="141.378" x2="165.244" y2="120.051" stroke="#661156" stroke-width="3" stroke-linecap="round"/>
<line x1="177.189" y1="136.821" x2="177.189" y2="120.056" stroke="#661156" stroke-width="3" stroke-linecap="round"/>
<line x1="189.135" y1="137.577" x2="189.135" y2="120.051" stroke="#661156" stroke-width="3" stroke-linecap="round"/>
<line x1="201.081" y1="141.378" x2="201.081" y2="120.051" stroke="#661156" stroke-width="3" stroke-linecap="round"/>
<path d="M67.4719 110.875C67.5557 110.946 67.598 110.996 67.6172 111.022L67.6083 111.118L67.6083 111.223L67.6083 163.633C62.1152 166.876 53.9068 168.599 46.1986 168.7C42.1381 168.754 38.348 168.354 35.3126 167.557C32.1863 166.735 30.2374 165.591 29.3796 164.458C29.3756 164.453 29.3466 164.414 29.3181 164.3C29.288 164.181 29.266 164.009 29.266 163.772L29.266 119.581C29.266 117.929 28.7015 116.326 27.666 115.038L25.9125 116.448L27.666 115.038L26.386 113.446C25.1187 111.87 25.9288 109.511 27.8971 109.046L27.8972 109.046L27.9812 109.027C27.9813 109.027 27.9813 109.027 27.9813 109.027C28.1903 108.977 28.3979 108.953 28.613 108.952C31.5619 108.943 34.7639 108.874 38.0413 108.803C43.9399 108.676 50.0829 108.543 55.4343 108.749C59.5918 108.908 63.0241 109.269 65.3255 109.924C66.4897 110.255 67.1518 110.605 67.4719 110.875Z" fill="#FCFBE4" stroke="#661156" stroke-width="4.5"/>
<path d="M67.8208 126.307L68.5674 164.171C68.5674 170.404 35.1729 175.89 28.3428 164.878L28.6081 128.561C28.6186 127.128 29.2251 125.731 30.5239 125.124C39.9884 120.702 67.8208 122.324 67.8208 126.307Z" fill="#8262A1"/>
<path d="M28.3428 164.878L28.6081 128.561C28.6186 127.128 29.2251 125.731 30.5239 125.124C39.9884 120.702 67.8208 122.324 67.8208 126.307L68.5674 164.171M28.3428 164.878C28.5043 166.833 28.3427 161.554 28.3428 164.878ZM28.3428 164.878C35.1729 175.89 68.5674 170.404 68.5674 164.171M68.5674 164.171C68.5674 161.262 68.5674 168.534 68.5674 164.171Z" stroke="#661156" stroke-width="4.5"/>
<path d="M61.1963 134.417L53.7047 134.417" stroke="#661156" stroke-width="3" stroke-linecap="round"/>
<path d="M59.3232 138.706L55.5775 138.706" stroke="#661156" stroke-width="3" stroke-linecap="round"/>
<path d="M59.3232 147.288L55.5775 147.288" stroke="#661156" stroke-width="3" stroke-linecap="round"/>
<path d="M59.3232 155.87L55.5775 155.87" stroke="#661156" stroke-width="3" stroke-linecap="round"/>
<path d="M61.1963 142.996L53.7047 142.996" stroke="#661156" stroke-width="3" stroke-linecap="round"/>
<path d="M61.1963 151.581L53.7047 151.581" stroke="#661156" stroke-width="3" stroke-linecap="round"/>
<path d="M61.1963 160.159L53.7047 160.159" stroke="#661156" stroke-width="3" stroke-linecap="round"/>
<path d="M68.3066 126.63C68.3066 129.347 59.3133 128.895 47.4801 128.894" stroke="#661156" stroke-width="3.5" stroke-linecap="round"/>
<rect x="131.668" y="27.2861" width="105.243" height="75.3433" rx="6" fill="#FCFBE4" stroke="#661156" stroke-width="6"/>
<path d="M227.965 90.043L140.613 90.043" stroke="#661156" stroke-width="4" stroke-linecap="round"/>
<rect x="145.839" y="42.5312" width="15.6785" height="41.812" rx="2" fill="#3C9BA1"/>
<rect x="166.744" y="61.5381" width="15.6785" height="22.8065" rx="2" fill="#C87F9A"/>
<rect x="187.649" y="74.46" width="15.6785" height="9.88284" rx="2" fill="#49A078"/>
<rect x="208.554" y="49.373" width="15.6785" height="34.97" rx="2" fill="#8262A1"/>
<line x1="217.02" y1="87.625" x2="217.02" y2="92.467" stroke="#661156" stroke-width="2" stroke-linecap="round"/>
<line x1="196.115" y1="87.625" x2="196.115" y2="92.467" stroke="#661156" stroke-width="2" stroke-linecap="round"/>
<line x1="175.21" y1="87.625" x2="175.21" y2="92.467" stroke="#661156" stroke-width="2" stroke-linecap="round"/>
<line x1="154.306" y1="87.625" x2="154.306" y2="92.467" stroke="#661156" stroke-width="2" stroke-linecap="round"/>
<path d="M227.965 161.124L140.613 161.124" stroke="#661156" stroke-width="8" stroke-linecap="round"/>
<path d="M38.3521 241V227H52.3521V229H42.3521V233H50.3521V235H42.3521V241H38.3521ZM56.3521 241V239H60.3521V229H58.3521V227H64.3521V239H68.3521V241H56.3521ZM72.3521 241V239H70.3521V237H72.3521V235H80.3521V233H72.3521V231H82.3521V233H84.3521V241H72.3521ZM74.3521 239H80.3521V237H74.3521V239ZM92.3521 241V239H90.3521V237H88.3521V231H92.3521V237H96.3521V231H100.352V237H98.3521V239H96.3521V241H92.3521ZM104.352 241V239H102.352V233H104.352V231H114.352V233H116.352V239H114.352V241H104.352ZM106.352 239H112.352V233H106.352V239ZM124.352 233H126.352V235H124.352V241H120.352V231H124.352V233ZM132.352 231V233H126.352V231H132.352ZM40.3521 265V263H38.3521V261H42.3521V263H48.3521V259H40.3521V257H38.3521V253H40.3521V251H50.3521V253H52.3521V255H48.3521V253H42.3521V257H50.3521V259H52.3521V263H50.3521V265H40.3521ZM54.3521 267V255H66.3521V257H68.3521V261H66.3521V263H58.3521V267H54.3521ZM58.3521 261H64.3521V257H58.3521V261ZM72.3521 265V263H70.3521V257H72.3521V255H82.3521V257H84.3521V261H74.3521V263H82.3521V265H72.3521ZM74.3521 259H80.3521V257H74.3521V259ZM88.3521 265V263H86.3521V257H88.3521V255H100.352V257H90.3521V263H100.352V265H88.3521ZM108.352 265V257H104.352V255H108.352V251H112.352V255H116.352V257H112.352V265H108.352ZM124.352 257H126.352V259H124.352V265H120.352V255H124.352V257ZM132.352 255V257H126.352V255H132.352ZM136.352 265V263H134.352V257H136.352V255H146.352V257H148.352V263H146.352V265H136.352ZM138.352 263H144.352V257H138.352V263ZM150.352 265V255H162.352V257H164.352V265H160.352V257H158.352V265H154.352V257H152.352V265H150.352ZM168.352 265V263H166.352V257H168.352V255H178.352V257H180.352V261H170.352V263H178.352V265H168.352ZM170.352 259H176.352V257H170.352V259ZM188.352 265V257H184.352V255H188.352V251H192.352V255H196.352V257H192.352V265H188.352ZM200.352 265V263H198.352V257H200.352V255H210.352V257H212.352V261H202.352V263H210.352V265H200.352ZM202.352 259H208.352V257H202.352V259ZM220.352 257H222.352V259H220.352V265H216.352V255H220.352V257ZM228.352 255V257H222.352V255H228.352Z" fill="#FCFBE4"/>
<path d="M21.5316 165.916L21.5317 65.3389C23.0991 66.3431 24.1032 66.5267 26.0113 66.4792L68.9405 66.4792C70.5827 66.4433 71.5535 66.0991 72.6734 65.3389C72.6734 65.3389 74.0619 162.062 72.6735 165.916C71.285 169.769 60.4824 176.827 48.1025 177.091C34.3953 176.761 21.5316 168.228 21.5316 165.916Z" fill="#3C9BA1" fill-opacity="0.5"/>
<path d="M156.292 160.364L156.292 209.38C156.292 213.798 159.874 217.38 164.292 217.38L208.02 217.38C212.438 217.38 216.02 213.798 216.02 209.38L216.02 160.364L156.292 160.364Z" fill="#FCFBE4" stroke="#661156" stroke-width="4"/>
<path d="M208.553 168.88L163.758 168.88" stroke="#661156" stroke-width="4" stroke-linecap="round"/>
<path d="M208.553 175.174L163.758 175.174" stroke="#661156" stroke-width="4" stroke-linecap="round"/>
<path d="M208.553 181.468L163.758 181.468" stroke="#661156" stroke-width="4" stroke-linecap="round"/>
<path d="M208.553 187.762L163.758 187.762" stroke="#661156" stroke-width="4" stroke-linecap="round"/>
<path d="M208.553 194.056L163.758 194.056" stroke="#661156" stroke-width="4" stroke-linecap="round"/>
<path d="M208.553 200.349L163.758 200.349" stroke="#661156" stroke-width="4" stroke-linecap="round"/>
<path d="M208.553 206.644L163.758 206.644" stroke="#661156" stroke-width="4" stroke-linecap="round"/>
</svg>
