<svg width="476" height="507" viewBox="0 0 476 507" fill="none" xmlns="http://www.w3.org/2000/svg">
<path d="M84.9053 338.639L229.682 431.689C235.012 435.115 241.861 435.073 247.149 431.582L392.095 335.887C396.581 332.925 399.28 327.91 399.28 322.535L399.28 176.342C399.28 171.115 396.726 166.217 392.44 163.224L249.066 63.1032C243.608 59.2913 236.359 59.2581 230.866 63.0197L84.5159 163.234C80.16 166.217 77.5558 171.156 77.5558 176.436L77.556 325.179C77.556 330.624 80.3249 335.695 84.9053 338.639Z" fill="#3C9BA1"/>
<path d="M158.177 78.867L206.531 78.867C208.74 78.867 210.531 80.6578 210.531 82.867L210.531 88.2435C210.531 88.9685 210.334 89.6798 209.961 90.3015L197.935 110.344C197.212 111.549 195.91 112.286 194.505 112.286L170.202 112.286C168.797 112.286 167.495 111.549 166.772 110.344L154.747 90.3015C154.374 89.6798 154.177 88.9685 154.177 88.2435L154.177 82.867C154.177 80.6578 155.968 78.867 158.177 78.867Z" fill="#C87F9A" stroke="#661156" stroke-width="4"/>
<path d="M192.183 127.357H173.835C170.578 127.357 167.937 124.717 167.937 121.46C167.937 118.203 170.578 115.562 173.835 115.562H192.183C195.44 115.562 198.08 118.203 198.08 121.46C198.08 124.717 195.44 127.357 192.183 127.357Z" fill="#C87F9A" stroke="#661156" stroke-width="3"/>
<path d="M175.911 8.22336L175.911 426.499C175.911 431.628 171.151 435.433 166.147 434.302L164.997 434.042C164.418 433.911 163.826 433.845 163.233 433.845H151.83C147.411 433.845 143.83 437.427 143.83 441.845V452.894C143.83 456.868 146.747 460.239 150.679 460.811L170.413 463.678C173.719 464.159 176.314 466.671 177.425 469.821C183.791 487.879 200.899 499.569 211.494 504.189C215.544 505.955 219.122 502.851 219.122 498.433V492.529C219.122 489.968 217.893 487.556 215.812 486.063C203.773 477.431 195.488 471.853 202.099 470.47C263.267 457.673 298.866 457.044 357.422 468.513C362.403 469.488 367.087 465.703 367.087 460.628V454.499C367.087 450.636 364.32 447.322 360.52 446.631C298.073 435.268 274.041 432.096 208.361 444.071C206.858 444.345 205.275 444.193 203.859 443.617L197.886 441.187C194.888 439.968 192.921 437.062 192.901 433.825L190.357 8.18021C190.333 4.20776 187.106 1 183.134 1C179.145 1 175.911 4.23401 175.911 8.22336Z" fill="#661156" stroke="#661156"/>
<path d="M280.977 313.947H260.163C259.764 313.947 259.364 314.001 258.989 314.139C257.324 314.752 256.802 315.495 256.475 316.878C256.421 317.106 256.396 317.341 256.393 317.576C256.373 319.014 256.459 320.906 257.396 321.933L258.488 323.106C259.177 323.847 259.56 324.82 259.56 325.832V338.14C259.56 338.609 259.478 339.074 259.317 339.514L217.083 454.996L215.059 460.159C214.338 461.996 215.074 464.093 216.793 465.061C258.229 488.37 289.948 488.948 330.193 465.087C331.858 464.1 332.553 462.039 331.846 460.237L329.791 454.996L283.266 338.848V325.126C283.266 323.905 283.981 322.797 285.093 322.293C285.612 322.057 286.087 321.694 286.283 321.158C286.778 319.806 286.489 318.19 286.037 316.95C285.943 316.693 285.811 316.452 285.649 316.232C284.731 314.989 283.826 314.397 281.62 314.001C281.408 313.963 281.192 313.947 280.977 313.947Z" fill="#FCFBE4"/>
<path d="M283.266 338.848L299.342 379.476M283.266 338.848V325.126C283.266 323.905 283.981 322.797 285.093 322.293V322.293C285.612 322.057 286.087 321.694 286.283 321.158C286.778 319.806 286.489 318.19 286.037 316.95C285.943 316.693 285.811 316.452 285.649 316.232C284.731 314.989 283.826 314.397 281.62 314.001C281.408 313.963 281.192 313.947 280.977 313.947H260.163C259.764 313.947 259.364 314.001 258.989 314.139C257.324 314.752 256.802 315.495 256.475 316.878C256.421 317.106 256.396 317.341 256.393 317.576C256.373 319.014 256.459 320.906 257.396 321.933L258.488 323.106C259.177 323.847 259.56 324.82 259.56 325.832V338.14C259.56 338.609 259.478 339.074 259.317 339.514L217.083 454.996L215.059 460.159C214.338 461.996 215.074 464.093 216.793 465.061C258.229 488.37 289.948 488.948 330.193 465.087C331.858 464.1 332.553 462.039 331.846 460.237L329.791 454.996L283.266 338.848ZM271.124 394.875H304.89V394.875C305.151 394.875 305.33 394.611 305.234 394.368L299.342 379.476M278.191 379.476H299.342" stroke="#661156" stroke-width="5" stroke-linecap="round"/>
<path d="M310.788 260.051V298.309C310.788 299.592 310.2 300.859 309.044 301.416C305.952 302.907 303.65 301.689 299.908 298.778C299.575 298.519 299.286 298.205 299.053 297.854L293.538 289.554C292.846 288.514 291.709 287.856 290.463 287.776L246.383 284.945C244.278 284.809 242.64 283.062 242.64 280.953V280.091C242.64 277.97 244.295 276.218 246.413 276.097L290 273.626C291.498 273.541 292.823 272.624 293.431 271.252L298.908 258.881C299.232 258.149 299.764 257.52 300.464 257.133C303.547 255.425 305.751 255.308 308.761 256.687C310.052 257.279 310.788 258.631 310.788 260.051Z" fill="#C87F9A" stroke="#661156" stroke-width="3"/>
<path d="M235.085 95.9042L140.416 95.9042C138.969 95.9042 137.795 97.0777 137.795 98.5253C137.795 99.9729 138.969 101.146 140.416 101.146L235.262 101.146C236.217 101.146 237.14 101.488 237.865 102.109L245.011 108.234C245.601 108.74 246.326 109.063 247.097 109.164L274.994 112.803C275.691 112.894 276.4 112.799 277.05 112.528L299.027 103.371C299.403 103.214 299.648 102.847 299.648 102.439C299.648 101.783 299.031 101.301 298.394 101.46L277.015 106.805C276.387 106.962 275.73 106.964 275.1 106.811L254.868 101.889C253.075 101.453 251.813 99.8477 251.813 98.0027L251.813 96.6867C251.813 94.7247 253.236 93.0523 255.173 92.7383L275.193 89.4918C275.763 89.3993 276.347 89.4315 276.904 89.5862L298.36 95.5462C299.008 95.7261 299.648 95.239 299.648 94.5667C299.648 94.1816 299.431 93.8296 299.086 93.6574L277.194 82.7111C276.455 82.3417 275.62 82.2101 274.803 82.3344L247.214 86.5328C246.371 86.6611 245.59 87.0557 244.987 87.6588L237.913 94.7326C237.163 95.4828 236.146 95.9042 235.085 95.9042Z" fill="#C87F9A" stroke="#661156" stroke-width="3"/>
<path d="M286.344 288.611L281.34 291.035C279.699 291.83 278.621 293.456 278.527 295.277L276.736 329.9C276.721 330.186 276.682 330.471 276.618 330.75L273.808 343.114C273.591 344.069 272.742 344.746 271.763 344.746C270.817 344.746 269.988 344.113 269.739 343.201L266.36 330.808C266.273 330.49 266.218 330.165 266.195 329.836L263.807 295.216C263.684 293.427 262.613 291.842 260.999 291.06L255.944 288.611C254.219 287.775 253.124 286.028 253.124 284.111L253.124 274.507C253.124 273.418 253.48 272.358 254.137 271.49L256.697 268.107C257.355 267.238 257.71 266.179 257.71 265.089L257.71 24.6075C257.71 23.5655 257.385 22.5495 256.779 21.7015L256.632 21.4952C255.337 19.6827 255.429 17.2248 256.855 15.5136C257.415 14.8413 258.143 14.325 258.976 14.0577C267.395 11.3572 276.718 11.352 283.526 14.0411C284.226 14.3173 284.827 14.7867 285.308 15.3643L285.382 15.4526C286.838 17.1997 286.931 19.7093 285.609 21.5599L285.508 21.7014C284.903 22.5494 284.577 23.5655 284.577 24.6077L284.577 265.089C284.577 266.179 284.933 267.238 285.59 268.107L288.151 271.49C288.808 272.358 289.164 273.418 289.164 274.507L289.164 284.111C289.164 286.027 288.069 287.775 286.344 288.611Z" fill="#FCFBE4" stroke="#661156" stroke-width="5"/>
<path d="M258.366 43.3174C268.195 47.9043 274.748 47.9043 283.922 43.3174" stroke="#661156" stroke-width="2" stroke-linecap="round"/>
<path d="M264.919 53.8018C268.851 55.7676 274.093 55.7676 278.024 53.8018" stroke="#661156" stroke-width="2" stroke-linecap="round"/>
<path d="M264.919 85.2549C268.851 87.2207 274.093 87.2207 278.024 85.2549" stroke="#661156" stroke-width="2" stroke-linecap="round"/>
<path d="M264.919 116.708C268.851 118.674 274.093 118.674 278.024 116.708" stroke="#661156" stroke-width="2" stroke-linecap="round"/>
<path d="M264.919 148.162C268.851 150.128 274.093 150.128 278.024 148.162" stroke="#661156" stroke-width="2" stroke-linecap="round"/>
<path d="M264.919 179.615C268.851 181.581 274.093 181.581 278.024 179.615" stroke="#661156" stroke-width="2" stroke-linecap="round"/>
<path d="M264.919 211.068C268.851 213.034 274.093 213.034 278.024 211.068" stroke="#661156" stroke-width="2" stroke-linecap="round"/>
<path d="M264.919 242.522C268.851 244.488 274.093 244.488 278.024 242.522" stroke="#661156" stroke-width="2" stroke-linecap="round"/>
<path d="M264.919 60.3545C268.851 62.3203 274.093 62.3203 278.024 60.3545" stroke="#661156" stroke-width="2" stroke-linecap="round"/>
<path d="M264.919 91.8076C268.851 93.7734 274.093 93.7734 278.024 91.8076" stroke="#661156" stroke-width="2" stroke-linecap="round"/>
<path d="M264.919 123.261C268.851 125.227 274.093 125.227 278.024 123.261" stroke="#661156" stroke-width="2" stroke-linecap="round"/>
<path d="M264.919 154.714C268.851 156.68 274.093 156.68 278.024 154.714" stroke="#661156" stroke-width="2" stroke-linecap="round"/>
<path d="M264.919 186.167C268.851 188.133 274.093 188.133 278.024 186.167" stroke="#661156" stroke-width="2" stroke-linecap="round"/>
<path d="M264.919 217.621C268.851 219.587 274.093 219.587 278.024 217.621" stroke="#661156" stroke-width="2" stroke-linecap="round"/>
<path d="M264.919 249.074C268.851 251.04 274.093 251.04 278.024 249.074" stroke="#661156" stroke-width="2" stroke-linecap="round"/>
<path d="M264.919 66.9072C268.851 68.8731 274.093 68.8731 278.024 66.9072" stroke="#661156" stroke-width="2" stroke-linecap="round"/>
<path d="M264.919 98.3613C268.851 100.327 274.093 100.327 278.024 98.3613" stroke="#661156" stroke-width="2" stroke-linecap="round"/>
<path d="M264.919 129.814C268.851 131.78 274.093 131.78 278.024 129.814" stroke="#661156" stroke-width="2" stroke-linecap="round"/>
<path d="M264.919 161.268C268.851 163.233 274.093 163.233 278.024 161.268" stroke="#661156" stroke-width="2" stroke-linecap="round"/>
<path d="M264.919 192.72C268.851 194.686 274.093 194.686 278.024 192.72" stroke="#661156" stroke-width="2" stroke-linecap="round"/>
<path d="M264.919 224.173C268.851 226.139 274.093 226.139 278.024 224.173" stroke="#661156" stroke-width="2" stroke-linecap="round"/>
<path d="M264.919 255.627C268.851 257.593 274.093 257.593 278.024 255.627" stroke="#661156" stroke-width="2" stroke-linecap="round"/>
<path d="M258.366 74.7715C268.195 79.3584 274.748 79.3584 283.922 74.7715" stroke="#661156" stroke-width="2" stroke-linecap="round"/>
<path d="M258.366 137.678C268.195 142.265 274.748 142.265 283.922 137.678" stroke="#661156" stroke-width="2" stroke-linecap="round"/>
<path d="M258.366 169.131C268.195 173.718 274.748 173.718 283.922 169.131" stroke="#661156" stroke-width="2" stroke-linecap="round"/>
<path d="M258.366 200.583C268.195 205.17 274.748 205.17 283.922 200.583" stroke="#661156" stroke-width="2" stroke-linecap="round"/>
<path d="M258.366 232.037C268.195 236.624 274.748 236.624 283.922 232.037" stroke="#661156" stroke-width="2" stroke-linecap="round"/>
<path d="M218.158 463.284C256.275 488.461 288.559 488.522 329.481 464.606C331.174 463.617 331.875 461.526 331.144 459.708L311.575 411.09C311.084 409.871 310.018 408.967 308.734 408.687C281.054 402.646 265.408 403.349 236.322 409.341C234.96 409.621 233.838 410.596 233.369 411.904L216.627 458.65C216.014 460.361 216.641 462.282 218.158 463.284Z" fill="#8262A1" stroke="#661156" stroke-width="6"/>
<path d="M244.116 415.405C242.865 414.82 241.377 415.359 240.791 416.609C240.206 417.859 240.745 419.348 241.995 419.933L244.116 415.405ZM309.531 413.257C309.69 413.35 309.372 413.217 309.241 412.709C309.106 412.188 309.323 411.878 309.275 411.956C309.103 412.229 308.375 412.931 306.636 413.877C303.339 415.669 297.758 417.627 290.856 419.029C277.029 421.839 258.742 422.255 244.116 415.405L241.995 419.933C257.989 427.424 277.501 426.845 291.852 423.929C299.039 422.469 305.141 420.381 309.024 418.27C310.873 417.265 312.608 416.051 313.511 414.611C314 413.831 314.407 412.715 314.082 411.458C313.761 410.215 312.873 409.417 312.049 408.937L309.531 413.257Z" fill="#661156"/>
<path d="M283 110.5L276 113L255 110" stroke="#661156" stroke-width="3"/>
<path d="M126 108.355V90.0069C126 86.7498 128.64 84.1094 131.897 84.1094C135.155 84.1094 137.795 86.7498 137.795 90.0069V108.355C137.795 111.612 135.155 114.252 131.897 114.252C128.64 114.252 126 111.612 126 108.355Z" fill="#C87F9A" stroke="#661156" stroke-width="3"/>
<path d="M310.788 260.051V298.309C310.788 299.592 310.2 300.859 309.044 301.416C305.952 302.907 303.65 301.689 299.908 298.778C299.575 298.519 299.286 298.205 299.053 297.854L293.538 289.554C292.846 288.514 291.709 287.856 290.463 287.776L246.383 284.945C244.278 284.809 242.64 283.062 242.64 280.953V280.091C242.64 277.97 244.295 276.218 246.413 276.097L290 273.626C291.498 273.541 292.823 272.624 293.431 271.252L298.908 258.881C299.232 258.149 299.764 257.52 300.464 257.133C303.547 255.425 305.751 255.308 308.761 256.687C310.052 257.279 310.788 258.631 310.788 260.051Z" fill="#C87F9A" stroke="#661156" stroke-width="3"/>
<path d="M286.344 288.611L281.34 291.035C279.699 291.83 278.621 293.456 278.527 295.277L276.736 329.9C276.721 330.186 276.682 330.471 276.618 330.75L273.808 343.114C273.591 344.069 272.742 344.746 271.763 344.746C270.817 344.746 269.988 344.113 269.739 343.201L266.36 330.808C266.273 330.49 266.218 330.165 266.195 329.836L263.807 295.216C263.684 293.427 262.613 291.842 260.999 291.06L255.944 288.611C254.219 287.775 253.124 286.028 253.124 284.111L253.124 274.507C253.124 273.418 253.48 272.358 254.137 271.49L256.697 268.107C257.355 267.238 257.71 266.179 257.71 265.089L257.71 24.6075C257.71 23.5655 257.385 22.5495 256.779 21.7015L256.632 21.4952C255.337 19.6827 255.429 17.2248 256.855 15.5136C257.415 14.8413 258.143 14.325 258.976 14.0577C267.395 11.3572 276.718 11.352 283.526 14.0411C284.226 14.3173 284.827 14.7867 285.308 15.3643L285.382 15.4526C286.838 17.1997 286.931 19.7093 285.609 21.5599L285.508 21.7014C284.903 22.5494 284.577 23.5655 284.577 24.6077L284.577 265.089C284.577 266.179 284.933 267.238 285.59 268.107L288.151 271.49C288.808 272.358 289.164 273.418 289.164 274.507L289.164 284.111C289.164 286.027 288.069 287.775 286.344 288.611Z" stroke="#661156" stroke-width="5"/>
<path d="M286.5 104L276 107L255.5 101.5" stroke="#661156" stroke-width="3"/>
<path d="M276.058 108.365L287.629 105.264L296.931 102.939L276.058 111.854L249.5 108L250.5 102L276.058 108.365Z" fill="#C87F9A"/>
</svg>
