<svg width="799" height="562" viewBox="0 0 799 562" fill="none" xmlns="http://www.w3.org/2000/svg">
<path d="M265 115H799L709 277L799 439H265V277V115Z" fill="#661156"/>
<path d="M271.936 494.471L111.703 386.619C104.25 381.601 99.7799 373.205 99.7799 364.22L99.7799 199.921C99.7799 191.121 104.068 182.873 111.272 177.819L273.213 64.1913C282.52 57.6605 294.922 57.6606 304.23 64.1917L466.16 177.819C473.363 182.873 477.651 191.121 477.651 199.92L477.651 364.036C477.651 373.107 473.097 381.571 465.528 386.569L301.889 494.604C292.793 500.61 280.978 500.557 271.936 494.471Z" fill="#FCFBE4" stroke="#661156" stroke-width="10"/>
</svg>
