<svg width="365" height="120" viewBox="0 0 365 120" fill="none" xmlns="http://www.w3.org/2000/svg">
<path d="M197.726 48.2354L174.98 32.9412L152.235 48.2353" stroke="#661156" stroke-width="5" stroke-linecap="round"/>
<path d="M197.726 71.3721L174.98 86.6662L152.235 71.3721" stroke="#661156" stroke-width="5" stroke-linecap="round"/>
<path d="M197.726 71.3721L197.726 48.627" stroke="#661156" stroke-width="5" stroke-linecap="round"/>
<path d="M152.235 71.3721L152.235 48.627" stroke="#661156" stroke-width="5" stroke-linecap="round"/>
<circle cx="132.235" cy="32.5488" r="8.23529" fill="#661156"/>
<circle cx="175.372" cy="111.765" r="8.23529" fill="#661156"/>
<circle cx="232.627" cy="16.0781" r="8.23529" fill="#661156"/>
<circle cx="175.372" cy="8.23529" r="5.73529" fill="#FCFBE4" stroke="#661156" stroke-width="5"/>
<circle cx="134.588" cy="88.2353" r="5.73529" fill="#FCFBE4" stroke="#661156" stroke-width="5"/>
<path d="M197.726 48.2394L224.784 37.255L240.021 62.0338" stroke="#661156" stroke-width="5" stroke-linecap="round"/>
<path d="M197.729 71.3424L224 83.9218L240.094 62.4438" stroke="#661156" stroke-width="5" stroke-linecap="round"/>
<path d="M174.98 32.9414L174.98 16.4708" stroke="#661156" stroke-width="5" stroke-linecap="round"/>
<path d="M151.451 47.0586L137.995 37.5603" stroke="#661156" stroke-width="5" stroke-linecap="round"/>
<path d="M152.358 73.0273L140.471 83.1369" stroke="#661156" stroke-width="5" stroke-linecap="round"/>
<path d="M224.392 37.6475L230.509 22.3549" stroke="#661156" stroke-width="5" stroke-linecap="round"/>
<path d="M174.98 103.529L174.98 87.0587" stroke="#661156" stroke-width="5" stroke-linecap="round"/>
<path d="M239.07 61.7512L224 38.8238L198.118 49.0202L198.118 69.8043L223.609 81.9621L239.07 61.7512Z" fill="#FCFBE4" stroke="#661156"/>
<path d="M204.784 68.2354V51.7648" stroke="#661156" stroke-width="5" stroke-linecap="round"/>
<path d="M221.255 76.0049L231.025 62.7451" stroke="#661156" stroke-width="5" stroke-linecap="round"/>
<path d="M197.487 48.0001L174.969 32.3884L152.384 47.9978L152.385 71.5293L174.969 86.4312L197.487 71.5293L197.487 48.0001Z" fill="#FCFBE4" stroke="#661156" stroke-width="5"/>
<path d="M25.024 76.352H21.568V59.104L15.296 76.352H11.84L5.536 59.04V76.352H2.08V53.28H7.104L13.536 70.976L20 53.28H25.024V76.352ZM47.0618 67.616C47.0618 67.8507 47.0404 68.1067 46.9978 68.384C46.9764 68.6613 46.9444 68.9813 46.9018 69.344H32.2138C32.5551 70.4747 33.1951 71.4133 34.1338 72.16C35.2218 73.0133 36.4271 73.44 37.7498 73.44C39.5844 73.44 41.1418 72.6507 42.4218 71.072L45.3338 72.96C44.3951 74.1973 43.2538 75.168 41.9098 75.872C40.5871 76.5547 39.2004 76.896 37.7498 76.896C35.2111 76.896 33.0351 75.9787 31.2218 74.144C29.3871 72.3307 28.4698 70.1547 28.4698 67.616C28.4698 65.0773 29.3871 62.8907 31.2218 61.056C33.0351 59.2213 35.2111 58.304 37.7498 58.304C40.2884 58.304 42.4751 59.2213 44.3098 61.056C46.1444 62.8907 47.0618 65.0773 47.0618 67.616ZM34.1338 63.04C33.1951 63.808 32.5551 64.7467 32.2138 65.856H43.3178C42.9338 64.6827 42.2831 63.744 41.3658 63.04C40.3418 62.208 39.1364 61.792 37.7498 61.792C36.4271 61.792 35.2218 62.208 34.1338 63.04ZM59.7335 62.336H56.3735V81.952H52.8855V62.336H49.5255V58.88H52.8855V54.944H56.3735V58.88H59.7335V62.336ZM78.1245 76.352H74.6365V65.92C74.6365 64.7893 74.2418 63.808 73.4525 62.976C72.6205 62.1867 71.6392 61.792 70.5085 61.792C69.3352 61.792 68.3538 62.1867 67.5645 62.976C66.7538 63.7867 66.3485 64.768 66.3485 65.92V76.352H62.8925V53.28H66.3485V60.256C67.6285 58.9547 69.1965 58.304 71.0525 58.304C73.1005 58.304 74.7965 59.0933 76.1405 60.672C77.4632 62.1227 78.1245 63.872 78.1245 65.92V76.352ZM99.8743 67.616C99.8743 70.1547 98.9569 72.3307 97.1223 74.144C95.2876 75.9787 93.1009 76.896 90.5623 76.896C88.0236 76.896 85.8476 75.9787 84.0343 74.144C82.1996 72.3307 81.2823 70.1547 81.2823 67.616C81.2823 65.0773 82.1996 62.8907 84.0343 61.056C85.8476 59.2213 88.0236 58.304 90.5623 58.304C93.1009 58.304 95.2876 59.2213 97.1223 61.056C98.9569 62.8907 99.8743 65.0773 99.8743 67.616ZM96.3863 67.616C96.3863 65.9947 95.8209 64.6187 94.6903 63.488C93.5596 62.3573 92.1836 61.792 90.5623 61.792C88.9409 61.792 87.5649 62.3573 86.4343 63.488C85.3036 64.6187 84.7383 65.9947 84.7383 67.616C84.7383 69.2373 85.3036 70.6133 86.4343 71.744C87.5649 72.8747 88.9409 73.44 90.5623 73.44C92.1836 73.44 93.5596 72.8747 94.6903 71.744C95.8209 70.6133 96.3863 69.2373 96.3863 67.616ZM121.218 76.352H117.73V73.952C116.066 75.9147 113.943 76.896 111.362 76.896C108.845 76.896 106.754 75.9573 105.09 74.08C103.447 72.288 102.626 70.1333 102.626 67.616C102.626 65.0773 103.458 62.912 105.122 61.12C105.933 60.16 106.861 59.456 107.906 59.008C108.973 58.5387 110.125 58.304 111.362 58.304C113.901 58.304 116.023 59.2853 117.73 61.248V53.28H121.218V76.352ZM117.73 67.616C117.73 65.9947 117.165 64.6187 116.034 63.488C114.903 62.3573 113.527 61.792 111.906 61.792C110.285 61.792 108.909 62.3573 107.778 63.488C106.647 64.6187 106.082 65.9947 106.082 67.616C106.082 69.2373 106.647 70.6133 107.778 71.744C108.909 72.8747 110.285 73.44 111.906 73.44C113.527 73.44 114.903 72.8747 116.034 71.744C117.165 70.6133 117.73 69.2373 117.73 67.616Z" fill="#661156"/>
<path d="M276.016 72.864V73.344C273.605 75.712 270.757 76.896 267.472 76.896C264.144 76.896 261.285 75.7227 258.896 73.376C256.549 70.9653 255.376 68.1067 255.376 64.8C255.376 61.4933 256.56 58.656 258.928 56.288C261.317 53.8987 264.165 52.704 267.472 52.704C270.8 52.704 273.733 53.9733 276.272 56.512L273.776 58.88C271.941 57.088 269.84 56.192 267.472 56.192C265.083 56.192 263.045 57.024 261.36 58.688C259.675 60.416 258.832 62.4533 258.832 64.8C258.832 67.1467 259.675 69.184 261.36 70.912C263.088 72.5973 265.125 73.44 267.472 73.44C269.819 73.44 271.92 72.5333 273.776 70.72L276.016 72.864ZM297.874 67.616C297.874 70.1547 296.957 72.3307 295.122 74.144C293.288 75.9787 291.101 76.896 288.562 76.896C286.024 76.896 283.848 75.9787 282.034 74.144C280.2 72.3307 279.282 70.1547 279.282 67.616C279.282 65.0773 280.2 62.8907 282.034 61.056C283.848 59.2213 286.024 58.304 288.562 58.304C291.101 58.304 293.288 59.2213 295.122 61.056C296.957 62.8907 297.874 65.0773 297.874 67.616ZM294.386 67.616C294.386 65.9947 293.821 64.6187 292.69 63.488C291.56 62.3573 290.184 61.792 288.562 61.792C286.941 61.792 285.565 62.3573 284.434 63.488C283.304 64.6187 282.738 65.9947 282.738 67.616C282.738 69.2373 283.304 70.6133 284.434 71.744C285.565 72.8747 286.941 73.44 288.562 73.44C290.184 73.44 291.56 72.8747 292.69 71.744C293.821 70.6133 294.386 69.2373 294.386 67.616ZM309.426 53.504L307.826 56.64C307.399 56.32 307.069 56.16 306.834 56.16C306.535 56.16 306.279 56.2667 306.066 56.48C305.874 56.6933 305.778 56.9493 305.778 57.248V60.544H308.562V64.032H305.778V81.952H302.29V64.032H300.626V60.544H302.29V57.248C302.29 56.0107 302.738 54.944 303.634 54.048C304.53 53.152 305.597 52.704 306.834 52.704C307.687 52.704 308.551 52.9707 309.426 53.504ZM320.582 53.504L318.982 56.64C318.556 56.32 318.225 56.16 317.99 56.16C317.692 56.16 317.436 56.2667 317.222 56.48C317.03 56.6933 316.934 56.9493 316.934 57.248V60.544H319.718V64.032H316.934V81.952H313.446V64.032H311.782V60.544H313.446V57.248C313.446 56.0107 313.894 54.944 314.79 54.048C315.686 53.152 316.753 52.704 317.99 52.704C318.844 52.704 319.708 52.9707 320.582 53.504ZM341.531 67.616C341.531 67.8507 341.509 68.1067 341.467 68.384C341.445 68.6613 341.413 68.9813 341.371 69.344H326.683C327.024 70.4747 327.664 71.4133 328.603 72.16C329.691 73.0133 330.896 73.44 332.219 73.44C334.053 73.44 335.611 72.6507 336.891 71.072L339.803 72.96C338.864 74.1973 337.723 75.168 336.379 75.872C335.056 76.5547 333.669 76.896 332.219 76.896C329.68 76.896 327.504 75.9787 325.691 74.144C323.856 72.3307 322.939 70.1547 322.939 67.616C322.939 65.0773 323.856 62.8907 325.691 61.056C327.504 59.2213 329.68 58.304 332.219 58.304C334.757 58.304 336.944 59.2213 338.779 61.056C340.613 62.8907 341.531 65.0773 341.531 67.616ZM328.603 63.04C327.664 63.808 327.024 64.7467 326.683 65.856H337.787C337.403 64.6827 336.752 63.744 335.835 63.04C334.811 62.208 333.605 61.792 332.219 61.792C330.896 61.792 329.691 62.208 328.603 63.04ZM362.874 67.616C362.874 67.8507 362.853 68.1067 362.81 68.384C362.789 68.6613 362.757 68.9813 362.714 69.344H348.026C348.368 70.4747 349.008 71.4133 349.946 72.16C351.034 73.0133 352.24 73.44 353.562 73.44C355.397 73.44 356.954 72.6507 358.234 71.072L361.146 72.96C360.208 74.1973 359.066 75.168 357.722 75.872C356.4 76.5547 355.013 76.896 353.562 76.896C351.024 76.896 348.848 75.9787 347.034 74.144C345.2 72.3307 344.282 70.1547 344.282 67.616C344.282 65.0773 345.2 62.8907 347.034 61.056C348.848 59.2213 351.024 58.304 353.562 58.304C356.101 58.304 358.288 59.2213 360.122 61.056C361.957 62.8907 362.874 65.0773 362.874 67.616ZM349.946 63.04C349.008 63.808 348.368 64.7467 348.026 65.856H359.13C358.746 64.6827 358.096 63.744 357.178 63.04C356.154 62.208 354.949 61.792 353.562 61.792C352.24 61.792 351.034 62.208 349.946 63.04Z" fill="#661156"/>
</svg>
