<svg width="543" height="386" viewBox="0 0 543 386" fill="none" xmlns="http://www.w3.org/2000/svg">
<path d="M0 145H543L513.159 189L543 236H0L28.5595 189.5L0 145Z" fill="#661156"/>
<path d="M272 49L302.983 144.356H403.246L322.131 203.289L353.114 298.644L272 239.711L190.886 298.644L221.869 203.289L140.754 144.356H241.017L272 49Z" fill="#C87F9A"/>
<path d="M348.132 87.8761L319.519 175.937L318.958 177.664L320.427 178.732L395.336 233.157L302.743 233.157L300.927 233.157L300.366 234.884L271.753 322.945L243.14 234.884L242.579 233.157L240.763 233.157L148.17 233.157L223.079 178.732L224.549 177.664L223.987 175.937L195.375 87.8761L270.284 142.301L271.753 143.368L273.223 142.301L348.132 87.8761Z" fill="#FCFBE4" stroke="#C87F9A" stroke-width="5"/>
<path d="M230.566 252.469L228.808 247.061C228.554 246.278 227.446 246.278 227.192 247.061L225.434 252.469H219.748C218.925 252.469 218.582 253.523 219.249 254.007L223.849 257.349L222.092 262.757C221.837 263.54 222.734 264.191 223.4 263.707L228 260.365L232.6 263.707C233.266 264.191 234.163 263.54 233.908 262.757L232.151 257.349L236.751 254.007C237.418 253.523 237.075 252.469 236.252 252.469H230.566Z" fill="#661156" stroke="#661156" stroke-width="1.5"/>
<path d="M252.566 252.469L250.808 247.061C250.554 246.278 249.446 246.278 249.192 247.061L247.434 252.469H241.748C240.925 252.469 240.582 253.523 241.249 254.007L245.849 257.349L244.092 262.757C243.837 263.54 244.734 264.191 245.4 263.707L250 260.365L254.6 263.707C255.266 264.191 256.163 263.54 255.908 262.757L254.151 257.349L258.751 254.007C259.418 253.523 259.075 252.469 258.252 252.469H252.566Z" fill="#661156" stroke="#661156" stroke-width="1.5"/>
<path d="M274.566 252.469L272.808 247.061C272.554 246.278 271.446 246.278 271.192 247.061L269.434 252.469H263.748C262.925 252.469 262.582 253.523 263.249 254.007L267.849 257.349L266.092 262.757C265.837 263.54 266.734 264.191 267.4 263.707L272 260.365L276.6 263.707C277.266 264.191 278.163 263.54 277.908 262.757L276.151 257.349L280.751 254.007C281.418 253.523 281.075 252.469 280.252 252.469H274.566Z" fill="#661156" stroke="#661156" stroke-width="1.5"/>
<path d="M296.566 252.469L294.808 247.061C294.554 246.278 293.446 246.278 293.192 247.061L291.434 252.469H285.748C284.925 252.469 284.582 253.523 285.249 254.007L289.849 257.349L288.092 262.757C287.837 263.54 288.734 264.191 289.4 263.707L294 260.365L298.6 263.707C299.266 264.191 300.163 263.54 299.908 262.757L298.151 257.349L302.751 254.007C303.418 253.523 303.075 252.469 302.252 252.469H296.566Z" fill="#661156" stroke="#661156" stroke-width="1.5"/>
<path d="M318.566 252.469L316.808 247.061C316.554 246.278 315.446 246.278 315.192 247.061L313.434 252.469H307.748C306.925 252.469 306.582 253.523 307.249 254.007L311.849 257.349L310.092 262.757C309.837 263.54 310.734 264.191 311.4 263.707L316 260.365L320.6 263.707C321.266 264.191 322.163 263.54 321.908 262.757L320.151 257.349L324.751 254.007C325.418 253.523 325.075 252.469 324.252 252.469H318.566Z" fill="#661156" stroke="#661156" stroke-width="1.5"/>
<path d="M48 193V191H46V189H48V187H56V185H48V183H58V185H60V193H48ZM50 191H56V189H50V191ZM64 193V191H62V179H66V183H74V185H76V191H74V193H64ZM66 191H72V185H66V191ZM78 193V191H88V189H80V187H78V185H80V183H90V185H82V187H90V189H92V191H90V193H78ZM96 193V191H94V185H96V183H106V185H108V191H106V193H96ZM98 191H104V185H98V191ZM112 193V191H116V181H114V179H120V191H124V193H112ZM128 193V191H126V183H130V191H136V183H140V193H128ZM148 193V185H144V183H148V179H152V183H156V185H152V193H148ZM160 193V191H158V185H160V183H170V185H172V189H162V191H170V193H160ZM162 187H168V185H162V187Z" fill="#FCFBE4"/>
<path d="M378 193V185H374V183H378V179H382V183H386V185H382V193H378ZM390 193V191H388V185H390V183H400V185H402V191H400V193H390ZM392 191H398V185H392V191ZM404 195V183H416V185H418V189H416V191H408V195H404ZM408 189H414V185H408V189ZM420 193V183H432V185H434V193H430V185H424V193H420ZM438 193V191H436V185H438V183H448V185H450V191H448V193H438ZM440 191H446V185H440V191ZM458 193V185H454V183H458V179H462V183H466V185H462V193H458ZM470 193V191H468V185H470V183H482V185H472V191H482V193H470ZM484 193V179H488V183H496V185H498V193H494V185H488V193H484Z" fill="#FCFBE4"/>
<path d="M237.724 136.527L252.574 229.888C252.795 231.278 253.734 232.457 255.049 232.958C268.86 238.215 277.283 238.463 290.492 233.002C291.767 232.476 292.656 231.3 292.854 229.936L306.411 136.457C306.786 133.868 304.614 131.623 302.012 131.887C279.664 134.15 265.035 134.236 242.12 131.901C239.493 131.633 237.309 133.919 237.724 136.527Z" fill="#661156" stroke="#661156" stroke-width="6"/>
<path d="M309.545 132.239L301.707 112.629C301.555 112.249 301.187 112 300.778 112L243.301 112C242.878 112 242.5 112.266 242.359 112.665L235.392 132.275C235.186 132.854 235.557 133.482 236.161 133.593C264.323 138.742 280.633 138.559 308.783 133.595C309.406 133.485 309.78 132.827 309.545 132.239Z" fill="#FCFBE4" stroke="#661156" stroke-width="6"/>
<path d="M299.081 189.371L302.879 161.884C279.145 165.872 265.853 165.811 242.119 161.884L245.917 189.371C267.137 194.699 278.813 195.148 299.081 189.371Z" fill="#FCFBE4" stroke="#661156" stroke-width="4"/>
</svg>
