<svg width="512" height="272" viewBox="0 0 512 272" fill="none" xmlns="http://www.w3.org/2000/svg">
<rect x="288" y="15.1699" width="171.24" height="217.316" rx="12" fill="#C87F9A" stroke="#661156" stroke-width="8"/>
<rect x="303.848" y="31.0195" width="142.177" height="185.62" rx="8" fill="#FCFBE4" stroke="#661156" stroke-width="6"/>
<path d="M340.709 20.1843L340.709 31.2851C340.709 34.0466 342.947 36.2852 345.709 36.2852L404.164 36.2851C406.925 36.2851 409.164 34.0466 409.164 31.2851L409.164 20.1843C409.164 17.4229 406.925 15.1843 404.164 15.1843L395.161 15.1843C393.065 15.1843 391.366 13.4851 391.366 11.3891C391.366 10.3297 390.927 9.3094 390.121 8.62138C379.782 -0.208964 369.4 -0.20692 358.451 8.62751C357.606 9.30951 357.138 10.351 357.138 11.437C357.138 13.5066 355.46 15.1843 353.391 15.1843L345.709 15.1843C342.947 15.1843 340.709 17.4229 340.709 20.1843Z" fill="#FCFBE4" stroke="#661156" stroke-width="4"/>
<circle cx="374.937" cy="17.8538" r="9.21517" fill="#661156"/>
<path d="M396 67.8799L314.38 67.8799" stroke="#661156" stroke-width="4" stroke-linecap="round"/>
<path d="M396 92.8916L314.38 92.8916" stroke="#661156" stroke-width="4" stroke-linecap="round"/>
<path d="M396 117.905L314.38 117.905" stroke="#661156" stroke-width="4" stroke-linecap="round"/>
<path d="M396 142.917L314.38 142.917" stroke="#661156" stroke-width="4" stroke-linecap="round"/>
<path d="M396 167.93L314.38 167.93" stroke="#661156" stroke-width="4" stroke-linecap="round"/>
<path d="M396 192.942L314.38 192.942" stroke="#661156" stroke-width="4" stroke-linecap="round"/>
<path d="M435.492 67.8799L406.53 67.8799" stroke="#661156" stroke-width="4" stroke-linecap="round"/>
<path d="M435.492 92.8916L406.53 92.8916" stroke="#661156" stroke-width="4" stroke-linecap="round"/>
<path d="M435.492 117.905L406.53 117.905" stroke="#661156" stroke-width="4" stroke-linecap="round"/>
<path d="M435.492 142.917L406.53 142.917" stroke="#661156" stroke-width="4" stroke-linecap="round"/>
<path d="M435.492 167.93L406.53 167.93" stroke="#661156" stroke-width="4" stroke-linecap="round"/>
<path d="M435.492 192.942L406.53 192.942" stroke="#661156" stroke-width="4" stroke-linecap="round"/>
<path d="M417.169 59.9499L418.69 63.0271C419.049 63.7533 420.077 63.7736 420.465 63.0621L426.996 51.0646" stroke="#49A078" stroke-width="4" stroke-linecap="round"/>
<path d="M417.169 84.9636L418.69 88.0408C419.049 88.767 420.077 88.7873 420.465 88.0758L426.996 76.0782" stroke="#49A078" stroke-width="4" stroke-linecap="round"/>
<path d="M417.169 109.977L418.69 113.054C419.049 113.781 420.077 113.801 420.465 113.089L426.996 101.092" stroke="#49A078" stroke-width="4" stroke-linecap="round"/>
<path d="M417.169 134.988L418.69 138.065C419.049 138.791 420.077 138.812 420.465 138.1L426.996 126.103" stroke="#49A078" stroke-width="4" stroke-linecap="round"/>
<path d="M417.169 160.001L418.69 163.078C419.049 163.804 420.077 163.824 420.465 163.113L426.996 151.115" stroke="#49A078" stroke-width="4" stroke-linecap="round"/>
<path d="M417.169 185.014L418.69 188.092C419.049 188.818 420.077 188.838 420.465 188.127L426.996 176.129" stroke="#49A078" stroke-width="4" stroke-linecap="round"/>
<path d="M498.575 157.887L504.482 164.221C506.742 166.645 506.61 170.441 504.186 172.701L415.906 255.024C415.065 255.809 414.015 256.335 412.883 256.54L404.715 258.019C400.351 258.809 396.668 254.756 397.87 250.488L400.051 242.75C400.348 241.693 400.931 240.738 401.734 239.989L490.095 157.591C492.519 155.331 496.315 155.463 498.575 157.887Z" fill="#FCFBE4" stroke="#661156" stroke-width="4"/>
<path d="M395.273 255.332C390.181 260.239 391.335 261.046 392.715 262.525C394.094 264.004 394.598 264.976 399.829 260.218C400.237 259.846 400.263 259.209 399.886 258.805L396.685 255.372C396.309 254.968 395.671 254.949 395.273 255.332Z" fill="#49A078" stroke="#661156" stroke-width="2.5"/>
<path d="M75.58 35.292C110.199 26.6501 130.163 27.1591 165.266 35.292C168.883 37.2438 168.954 39.342 168.938 43.1642V50.6358C168.938 50.6358 181 50.6358 186.771 50.6358C192.543 50.6358 193.598 55.7562 193.598 66.772C193.598 77.7878 193.598 141.797 193.598 151.243C193.598 160.69 193.067 166.063 185.197 166.063C177.327 166.063 169.032 165.538 168.938 167.637C168.844 169.735 168.938 162.263 168.938 174.331C168.938 186.399 77.8216 184.821 71 174.854C71.001 165.935 71.3523 44.5015 71.3523 44.5015C71.4051 39.9072 72.7936 36.8597 75.58 35.292ZM168.938 66.772V151.243C168.938 151.243 172.611 151.243 177.333 151.243C182.055 151.243 182.055 149.672 182.055 142.326C182.055 134.981 182.055 82.5142 182.055 75.6936C182.055 68.8729 181.006 66.772 177.333 66.772C173.66 66.772 168.938 66.772 168.938 66.772Z" stroke="#661156" stroke-width="8"/>
<path d="M184.673 139.705C184.673 132.493 184.149 69.9241 184.149 69.9241C184.149 69.9241 183.624 64.6774 174.705 64.1528C165.785 63.6281 164.736 65.2021 164.736 65.2021L164.211 53.1348H185.723C192.543 53.1348 190.969 58.5839 190.969 69.3994V152.297C190.969 161.571 189.92 163.315 185.728 163.315C181.535 163.315 169.983 162.79 166.839 165.938C163.696 169.086 163.687 154.892 163.687 153.346C163.687 153.346 173.655 153.871 179.427 153.346C185.198 152.821 184.673 146.917 184.673 139.705Z" fill="#FCFBE4"/>
<path d="M166.833 172.837C166.833 184.606 79.9017 183.066 73.4434 173.346C73.4443 164.647 73.4487 44.9134 73.4487 44.9134C73.4986 40.4327 74.2815 38.7651 76.9195 37.2361C109.695 28.808 130.123 29.3041 163.356 37.2359C166.781 39.1394 166.848 41.1857 166.833 44.9134V67.9374V150.32C166.744 152.367 166.833 161.067 166.833 172.837Z" fill="#FCFBE4"/>
<path d="M157.839 40.1576C161.566 40.1576 162.247 45.6079 151.627 47.2036C127.368 50.8479 113.628 51.1129 90.133 47.2036C77.6936 45.1338 78.3323 40.1575 83.3012 40.1575" stroke="#661156" stroke-width="5" stroke-linecap="round"/>
<path d="M152.58 100.292C187.199 91.6501 207.163 92.1591 242.266 100.292C245.883 102.244 245.954 104.342 245.938 108.164V115.636C245.938 115.636 258 115.636 263.771 115.636C269.543 115.636 270.598 120.756 270.598 131.772C270.598 142.788 270.598 206.797 270.598 216.243C270.598 225.69 270.067 231.063 262.197 231.063C254.327 231.063 246.032 230.538 245.938 232.637C245.844 234.735 245.938 227.263 245.938 239.331C245.938 251.399 154.822 249.821 148 239.854C148.001 230.935 148.352 109.502 148.352 109.502C148.405 104.907 149.794 101.86 152.58 100.292ZM245.938 131.772V216.243C245.938 216.243 249.611 216.243 254.333 216.243C259.055 216.243 259.055 214.672 259.055 207.326C259.055 199.981 259.055 147.514 259.055 140.694C259.055 133.873 258.006 131.772 254.333 131.772C250.66 131.772 245.938 131.772 245.938 131.772Z" stroke="#661156" stroke-width="8"/>
<path d="M261.673 204.705C261.673 197.493 261.149 134.924 261.149 134.924C261.149 134.924 260.624 129.677 251.705 129.153C242.785 128.628 241.736 130.202 241.736 130.202L241.211 118.135H262.723C269.543 118.135 267.969 123.584 267.969 134.399V217.297C267.969 226.571 266.92 228.315 262.728 228.315C258.535 228.315 246.983 227.79 243.839 230.938C240.696 234.086 240.687 219.892 240.687 218.346C240.687 218.346 250.655 218.871 256.427 218.346C262.198 217.821 261.673 211.917 261.673 204.705Z" fill="#FCFBE4"/>
<path d="M243.833 237.837C243.833 249.606 156.902 248.066 150.443 238.346C150.444 229.647 150.449 109.913 150.449 109.913C150.499 105.433 151.282 103.765 153.919 102.236C186.695 93.808 207.123 94.3041 240.356 102.236C243.781 104.139 243.848 106.186 243.833 109.913V132.937V215.32C243.744 217.367 243.833 226.067 243.833 237.837Z" fill="#FCFBE4"/>
<path d="M234.839 105.158C238.566 105.158 239.247 110.608 228.627 112.204C204.368 115.848 190.628 116.113 167.133 112.204C154.694 110.134 155.332 105.157 160.301 105.157" stroke="#661156" stroke-width="5" stroke-linecap="round"/>
<path d="M8.57996 100.292C43.199 91.6501 63.1635 92.1591 98.2656 100.292C101.883 102.244 101.954 104.342 101.938 108.164V115.636C101.938 115.636 114 115.636 119.771 115.636C125.543 115.636 126.598 120.756 126.598 131.772C126.598 142.788 126.598 206.797 126.598 216.243C126.598 225.69 126.067 231.063 118.197 231.063C110.327 231.063 102.032 230.538 101.938 232.637C101.844 234.735 101.938 227.263 101.938 239.331C101.938 251.399 10.8216 249.821 4 239.854C4.00102 230.935 4.3523 109.502 4.3523 109.502C4.40506 104.907 5.79364 101.86 8.57996 100.292ZM101.938 131.772V216.243C101.938 216.243 105.611 216.243 110.333 216.243C115.055 216.243 115.055 214.672 115.055 207.326C115.055 199.981 115.055 147.514 115.055 140.694C115.055 133.873 114.006 131.772 110.333 131.772C106.66 131.772 101.938 131.772 101.938 131.772Z" stroke="#661156" stroke-width="8"/>
<path d="M117.673 204.705C117.673 197.493 117.149 134.924 117.149 134.924C117.149 134.924 116.624 129.677 107.705 129.153C98.7852 128.628 97.7359 130.202 97.7359 130.202L97.2112 118.135H118.723C125.543 118.135 123.969 123.584 123.969 134.399V217.297C123.969 226.571 122.92 228.315 118.728 228.315C114.535 228.315 102.983 227.79 99.8394 230.938C96.6962 234.086 96.6865 219.892 96.6865 218.346C96.6865 218.346 106.655 218.871 112.427 218.346C118.198 217.821 117.673 211.917 117.673 204.705Z" fill="#FCFBE4"/>
<path d="M99.8329 237.837C99.8329 249.606 12.9017 248.066 6.44336 238.346C6.44433 229.647 6.44869 109.913 6.44869 109.913C6.49864 105.433 7.28153 103.765 9.91946 102.236C42.6949 93.808 63.1231 94.3041 96.3558 102.236C99.7808 104.139 99.8477 106.186 99.8329 109.913V132.937V215.32C99.744 217.367 99.8329 226.067 99.8329 237.837Z" fill="#FCFBE4"/>
<path d="M90.8393 105.158C94.5662 105.158 95.2471 110.608 84.6268 112.204C60.3684 115.848 46.6285 116.113 23.133 112.204C10.6936 110.134 11.3323 105.157 16.3012 105.157" stroke="#661156" stroke-width="5" stroke-linecap="round"/>
</svg>
