<svg width="529" height="246" viewBox="0 0 529 246" fill="none" xmlns="http://www.w3.org/2000/svg">
<path d="M140.052 45.5C140.052 69.5453 120.78 89 97.0522 89C73.3248 89 54.0522 69.5453 54.0522 45.5C54.0522 21.4547 73.3248 2 97.0522 2C120.78 2 140.052 21.4547 140.052 45.5Z" fill="#FCFBE4" stroke="#661156" stroke-width="4"/>
<path d="M84.0522 99H113.052C136.8 99 156.052 118.252 156.052 142V207H41.0522V142C41.0522 118.252 60.304 99 84.0522 99Z" fill="#C87F9A" stroke="#661156" stroke-width="4"/>
<path d="M34.0668 110.007C34.0668 110.007 5.59414 122.835 5.59833 139.47C5.60252 156.105 49.6179 149.294 57.0546 142.447C64.4913 135.601 68.5394 123.772 67.5264 108.858C66.5134 93.9431 34.0668 110.007 34.0668 110.007Z" fill="#C87F9A" stroke="#661156" stroke-width="3"/>
<path d="M32.4614 193C26.537 193 24.3022 193 23.5522 193C23.5523 193 23.5523 193 23.5523 193C23.5523 193 22.7947 193 23.5522 193C23.5134 192.918 -5.43852 132.115 8.45503 132.115C22.3579 132.114 25.8111 134.264 32.4614 141C39.1117 147.735 44.3705 193 32.4614 193Z" fill="#C87F9A"/>
<path d="M23.5523 193C23.5523 193 20.5522 193 32.4614 193C44.3705 193 39.1117 147.735 32.4614 141C25.8111 134.264 22.3579 132.114 8.45503 132.115C-5.44785 132.115 23.5523 193 23.5523 193Z" stroke="#661156" stroke-width="3"/>
<path d="M39.2924 160.603L52.803 159C55.382 158.693 57.2775 156.349 57.0369 153.763C56.7926 151.138 54.4446 149.282 51.8327 149.648L44.0369 150.741C43.1836 150.861 42.3192 150.795 41.5025 150.548L40.4395 150.226C36.701 149.095 32.9875 152.345 33.569 156.238C33.9842 159.019 36.4967 160.935 39.2924 160.603Z" fill="#661156" stroke="#C87F9A"/>
<path d="M48.1622 162.534L43.5654 177.61C41.8789 183.141 35.4712 185.158 30.6689 181.727C29.3103 180.756 27.7372 180.148 26.1346 179.985C20.7239 179.435 16.9885 173.672 18.6055 168.369L23.3287 152.878C25.4746 145.84 32.7734 142.297 39.631 144.963C46.4886 147.63 50.3081 155.497 48.1622 162.534Z" fill="#661156" stroke="#C87F9A"/>
<path d="M55.5799 162.908L52.6301 165.699L64.5712 181.647L65.641 181.657C66.9464 182.129 67.2437 182.682 68.6623 183.593C68.0382 181.972 67.6139 181.417 67.2361 179.971L67.3222 178.902L55.5799 162.908Z" fill="#FCFBE4" stroke="#661156" stroke-width="1.5"/>
<path d="M53.6781 166.105L53.1969 166.105L64.5715 181.647L65.6413 181.657C66.9467 182.129 67.244 182.681 68.6626 183.593C68.0386 181.972 67.8797 181.657 67.1527 180.235L67.153 178.604L62.8217 173.169C58.6077 171.382 58.9719 173.17 53.6781 166.105Z" fill="#3C9BA1" stroke="#661156" stroke-width="0.5"/>
<path d="M44.4481 159.015L49.3525 165.616C49.3525 165.616 50.2178 166.78 51.2238 165.827C52.2299 164.874 54.8956 162.373 55.7515 161.537C56.6074 160.701 56.1838 159.811 55.8922 159.419C55.6006 159.026 53.4403 156.118 50.988 152.818C48.5358 149.518 41.9959 155.715 44.4481 159.015Z" fill="#661156" stroke="#C87F9A" stroke-width="0.5"/>
<path d="M18.644 176.159L32.2938 184.013C34.1986 185.109 36.4754 184.373 37.3792 182.37C38.283 180.367 37.4715 177.855 35.5668 176.759L21.917 168.905C20.0122 167.809 17.7354 168.544 16.8316 170.547C15.9278 172.55 16.7393 175.063 18.644 176.159Z" fill="#661156" stroke="#C87F9A"/>
<path d="M20.5229 169.782L37.8703 180.198C39.8458 181.384 42.243 180.656 43.2246 178.571C44.2062 176.486 43.4004 173.835 41.4249 172.648L24.0775 162.232C22.102 161.046 19.7048 161.775 18.7232 163.859C17.7417 165.944 18.5474 168.596 20.5229 169.782Z" fill="#661156" stroke="#C87F9A"/>
<path d="M22.5851 162.512L41.8947 174.107C44.0935 175.427 46.7616 174.616 47.8542 172.296C48.9467 169.975 48.0499 167.024 45.8511 165.704L26.5415 154.109C24.3427 152.789 21.6746 153.6 20.5821 155.92C19.4895 158.241 20.3863 161.192 22.5851 162.512Z" fill="#661156" stroke="#C87F9A"/>
<path d="M25.089 153.516L42.0485 165.024C44.1599 166.457 46.8432 165.792 48.0418 163.539C49.2403 161.287 48.5003 158.299 46.3889 156.867L29.4294 145.359C27.318 143.926 24.6347 144.591 23.4361 146.844C22.2375 149.096 22.9776 152.084 25.089 153.516Z" fill="#661156" stroke="#C87F9A"/>
<path d="M133.052 206L166.95 206C166.95 206 169.246 154.446 167.211 129.628C165.177 104.81 133.052 96.2203 133.052 108.63L133.052 206Z" fill="#C87F9A" stroke="#661156" stroke-width="3"/>
<path d="M135.302 62.275C137.607 56.4172 137.591 52.5193 138.052 47.1525C102.276 36.0423 93.2132 36.5254 55.0522 47.1525C55.0522 53.0103 57.3734 57.8816 59.2181 63.2514C88.1438 85.7873 107.71 85.6978 135.302 62.275Z" fill="#3C9BA1" stroke="#661156" stroke-width="2.5"/>
<path d="M129.052 55C103.905 63.0018 89.8919 62.9982 65.0522 55" stroke="#661156" stroke-width="1.5" stroke-linecap="round"/>
<path d="M125.052 62C103.048 70.0018 90.7869 69.9982 69.0522 62" stroke="#661156" stroke-width="1.5" stroke-linecap="round"/>
<path d="M126.052 49C105.481 57.8616 89.1951 56.0892 69.0522 49" stroke="#661156" stroke-width="1.5" stroke-linecap="round"/>
<path d="M304.052 45.5C304.052 69.5453 284.78 89 261.052 89C237.325 89 218.052 69.5453 218.052 45.5C218.052 21.4547 237.325 2 261.052 2C284.78 2 304.052 21.4547 304.052 45.5Z" fill="#FCFBE4" stroke="#661156" stroke-width="4"/>
<path d="M248.052 99H277.052C300.8 99 320.052 118.252 320.052 142V207H205.052V142C205.052 118.252 224.304 99 248.052 99Z" fill="#C87F9A" stroke="#661156" stroke-width="4"/>
<path d="M215.265 101.932C215.265 101.932 174.612 119.896 176.765 136.326C178.917 152.755 215.091 152.172 221.552 144C228.013 135.829 231.208 119.963 229.222 110.094C227.235 100.224 215.265 101.932 215.265 101.932Z" fill="#C87F9A" stroke="#661156" stroke-width="3"/>
<path d="M182.952 162.479C182.952 162.479 195.97 183.577 208.82 182.722C221.669 181.868 214.445 143.577 206.871 137.904C199.297 132.231 194.918 129.294 180.58 131.257C166.243 133.22 182.952 162.479 182.952 162.479Z" fill="#C87F9A" stroke="#661156" stroke-width="3"/>
<path d="M213.87 161.603L227.381 160C229.96 159.693 231.855 157.349 231.615 154.763C231.37 152.138 229.022 150.282 226.41 150.648L218.615 151.741C217.761 151.861 216.897 151.795 216.08 151.548L215.017 151.226C211.279 150.095 207.565 153.345 208.147 157.238C208.562 160.019 211.074 161.935 213.87 161.603Z" fill="#661156" stroke="#C87F9A"/>
<path d="M222.74 163.534L218.143 178.61C216.457 184.141 210.049 186.158 205.247 182.727C203.888 181.756 202.315 181.148 200.712 180.985C195.302 180.435 191.566 174.672 193.183 169.369L197.906 153.878C200.052 146.84 207.351 143.297 214.209 145.963C221.066 148.63 224.886 156.497 222.74 163.534Z" fill="#661156" stroke="#C87F9A"/>
<path d="M230.158 163.908L227.208 166.699L239.149 182.647L240.219 182.657C241.524 183.129 241.821 183.682 243.24 184.593C242.616 182.972 242.191 182.417 241.814 180.971L241.9 179.902L230.158 163.908Z" fill="#FCFBE4" stroke="#661156" stroke-width="1.5"/>
<path d="M228.256 167.105L227.774 167.105L239.149 182.647L240.219 182.657C241.524 183.129 241.822 183.681 243.24 184.593C242.616 182.972 242.457 182.657 241.73 181.235L241.731 179.604L237.399 174.169C233.185 172.382 233.55 174.17 228.256 167.105Z" fill="#8262A1" stroke="#661156" stroke-width="0.5"/>
<path d="M219.026 160.015L223.93 166.616C223.93 166.616 224.795 167.78 225.801 166.827C226.808 165.874 229.473 163.373 230.329 162.537C231.185 161.701 230.761 160.811 230.47 160.419C230.178 160.026 228.018 157.118 225.566 153.818C223.113 150.518 216.574 156.715 219.026 160.015Z" fill="#661156" stroke="#C87F9A" stroke-width="0.5"/>
<path d="M193.222 177.159L206.872 185.013C208.777 186.109 211.053 185.373 211.957 183.37C212.861 181.367 212.05 178.855 210.145 177.759L196.495 169.905C194.59 168.809 192.314 169.544 191.41 171.547C190.506 173.55 191.317 176.063 193.222 177.159Z" fill="#661156" stroke="#C87F9A"/>
<path d="M195.1 170.782L212.447 181.198C214.423 182.384 216.82 181.656 217.802 179.571C218.783 177.486 217.978 174.835 216.002 173.648L198.655 163.232C196.679 162.046 194.282 162.775 193.3 164.859C192.319 166.944 193.125 169.596 195.1 170.782Z" fill="#661156" stroke="#C87F9A"/>
<path d="M197.163 163.512L216.473 175.107C218.672 176.427 221.34 175.616 222.432 173.296C223.525 170.975 222.628 168.024 220.429 166.704L201.12 155.109C198.921 153.789 196.253 154.6 195.16 156.92C194.068 159.241 194.964 162.192 197.163 163.512Z" fill="#661156" stroke="#C87F9A"/>
<path d="M199.667 154.516L216.627 166.024C218.738 167.457 221.421 166.792 222.62 164.539C223.818 162.287 223.078 159.299 220.967 157.867L204.008 146.359C201.896 144.926 199.213 145.591 198.014 147.844C196.816 150.096 197.556 153.084 199.667 154.516Z" fill="#661156" stroke="#C87F9A"/>
<path d="M299.302 62.275C301.607 56.4172 301.591 52.5193 302.052 47.1525C266.276 36.0423 257.213 36.5254 219.052 47.1525C219.052 53.0103 221.373 57.8816 223.218 63.2514C252.144 85.7873 271.71 85.6978 299.302 62.275Z" fill="#3C9BA1" stroke="#661156" stroke-width="2.5"/>
<path d="M293.052 55C267.905 63.0018 253.892 62.9982 229.052 55" stroke="#661156" stroke-width="1.5" stroke-linecap="round"/>
<path d="M289.052 62C267.048 70.0018 254.787 69.9982 233.052 62" stroke="#661156" stroke-width="1.5" stroke-linecap="round"/>
<path d="M290.052 49C269.481 57.8616 253.195 56.0892 233.052 49" stroke="#661156" stroke-width="1.5" stroke-linecap="round"/>
<path d="M298.052 206L331.95 206C331.95 206 334.246 154.446 332.211 129.628C330.177 104.81 298.052 96.2203 298.052 108.63L298.052 206Z" fill="#C87F9A" stroke="#661156" stroke-width="3"/>
<path d="M483.052 45.5C483.052 69.5453 463.78 89 440.052 89C416.325 89 397.052 69.5453 397.052 45.5C397.052 21.4547 416.325 2 440.052 2C463.78 2 483.052 21.4547 483.052 45.5Z" fill="#FCFBE4" stroke="#661156" stroke-width="4"/>
<path d="M427.052 99H456.052C479.8 99 499.052 118.252 499.052 142V206H384.052V142C384.052 118.252 403.304 99 427.052 99Z" fill="#C87F9A" stroke="#661156" stroke-width="4"/>
<path d="M376.749 105.827C376.749 105.827 347.092 115.61 345.357 132.154C343.622 148.698 388.109 146.525 396.22 140.493C404.332 134.462 406.001 122.439 406.552 107.5C407.104 92.5615 376.749 105.827 376.749 105.827Z" fill="#C87F9A" stroke="#661156" stroke-width="3"/>
<path d="M394.275 170.718C394.275 170.718 412.337 160.028 400.224 147.142C388.111 134.256 377.098 116.546 368.77 119.457C360.441 122.368 336.229 126.794 345.952 145.968C355.674 165.142 394.275 170.718 394.275 170.718Z" fill="#C87F9A" stroke="#661156" stroke-width="3"/>
<path d="M404.295 160.603L417.805 159C420.384 158.693 422.28 156.349 422.039 153.763C421.795 151.138 419.447 149.282 416.835 149.648L409.039 150.741C408.186 150.861 407.322 150.795 406.505 150.548L405.442 150.226C401.703 149.095 397.99 152.345 398.571 156.238C398.987 159.019 401.499 160.935 404.295 160.603Z" fill="#661156" stroke="#C87F9A"/>
<path d="M413.165 162.534L408.568 177.61C406.881 183.141 400.474 185.158 395.671 181.727C394.313 180.756 392.74 180.148 391.137 179.985C385.726 179.435 381.991 173.672 383.608 168.369L388.331 152.878C390.477 145.84 397.776 142.297 404.633 144.963C411.491 147.63 415.311 155.497 413.165 162.534Z" fill="#661156" stroke="#C87F9A"/>
<path d="M420.582 162.908L417.633 165.699L429.574 181.647L430.643 181.657C431.949 182.129 432.246 182.682 433.665 183.593C433.041 181.972 432.616 181.417 432.239 179.971L432.325 178.902L420.582 162.908Z" fill="#FCFBE4" stroke="#661156" stroke-width="1.5"/>
<path d="M418.681 166.105L418.199 166.105L429.574 181.647L430.644 181.657C431.949 182.129 432.246 182.681 433.665 183.593C433.041 181.972 432.882 181.657 432.155 180.235L432.155 178.604L427.824 173.169C423.61 171.382 423.974 173.17 418.681 166.105Z" fill="#C87F9A" stroke="#661156" stroke-width="0.5"/>
<path d="M409.451 159.015L414.355 165.616C414.355 165.616 415.22 166.78 416.226 165.827C417.232 164.874 419.898 162.373 420.754 161.537C421.61 160.701 421.186 159.811 420.895 159.419C420.603 159.026 418.443 156.118 415.99 152.818C413.538 149.518 406.998 155.715 409.451 159.015Z" fill="#661156" stroke="#C87F9A" stroke-width="0.5"/>
<path d="M383.646 176.159L397.296 184.013C399.201 185.109 401.478 184.373 402.382 182.37C403.285 180.367 402.474 177.855 400.569 176.759L386.919 168.905C385.015 167.809 382.738 168.544 381.834 170.547C380.93 172.55 381.742 175.063 383.646 176.159Z" fill="#661156" stroke="#C87F9A"/>
<path d="M385.525 169.782L402.872 180.198C404.848 181.384 407.245 180.656 408.227 178.571C409.208 176.486 408.402 173.835 406.427 172.648L389.08 162.232C387.104 161.046 384.707 161.775 383.725 163.859C382.744 165.944 383.549 168.596 385.525 169.782Z" fill="#661156" stroke="#C87F9A"/>
<path d="M387.588 162.512L406.897 174.107C409.096 175.427 411.764 174.616 412.857 172.296C413.949 169.975 413.052 167.024 410.854 165.704L391.544 154.109C389.345 152.789 386.677 153.6 385.584 155.92C384.492 158.241 385.389 161.192 387.588 162.512Z" fill="#661156" stroke="#C87F9A"/>
<path d="M390.091 153.516L407.051 165.024C409.162 166.457 411.846 165.792 413.044 163.539C414.243 161.287 413.503 158.299 411.391 156.867L394.432 145.359C392.32 143.926 389.637 144.591 388.439 146.844C387.24 149.096 387.98 152.084 390.091 153.516Z" fill="#661156" stroke="#C87F9A"/>
<path d="M478.302 62.275C480.607 56.4172 480.591 52.5193 481.052 47.1525C445.276 36.0423 436.213 36.5254 398.052 47.1525C398.052 53.0103 400.373 57.8816 402.218 63.2514C431.144 85.7873 450.71 85.6978 478.302 62.275Z" fill="#3C9BA1" stroke="#661156" stroke-width="2.5"/>
<path d="M472.052 55C446.905 63.0018 432.892 62.9982 408.052 55" stroke="#661156" stroke-width="1.5" stroke-linecap="round"/>
<path d="M468.052 62C446.048 70.0018 433.787 69.9982 412.052 62" stroke="#661156" stroke-width="1.5" stroke-linecap="round"/>
<path d="M469.052 49C448.481 57.8616 432.195 56.0892 412.052 49" stroke="#661156" stroke-width="1.5" stroke-linecap="round"/>
<path d="M471.052 206L504.95 206C504.95 206 507.246 154.446 505.211 129.628C503.177 104.81 471.052 96.2203 471.052 108.63L471.052 206Z" fill="#C87F9A" stroke="#661156" stroke-width="3"/>
<path d="M7 205.5H522C525.038 205.5 527.5 207.962 527.5 211V225V239C527.5 242.038 525.038 244.5 522 244.5H7.00001C3.96244 244.5 1.5 242.038 1.5 239V211C1.5 207.962 3.96243 205.5 7 205.5Z" fill="#FCFBE4" stroke="#661156" stroke-width="3"/>
<path d="M100.658 208.066L100.658 227.938C100.658 230.171 98.8296 231.972 96.5967 231.938L64.6766 231.447C62.4917 231.413 60.7381 229.632 60.7381 227.447L60.7381 208.066" stroke="#661156" stroke-width="2" stroke-linecap="round"/>
<path d="M104.13 210.319L57.0502 210.319" stroke="#661156" stroke-width="2" stroke-linecap="round"/>
<path d="M72.3452 191.199L65.6843 191.199C65.0969 191.199 64.7731 191.881 65.1444 192.337C65.2459 192.461 65.3013 192.617 65.3013 192.777L65.3013 222.907C65.3013 227.918 72.6778 228.123 72.6778 222.907L72.6778 192.79C72.6778 192.622 72.7398 192.46 72.852 192.335C73.2454 191.896 72.9342 191.199 72.3452 191.199Z" fill="#FCFBE4" stroke="#661156" stroke-width="1.5"/>
<path d="M65.0711 222.132C65.0711 227.291 72.999 227.502 72.999 222.132L72.999 205.918C72.999 204.563 65.0711 204.562 65.0711 205.918L65.0711 222.132Z" fill="#3C9BA1" stroke="#661156" stroke-width="1.5"/>
<path d="M68.2294 207.264C67.9533 207.264 67.7294 207.488 67.7294 207.764C67.7294 208.04 67.9532 208.264 68.2294 208.264L68.2294 207.264ZM71.96 206.947C71.96 206.959 71.9596 206.957 71.9556 206.962C71.9446 206.976 71.9087 207.01 71.8179 207.052C71.6289 207.14 71.323 207.204 70.9103 207.241C70.0854 207.315 69.0824 207.264 68.2294 207.264L68.2294 208.264C69.0036 208.264 70.1159 208.316 70.9995 208.237C71.441 208.198 71.8876 208.122 72.2376 207.96C72.5989 207.793 72.96 207.476 72.96 206.947L71.96 206.947Z" fill="#661156"/>
<path d="M84.4312 191.199L77.7703 191.199C77.1829 191.199 76.859 191.881 77.2303 192.337C77.3318 192.461 77.3872 192.617 77.3872 192.777L77.3872 222.907C77.3872 227.918 84.7638 228.123 84.7638 222.907L84.7638 192.79C84.7638 192.622 84.8258 192.46 84.9379 192.335C85.3313 191.896 85.0202 191.199 84.4312 191.199Z" fill="#FCFBE4" stroke="#661156" stroke-width="1.5"/>
<path d="M77.1566 222.132C77.1566 227.291 85.0845 227.502 85.0845 222.132L85.0845 205.918C85.0845 204.563 77.1566 204.562 77.1566 205.918L77.1566 222.132Z" fill="#8262A1" stroke="#661156" stroke-width="1.5"/>
<path d="M80.3154 207.264C80.0392 207.264 79.8154 207.488 79.8153 207.764C79.8153 208.04 80.0392 208.264 80.3153 208.264L80.3154 207.264ZM84.0459 206.947C84.0459 206.959 84.0455 206.957 84.0415 206.962C84.0306 206.976 83.9947 207.01 83.9039 207.052C83.7149 207.14 83.4089 207.204 82.9962 207.241C82.1713 207.315 81.1683 207.264 80.3154 207.264L80.3153 208.264C81.0896 208.264 82.2018 208.316 83.0854 208.237C83.527 208.198 83.9736 208.122 84.3235 207.96C84.6848 207.793 85.0459 207.476 85.0459 206.947L84.0459 206.947Z" fill="#661156"/>
<path d="M96.9824 191.199L90.3215 191.199C89.7341 191.199 89.4103 191.881 89.7816 192.337C89.8831 192.461 89.9385 192.617 89.9385 192.777L89.9385 222.907C89.9385 227.918 97.315 228.123 97.315 222.907L97.315 192.79C97.315 192.622 97.377 192.46 97.4892 192.335C97.8826 191.896 97.5714 191.199 96.9824 191.199Z" fill="#FCFBE4" stroke="#661156" stroke-width="1.5"/>
<path d="M89.7078 222.132C89.7078 227.291 97.6357 227.502 97.6357 222.132L97.6357 205.918C97.6357 204.563 89.7078 204.562 89.7078 205.918L89.7078 222.132Z" fill="#C87F9A" stroke="#661156" stroke-width="1.5"/>
<path d="M92.8666 207.264C92.5905 207.264 92.3666 207.488 92.3666 207.764C92.3666 208.04 92.5904 208.264 92.8666 208.264L92.8666 207.264ZM96.5972 206.947C96.5972 206.959 96.5968 206.957 96.5928 206.962C96.5819 206.976 96.5459 207.01 96.4551 207.052C96.2661 207.14 95.9602 207.204 95.5475 207.241C94.7226 207.315 93.7196 207.264 92.8666 207.264L92.8666 208.264C93.6408 208.264 94.7531 208.316 95.6367 208.237C96.0782 208.198 96.5248 208.122 96.8748 207.96C97.2361 207.793 97.5972 207.476 97.5972 206.947L96.5972 206.947Z" fill="#661156"/>
<path d="M264.648 208.066L264.648 227.938C264.648 230.171 262.82 231.972 260.587 231.938L228.667 231.447C226.482 231.413 224.728 229.632 224.728 227.447L224.728 208.066" stroke="#661156" stroke-width="2" stroke-linecap="round"/>
<path d="M268.119 210.319L221.039 210.319" stroke="#661156" stroke-width="2" stroke-linecap="round"/>
<path d="M236.335 191.199L229.674 191.199C229.087 191.199 228.763 191.881 229.134 192.337C229.236 192.461 229.291 192.617 229.291 192.777L229.291 222.907C229.291 227.918 236.668 228.123 236.668 222.907L236.668 192.79C236.668 192.622 236.73 192.46 236.842 192.335C237.235 191.896 236.924 191.199 236.335 191.199Z" fill="#FCFBE4" stroke="#661156" stroke-width="1.5"/>
<path d="M229.06 222.132C229.06 227.291 236.988 227.502 236.988 222.132L236.988 205.918C236.988 204.563 229.06 204.562 229.06 205.918L229.06 222.132Z" fill="#3C9BA1" stroke="#661156" stroke-width="1.5"/>
<path d="M232.219 207.264C231.943 207.264 231.719 207.488 231.719 207.764C231.719 208.04 231.943 208.264 232.219 208.264L232.219 207.264ZM235.95 206.947C235.95 206.959 235.949 206.957 235.945 206.962C235.934 206.976 235.898 207.01 235.808 207.052C235.619 207.14 235.313 207.204 234.9 207.241C234.075 207.315 233.072 207.264 232.219 207.264L232.219 208.264C232.993 208.264 234.106 208.316 234.989 208.237C235.431 208.198 235.877 208.122 236.227 207.96C236.589 207.793 236.95 207.476 236.95 206.947L235.95 206.947Z" fill="#661156"/>
<path d="M248.421 191.199L241.76 191.199C241.173 191.199 240.849 191.881 241.22 192.337C241.322 192.461 241.377 192.617 241.377 192.777L241.377 222.907C241.377 227.918 248.754 228.123 248.754 222.907L248.754 192.79C248.754 192.622 248.816 192.46 248.928 192.335C249.321 191.896 249.01 191.199 248.421 191.199Z" fill="#FCFBE4" stroke="#661156" stroke-width="1.5"/>
<path d="M241.146 222.132C241.146 227.291 249.074 227.502 249.074 222.132L249.074 205.918C249.074 204.563 241.146 204.562 241.146 205.918L241.146 222.132Z" fill="#8262A1" stroke="#661156" stroke-width="1.5"/>
<path d="M244.305 207.264C244.029 207.264 243.805 207.488 243.805 207.764C243.805 208.04 244.029 208.264 244.305 208.264L244.305 207.264ZM248.036 206.947C248.036 206.959 248.035 206.957 248.031 206.962C248.02 206.976 247.984 207.01 247.894 207.052C247.705 207.14 247.399 207.204 246.986 207.241C246.161 207.315 245.158 207.264 244.305 207.264L244.305 208.264C245.079 208.264 246.192 208.316 247.075 208.237C247.517 208.198 247.963 208.122 248.313 207.96C248.675 207.793 249.036 207.476 249.036 206.947L248.036 206.947Z" fill="#661156"/>
<path d="M260.972 191.199L254.311 191.199C253.723 191.199 253.4 191.881 253.771 192.337C253.872 192.461 253.928 192.617 253.928 192.777L253.928 222.907C253.928 227.918 261.304 228.123 261.304 222.907L261.304 192.79C261.304 192.622 261.366 192.46 261.478 192.335C261.872 191.896 261.561 191.199 260.972 191.199Z" fill="#FCFBE4" stroke="#661156" stroke-width="1.5"/>
<path d="M253.698 222.132C253.698 227.291 261.625 227.502 261.625 222.132L261.625 205.918C261.625 204.563 253.698 204.562 253.698 205.918L253.698 222.132Z" fill="#C87F9A" stroke="#661156" stroke-width="1.5"/>
<path d="M256.856 207.264C256.58 207.264 256.356 207.488 256.356 207.764C256.356 208.04 256.58 208.264 256.856 208.264L256.856 207.264ZM260.587 206.947C260.587 206.959 260.587 206.957 260.583 206.962C260.572 206.976 260.536 207.01 260.445 207.052C260.256 207.14 259.95 207.204 259.537 207.241C258.712 207.315 257.709 207.264 256.856 207.264L256.856 208.264C257.631 208.264 258.743 208.316 259.626 208.237C260.068 208.198 260.515 208.122 260.865 207.96C261.226 207.793 261.587 207.476 261.587 206.947L260.587 206.947Z" fill="#661156"/>
<path d="M444.637 208.066L444.637 227.938C444.637 230.171 442.809 231.972 440.576 231.938L408.656 231.447C406.471 231.413 404.717 229.632 404.717 227.447L404.717 208.066" stroke="#661156" stroke-width="2" stroke-linecap="round"/>
<path d="M448.108 210.319L401.028 210.319" stroke="#661156" stroke-width="2" stroke-linecap="round"/>
<path d="M416.324 191.199L409.663 191.199C409.075 191.199 408.752 191.881 409.123 192.337C409.224 192.461 409.28 192.617 409.28 192.777L409.28 222.907C409.28 227.918 416.656 228.123 416.656 222.907L416.656 192.79C416.656 192.622 416.718 192.46 416.83 192.335C417.224 191.896 416.913 191.199 416.324 191.199Z" fill="#FCFBE4" stroke="#661156" stroke-width="1.5"/>
<path d="M409.049 222.132C409.049 227.291 416.977 227.502 416.977 222.132L416.977 205.918C416.977 204.563 409.049 204.562 409.049 205.918L409.049 222.132Z" fill="#3C9BA1" stroke="#661156" stroke-width="1.5"/>
<path d="M412.208 207.264C411.932 207.264 411.708 207.488 411.708 207.764C411.708 208.04 411.932 208.264 412.208 208.264L412.208 207.264ZM415.938 206.947C415.938 206.959 415.938 206.957 415.934 206.962C415.923 206.976 415.887 207.01 415.796 207.052C415.607 207.14 415.302 207.204 414.889 207.241C414.064 207.315 413.061 207.264 412.208 207.264L412.208 208.264C412.982 208.264 414.094 208.316 414.978 208.237C415.42 208.198 415.866 208.122 416.216 207.96C416.577 207.793 416.938 207.476 416.938 206.947L415.938 206.947Z" fill="#661156"/>
<path d="M428.409 191.199L421.748 191.199C421.161 191.199 420.837 191.881 421.208 192.337C421.31 192.461 421.365 192.617 421.365 192.777L421.365 222.907C421.365 227.918 428.742 228.123 428.742 222.907L428.742 192.79C428.742 192.622 428.804 192.46 428.916 192.335C429.309 191.896 428.998 191.199 428.409 191.199Z" fill="#FCFBE4" stroke="#661156" stroke-width="1.5"/>
<path d="M421.135 222.132C421.135 227.291 429.062 227.502 429.062 222.132L429.062 205.918C429.063 204.563 421.135 204.562 421.135 205.918L421.135 222.132Z" fill="#8262A1" stroke="#661156" stroke-width="1.5"/>
<path d="M424.293 207.264C424.017 207.264 423.793 207.488 423.793 207.764C423.793 208.04 424.017 208.264 424.293 208.264L424.293 207.264ZM428.024 206.947C428.024 206.959 428.024 206.957 428.02 206.962C428.009 206.976 427.973 207.01 427.882 207.052C427.693 207.14 427.387 207.204 426.974 207.241C426.149 207.315 425.146 207.264 424.293 207.264L424.293 208.264C425.068 208.264 426.18 208.316 427.063 208.237C427.505 208.198 427.952 208.122 428.302 207.96C428.663 207.793 429.024 207.476 429.024 206.947L428.024 206.947Z" fill="#661156"/>
<path d="M440.96 191.199L434.3 191.199C433.712 191.199 433.388 191.881 433.76 192.337C433.861 192.461 433.917 192.617 433.917 192.777L433.917 222.907C433.917 227.918 441.293 228.123 441.293 222.907L441.293 192.79C441.293 192.622 441.355 192.46 441.467 192.335C441.861 191.896 441.549 191.199 440.96 191.199Z" fill="#FCFBE4" stroke="#661156" stroke-width="1.5"/>
<path d="M433.686 222.132C433.686 227.291 441.614 227.502 441.614 222.132L441.614 205.918C441.614 204.563 433.686 204.562 433.686 205.918L433.686 222.132Z" fill="#C87F9A" stroke="#661156" stroke-width="1.5"/>
<path d="M436.846 207.264C436.569 207.264 436.346 207.488 436.346 207.764C436.346 208.04 436.569 208.264 436.846 208.264L436.846 207.264ZM440.576 206.947C440.576 206.959 440.576 206.957 440.572 206.962C440.561 206.976 440.525 207.01 440.434 207.052C440.245 207.14 439.939 207.204 439.526 207.241C438.702 207.315 437.699 207.264 436.846 207.264L436.846 208.264C437.62 208.264 438.732 208.316 439.616 208.237C440.057 208.198 440.504 208.122 440.854 207.96C441.215 207.793 441.576 207.476 441.576 206.947L440.576 206.947Z" fill="#661156"/>
</svg>
