<svg width="476" height="464" viewBox="0 0 476 464" fill="none" xmlns="http://www.w3.org/2000/svg">
<path d="M84.9053 320.809L229.682 413.859C235.012 417.285 241.861 417.243 247.149 413.752L392.095 318.057C396.581 315.095 399.28 310.079 399.28 304.704L399.28 158.512C399.28 153.284 396.726 148.387 392.44 145.394L249.066 45.2731C243.608 41.4613 236.359 41.428 230.866 45.1896L84.5159 145.404C80.16 148.387 77.5558 153.326 77.5558 158.605L77.556 307.349C77.556 312.794 80.3249 317.865 84.9053 320.809Z" fill="#C87F9A"/>
<path d="M238.5 76.067L271.596 177.605L272.159 179.33H273.973H381.053L294.43 242.066L292.956 243.134L293.52 244.865L326.611 346.387L239.966 283.635L238.5 282.573L237.034 283.635L150.389 346.387L183.48 244.865L184.044 243.134L182.57 242.066L95.9471 179.33H203.027H204.841L205.404 177.605L238.5 76.067Z" fill="#C87F9A" stroke="#FCFBE4" stroke-width="5"/>
<path d="M326.255 111.251L293.223 212.916L292.661 214.643L294.131 215.711L380.612 278.543L273.715 278.543L271.899 278.543L271.338 280.271L238.305 381.935L205.272 280.271L204.711 278.543L202.894 278.543L95.9975 278.543L182.479 215.711L183.948 214.643L183.387 212.916L150.354 111.251L236.835 174.083L238.305 175.151L239.774 174.083L326.255 111.251Z" fill="#FCFBE4" stroke="#C87F9A" stroke-width="5"/>
<path d="M280.435 328L178.5 328C173.529 328 169.5 323.971 169.5 319L169.5 169.82C169.5 168.646 169.73 167.483 170.176 166.397L177.473 148.654C177.919 147.568 178.149 146.405 178.149 145.231L178.149 139.31C178.254 134.101 179.153 132.116 183.79 132.019L284.572 132.019C290.154 131.758 290.635 134.157 290.589 139.31L290.589 147.009C290.589 147.009 296.987 171.473 298.492 174.027C299.996 176.58 301.5 179.601 301.5 180.888L301.494 309.808C301.494 312.897 299.91 315.706 297.299 317.354L280.435 328Z" fill="#FCFBE4"/>
<path d="M280.435 328L178.5 328C173.529 328 169.5 323.971 169.5 319L169.5 169.82C169.5 168.646 169.73 167.483 170.176 166.397L177.473 148.654C177.919 147.568 178.149 146.405 178.149 145.231L178.149 139.31C178.254 134.101 179.153 132.116 183.79 132.019L284.572 132.019C290.154 131.758 290.635 134.157 290.589 139.31L290.589 147.009M280.435 328L297.299 317.354C299.91 315.706 301.494 312.897 301.494 309.808C301.495 285.842 301.5 182.026 301.5 180.888C301.5 179.601 299.996 176.58 298.492 174.027C296.987 171.473 290.589 147.009 290.589 147.009M280.435 328C280.435 328 280.812 182.752 280.812 180.888C280.812 179.024 282.598 177.438 284.572 174.027C286.546 170.615 290.589 147.009 290.589 147.009" stroke="#661156" stroke-width="7"/>
<path d="M278.833 146.667H189.5" stroke="#661156" stroke-width="5" stroke-linecap="round"/>
<path d="M223.955 288.718L189.854 266.801C189.568 266.617 189.395 266.3 189.395 265.96L189.395 230.897C189.395 230.567 189.557 230.259 189.83 230.072L224.293 206.473C224.636 206.238 225.089 206.24 225.43 206.479L259.199 230.06C259.467 230.247 259.627 230.553 259.627 230.88L259.627 265.344C259.627 265.68 259.458 265.993 259.178 266.178L225.047 288.712C224.717 288.93 224.289 288.932 223.955 288.718Z" fill="#661156" stroke="#661156" stroke-width="4"/>
<circle cx="224.167" cy="185.333" r="7.33333" stroke="#661156" stroke-width="4"/>
</svg>
