<svg width="476" height="464" viewBox="0 0 476 464" fill="none" xmlns="http://www.w3.org/2000/svg">
<path d="M84.9053 320.809L229.682 413.859C235.012 417.285 241.861 417.243 247.149 413.752L392.095 318.057C396.581 315.095 399.28 310.079 399.28 304.704L399.28 158.512C399.28 153.284 396.726 148.387 392.44 145.394L249.066 45.2731C243.608 41.4613 236.359 41.428 230.866 45.1896L84.5159 145.404C80.16 148.387 77.5558 153.326 77.5558 158.605L77.556 307.349C77.556 312.794 80.3249 317.865 84.9053 320.809Z" fill="#C87F9A"/>
<path d="M238.5 76.067L271.596 177.605L272.159 179.33H273.973H381.053L294.43 242.066L292.956 243.134L293.52 244.865L326.611 346.387L239.966 283.635L238.5 282.573L237.034 283.635L150.389 346.387L183.48 244.865L184.044 243.134L182.57 242.066L95.9471 179.33H203.027H204.841L205.404 177.605L238.5 76.067Z" fill="#C87F9A" stroke="#FCFBE4" stroke-width="5"/>
<path d="M326.256 111.251L293.223 212.916L292.661 214.643L294.131 215.711L380.612 278.543L273.715 278.543L271.899 278.543L271.338 280.271L238.305 381.935L205.272 280.271L204.711 278.543L202.894 278.543L95.9978 278.543L182.479 215.711L183.948 214.643L183.387 212.916L150.354 111.251L236.835 174.083L238.305 175.151L239.774 174.083L326.256 111.251Z" fill="#FCFBE4" stroke="#C87F9A" stroke-width="5"/>
<path d="M144.964 174.556L112.578 287.782C112.191 289.136 112.543 290.599 113.52 291.612C126.467 305.039 135.772 309.727 153.8 310.445C155.178 310.5 156.48 309.812 157.236 308.659L221.74 210.28C223.175 208.092 222.15 205.137 219.678 204.28C192.624 194.903 176.104 187.323 150.908 172.229C148.642 170.871 145.69 172.017 144.964 174.556Z" fill="#661156" stroke="#661156" stroke-width="6"/>
<path d="M226.755 208.476L228.233 182.158C228.256 181.749 228.028 181.368 227.658 181.195L163.421 151.241C163.037 151.062 162.583 151.144 162.286 151.446L144.061 169.954C143.629 170.393 143.7 171.119 144.202 171.475C173.065 191.983 191.334 200.25 225.49 209.383C226.102 209.547 226.719 209.109 226.755 208.476Z" fill="#FCFBE4" stroke="#661156" stroke-width="6"/>
<path d="M185.488 266.335L203.974 237.722C175.498 229.845 160.74 222.881 136.371 206.198L126.335 238.752C147.181 255.689 159.939 262.246 185.488 266.335Z" fill="#FCFBE4" stroke="#661156" stroke-width="4"/>
<path d="M253.11 210.8L319.029 308.39C319.816 309.556 321.164 310.227 322.568 310.129C341.176 308.842 350.748 304.728 362.887 291.379C363.814 290.359 364.124 288.919 363.727 287.599L329.827 174.948C329.073 172.443 326.15 171.329 323.905 172.672C299.331 187.369 282.906 195.152 255.148 204.75C252.651 205.613 251.631 208.611 253.11 210.8Z" fill="#661156" stroke="#661156" stroke-width="6"/>
<path d="M331.668 169.947L312.457 151.897C312.159 151.617 311.72 151.547 311.35 151.72L247.113 181.674C246.729 181.853 246.5 182.254 246.54 182.675L249.003 208.533C249.062 209.145 249.664 209.558 250.259 209.403C284.522 200.474 302.598 191.793 331.549 171.499C332.068 171.135 332.129 170.381 331.668 169.947Z" fill="#FCFBE4" stroke="#661156" stroke-width="6"/>
<path d="M349.464 238.751L339.429 206.198C315.091 222.948 300.27 229.777 271.826 237.722L290.312 266.334C316.687 261.253 329.91 255.695 349.464 238.751Z" fill="#FCFBE4" stroke="#661156" stroke-width="4"/>
</svg>
